SplineFontDB: 3.2
FontName: IRNarges
FullName: IRNarges
FamilyName: IRNarges
Weight: Book
Copyright: Copyright (c) 2022, Information Technology Organization of Iran (ito.gov.ir)
Version: 1.001
ItalicAngle: 0
UnderlinePosition: -100
UnderlineWidth: 60
Ascent: 1638
Descent: 410
InvalidEm: 0
sfntRevision: 0x00010042
LayerCount: 2
Layer: 0 1 "Back" 1
Layer: 1 1 "Fore" 0
XUID: [1021 420 722297922 16372524]
StyleMap: 0x0040
FSType: 0
OS2Version: 3
OS2_WeightWidthSlopeOnly: 0
OS2_UseTypoMetrics: 0
CreationTime: 1355088260
ModificationTime: 1662630007
PfmFamily: 17
TTFWeight: 400
TTFWidth: 5
LineGap: 100
VLineGap: 0
Panose: 2 0 5 3 0 0 0 2 0 2
OS2TypoAscent: 2042
OS2TypoAOffset: 0
OS2TypoDescent: -1085
OS2TypoDOffset: 0
OS2TypoLinegap: 1500
OS2WinAscent: 2042
OS2WinAOffset: 0
OS2WinDescent: 1085
OS2WinDOffset: 0
HheadAscent: 2042
HheadAOffset: 0
HheadDescent: -1085
HheadDOffset: 0
OS2SubXSize: 1434
OS2SubYSize: 1331
OS2SubXOff: 0
OS2SubYOff: 293
OS2SupXSize: 1434
OS2SupYSize: 1331
OS2SupXOff: 0
OS2SupYOff: 930
OS2StrikeYSize: 50
OS2StrikeYPos: 250
OS2CapHeight: 2042
OS2XHeight: 594
OS2FamilyClass: 2048
OS2Vendor: 'PARS'
OS2CodePages: 20000041.00000000
OS2UnicodeRanges: 00002003.00000000.00000000.00000000
Lookup: 1 1 0 "'isol' Isolated Forms in Arabic lookup 0" { "'isol' Isolated Forms in Arabic lookup 0 subtable"  } ['isol' ('arab' <'dflt' > ) ]
Lookup: 1 1 0 "'init' Initial Forms in Arabic lookup 1" { "'init' Initial Forms in Arabic lookup 1 subtable"  } ['init' ('arab' <'dflt' > ) ]
Lookup: 1 1 0 "'fina' Terminal Forms in Arabic lookup 2" { "'fina' Terminal Forms in Arabic lookup 2 subtable"  } ['fina' ('arab' <'dflt' > ) ]
Lookup: 1 1 0 "'medi' Medial Forms in Arabic lookup 3" { "'medi' Medial Forms in Arabic lookup 3 subtable"  } ['medi' ('arab' <'dflt' > ) ]
Lookup: 4 1 0 "'ccmp' Glyph Composition/Decomposition in Arabic lookup 4" { "'ccmp' Glyph Composition/Decomposition in Arabic lookup 4 subtable"  } ['ccmp' ('arab' <'dflt' > ) ]

StartChar: quotedbl
Encoding: 34 34 4
Width: 701
Flags: W
LayerCount: 2
Fore
SplineSet
205 1000 m 1,0,1
 201 1024 201 1024 198 1042 c 128,-1,2
 195 1060 195 1060 194 1068 c 0,3,4
 178 1156 178 1156 169 1219 c 128,-1,5
 160 1282 160 1282 160 1303 c 0,6,7
 160 1350 160 1350 178 1377 c 128,-1,8
 196 1404 196 1404 224 1404 c 0,9,10
 238 1404 238 1404 250.5 1396.5 c 128,-1,11
 263 1389 263 1389 271.5 1377 c 128,-1,12
 280 1365 280 1365 285 1347.5 c 128,-1,13
 290 1330 290 1330 290 1309 c 0,14,15
 290 1299 290 1299 288 1277.5 c 128,-1,16
 286 1256 286 1256 281 1220.5 c 128,-1,17
 276 1185 276 1185 267 1131.5 c 128,-1,18
 258 1078 258 1078 246 1000 c 1,19,-1
 205 1000 l 1,0,1
451 1000 m 1,20,21
 446 1024 446 1024 443.5 1042 c 128,-1,22
 441 1060 441 1060 439 1068 c 0,23,24
 423 1156 423 1156 414 1219 c 128,-1,25
 405 1282 405 1282 405 1303 c 0,26,27
 405 1350 405 1350 423 1377 c 128,-1,28
 441 1404 441 1404 470 1404 c 0,29,30
 484 1404 484 1404 496 1396.5 c 128,-1,31
 508 1389 508 1389 517 1377 c 128,-1,32
 526 1365 526 1365 530.5 1347.5 c 128,-1,33
 535 1330 535 1330 535 1309 c 0,34,35
 535 1299 535 1299 533 1277.5 c 128,-1,36
 531 1256 531 1256 526 1220.5 c 128,-1,37
 521 1185 521 1185 512 1131.5 c 128,-1,38
 503 1078 503 1078 491 1000 c 1,39,-1
 451 1000 l 1,20,21
EndSplineSet
EndChar

StartChar: quotesingle
Encoding: 39 39 5
Width: 349
Flags: W
LayerCount: 2
Fore
SplineSet
165 1000 m 1,0,1
 160 1024 160 1024 157.5 1042 c 128,-1,2
 155 1060 155 1060 153 1068 c 0,3,4
 137 1156 137 1156 128 1219 c 128,-1,5
 119 1282 119 1282 119 1303 c 0,6,7
 119 1350 119 1350 137 1377 c 128,-1,8
 155 1404 155 1404 184 1404 c 0,9,10
 198 1404 198 1404 210 1396.5 c 128,-1,11
 222 1389 222 1389 231 1377 c 128,-1,12
 240 1365 240 1365 244.5 1347.5 c 128,-1,13
 249 1330 249 1330 249 1309 c 0,14,15
 249 1299 249 1299 247 1277.5 c 128,-1,16
 245 1256 245 1256 240 1220.5 c 128,-1,17
 235 1185 235 1185 226 1131.5 c 128,-1,18
 217 1078 217 1078 205 1000 c 1,19,-1
 165 1000 l 1,0,1
EndSplineSet
EndChar

StartChar: asterisk
Encoding: 42 42 6
Width: 1126
Flags: W
LayerCount: 2
Fore
SplineSet
568 347 m 1,0,-1
 574 687 l 1,1,-1
 355 467 l 1,2,-1
 250 467 l 1,3,-1
 527 746 l 1,4,-1
 203 746 l 1,5,-1
 223 839 l 1,6,-1
 547 839 l 1,7,-1
 277 1104 l 1,8,-1
 370 1104 l 1,9,-1
 579 899 l 1,10,-1
 585 1199 l 1,11,-1
 704 1239 l 1,12,-1
 699 912 l 1,13,-1
 905 1104 l 1,14,-1
 1013 1104 l 1,15,-1
 730 839 l 1,16,-1
 1065 839 l 1,17,-1
 1043 746 l 1,18,-1
 729 746 l 1,19,-1
 1002 467 l 1,20,-1
 910 467 l 1,21,-1
 696 687 l 1,22,-1
 688 386 l 1,23,-1
 568 347 l 1,0,-1
EndSplineSet
EndChar

StartChar: plus
Encoding: 43 43 7
Width: 899
GlyphClass: 2
Flags: W
LayerCount: 2
Fore
SplineSet
403 865 m 1,0,-1
 516 865 l 1,1,-1
 516 589 l 1,2,-1
 792 589 l 1,3,-1
 792 476 l 1,4,-1
 516 476 l 1,5,-1
 516 199 l 1,6,-1
 403 199 l 1,7,-1
 403 476 l 1,8,-1
 126 476 l 1,9,-1
 126 589 l 1,10,-1
 403 589 l 1,11,-1
 403 865 l 1,0,-1
EndSplineSet
EndChar

StartChar: hyphen
Encoding: 45 45 8
Width: 922
Flags: W
LayerCount: 2
Fore
SplineSet
126 476 m 1,0,-1
 126 589 l 1,1,-1
 792 589 l 1,2,-1
 792 476 l 1,3,-1
 126 476 l 1,0,-1
EndSplineSet
EndChar

StartChar: period
Encoding: 46 46 9
Width: 541
GlyphClass: 2
Flags: W
LayerCount: 2
Fore
SplineSet
328 225 m 0,0,1
 376 225 376 225 409.5 191.5 c 128,-1,2
 443 158 443 158 443 110 c 0,3,4
 443 64 443 64 409.5 30 c 128,-1,5
 376 -4 376 -4 328 -4 c 0,6,7
 282 -4 282 -4 248 30 c 128,-1,8
 214 64 214 64 214 110 c 0,9,10
 214 158 214 158 248 191.5 c 128,-1,11
 282 225 282 225 328 225 c 0,0,1
EndSplineSet
EndChar

StartChar: slash
Encoding: 47 47 10
Width: 556
Flags: W
LayerCount: 2
Fore
SplineSet
400 795 m 1,0,-1
 521 795 l 1,1,-1
 170 -191 l 1,2,-1
 49 -191 l 1,3,-1
 400 795 l 1,0,-1
EndSplineSet
EndChar

StartChar: less
Encoding: 60 60 11
Width: 1117
Flags: W
LayerCount: 2
Fore
SplineSet
955 58 m 1,0,-1
 150 444 l 1,1,-1
 150 534 l 1,2,-1
 955 918 l 1,3,-1
 955 784 l 1,4,-1
 331 489 l 1,5,-1
 955 192 l 1,6,-1
 955 58 l 1,0,-1
EndSplineSet
EndChar

StartChar: equal
Encoding: 61 61 12
Width: 935
Flags: W
LayerCount: 2
Fore
SplineSet
126 476 m 1,0,-1
 126 589 l 1,1,-1
 792 589 l 1,2,-1
 792 476 l 1,3,-1
 126 476 l 1,0,-1
126 716 m 1,4,-1
 126 829 l 1,5,-1
 792 829 l 1,6,-1
 792 716 l 1,7,-1
 126 716 l 1,4,-1
EndSplineSet
EndChar

StartChar: greater
Encoding: 62 62 13
Width: 1117
Flags: W
LayerCount: 2
Fore
SplineSet
966 444 m 1,0,-1
 160 58 l 1,1,-1
 160 192 l 1,2,-1
 786 489 l 1,3,-1
 160 784 l 1,4,-1
 160 918 l 1,5,-1
 966 534 l 1,6,-1
 966 444 l 1,0,-1
EndSplineSet
EndChar

StartChar: bracketleft
Encoding: 91 91 14
Width: 646
GlyphClass: 2
Flags: W
LayerCount: 2
Fore
SplineSet
562 -232 m 1,0,-1
 190 -232 l 1,1,-1
 190 1686 l 1,2,-1
 562 1686 l 1,3,-1
 562 1589 l 1,4,-1
 329 1589 l 1,5,-1
 329 -137 l 1,6,-1
 562 -137 l 1,7,-1
 562 -232 l 1,0,-1
EndSplineSet
EndChar

StartChar: bracketright
Encoding: 93 93 15
Width: 646
GlyphClass: 2
Flags: W
LayerCount: 2
Fore
SplineSet
212 -137 m 1,0,-1
 443 -137 l 1,1,-1
 443 1589 l 1,2,-1
 212 1589 l 1,3,-1
 212 1686 l 1,4,-1
 582 1686 l 1,5,-1
 582 -232 l 1,6,-1
 212 -232 l 1,7,-1
 212 -137 l 1,0,-1
EndSplineSet
EndChar

StartChar: grave
Encoding: 96 96 16
Width: 499
Flags: W
LayerCount: 2
Fore
SplineSet
303 759 m 1,0,-1
 71 904 l 2,1,2
 52 918 52 918 40 934 c 128,-1,3
 28 950 28 950 28 968 c 0,4,5
 28 990 28 990 42 1003 c 128,-1,6
 56 1016 56 1016 80 1016 c 0,7,8
 95 1016 95 1016 108.5 1008 c 128,-1,9
 122 1000 122 1000 143 980 c 2,10,-1
 363 759 l 1,11,-1
 303 759 l 1,0,-1
EndSplineSet
EndChar

StartChar: braceleft
Encoding: 123 123 17
Width: 829
GlyphClass: 2
Flags: W
LayerCount: 2
Fore
SplineSet
711 -344 m 1,0,-1
 711 -374 l 1,1,2
 569 -353 569 -353 481 -258.5 c 128,-1,3
 393 -164 393 -164 393 -49 c 0,4,5
 393 12 393 12 412.5 93.5 c 128,-1,6
 432 175 432 175 432 218 c 0,7,8
 432 279 432 279 380.5 332 c 128,-1,9
 329 385 329 385 238 396 c 1,10,-1
 238 432 l 1,11,12
 329 443 329 443 380.5 495.5 c 128,-1,13
 432 548 432 548 432 611 c 0,14,15
 432 654 432 654 412.5 734.5 c 128,-1,16
 393 815 393 815 393 876 c 0,17,18
 393 992 393 992 481 1087 c 128,-1,19
 569 1182 569 1182 711 1202 c 1,20,-1
 711 1171 l 1,21,22
 611 1147 611 1147 565 1094 c 128,-1,23
 519 1041 519 1041 519 977 c 0,24,25
 519 927 519 927 538 845.5 c 128,-1,26
 557 764 557 764 557 706 c 0,27,28
 557 622 557 622 495 541 c 128,-1,29
 433 460 433 460 308 416 c 1,30,31
 429 372 429 372 493 290 c 128,-1,32
 557 208 557 208 557 122 c 0,33,34
 557 64 557 64 538 -17 c 128,-1,35
 519 -98 519 -98 519 -148 c 0,36,37
 519 -212 519 -212 565 -265 c 128,-1,38
 611 -318 611 -318 711 -344 c 1,0,-1
EndSplineSet
EndChar

StartChar: bar
Encoding: 124 124 18
Width: 347
Flags: W
LayerCount: 2
Fore
SplineSet
206 1202 m 1,0,-1
 206 -374 l 1,1,-1
 136 -374 l 1,2,-1
 136 1202 l 1,3,-1
 206 1202 l 1,0,-1
EndSplineSet
EndChar

StartChar: asciitilde
Encoding: 126 126 19
Width: 935
Flags: W
LayerCount: 2
Fore
SplineSet
881 570 m 1,0,-1
 918 570 l 1,1,2
 914 460 914 460 855 398 c 128,-1,3
 796 336 796 336 712 336 c 0,4,5
 672 336 672 336 627 349 c 128,-1,6
 582 362 582 362 396 439 c 0,7,8
 266 492 266 492 212 492 c 0,9,10
 152 492 152 492 111.5 456.5 c 128,-1,11
 71 421 71 421 53 337 c 1,12,-1
 17 337 l 1,13,14
 22 451 22 451 80 511.5 c 128,-1,15
 138 572 138 572 214 572 c 0,16,17
 252 572 252 572 291 561 c 0,18,19
 378 535 378 535 522 474 c 128,-1,20
 666 413 666 413 723 413 c 0,21,22
 786 413 786 413 829 453.5 c 128,-1,23
 872 494 872 494 881 570 c 1,0,-1
EndSplineSet
EndChar

StartChar: agrave
Encoding: 224 224 20
Width: 1075
Flags: W
LayerCount: 2
Fore
SplineSet
741 331 m 1,0,1
 720 266 720 266 690.5 213 c 128,-1,2
 661 160 661 160 626 114 c 0,3,4
 519 -19 519 -19 400 -19 c 0,5,6
 208 -19 208 -19 159 214 c 0,7,8
 133 334 133 334 157 451 c 128,-1,9
 181 568 181 568 252 683 c 0,10,11
 325 801 325 801 433 860 c 128,-1,12
 541 919 541 919 684 919 c 0,13,14
 712 919 712 919 746 918.5 c 128,-1,15
 780 918 780 918 815.5 916 c 128,-1,16
 851 914 851 914 886 912 c 128,-1,17
 921 910 921 910 952 908 c 1,18,-1
 946 646 l 1,19,-1
 946 647 l 1,20,-1
 950 254 l 2,21,22
 952 209 952 209 954.5 179.5 c 128,-1,23
 957 150 957 150 958 139 c 0,24,25
 961 114 961 114 985 114 c 0,26,27
 1053 114 1053 114 1214 346 c 1,28,-1
 1218 179 l 1,29,30
 1073 -19 1073 -19 925 -19 c 0,31,32
 785 -19 785 -19 753 126 c 0,33,34
 749 146 749 146 747 182 c 128,-1,35
 745 218 745 218 745 264 c 2,36,-1
 741 331 l 1,0,1
737 758 m 1,37,38
 688 775 688 775 647 783.5 c 128,-1,39
 606 792 606 792 561 792 c 0,40,41
 497 792 497 792 453.5 749.5 c 128,-1,42
 410 707 410 707 387 625 c 0,43,44
 362 522 362 522 357 425 c 128,-1,45
 352 328 352 328 368 248 c 0,46,47
 388 146 388 146 437 146 c 0,48,49
 493 146 493 146 589 280 c 0,50,51
 637 352 637 352 674 430 c 128,-1,52
 711 508 711 508 739 599 c 1,53,-1
 737 758 l 1,37,38
592 414 m 1,54,-1
 360 559 l 2,55,56
 341 573 341 573 329 589 c 128,-1,57
 317 605 317 605 317 623 c 0,58,59
 317 645 317 645 331 658 c 128,-1,60
 345 671 345 671 369 671 c 0,61,62
 384 671 384 671 397.5 663 c 128,-1,63
 411 655 411 655 432 635 c 2,64,-1
 652 414 l 1,65,-1
 592 414 l 1,54,-1
EndSplineSet
EndChar

StartChar: ocircumflex.001
Encoding: 65539 -1 26
Width: 1112
Flags: W
LayerCount: 2
Fore
SplineSet
416 -19 m 0,0,1
 301 -19 301 -19 205 70 c 0,2,3
 110 160 110 160 85 288 c 0,4,5
 32 528 32 528 170 726 c 0,6,7
 307 928 307 928 522 928 c 0,8,9
 643 928 643 928 742 842 c 1,10,11
 837 753 837 753 864 626 c 0,12,13
 890 499 890 499 869 388.5 c 128,-1,14
 848 278 848 278 781 179 c 0,15,16
 711 79 711 79 619.5 30 c 128,-1,17
 528 -19 528 -19 416 -19 c 0,0,1
483 98 m 0,18,19
 536 98 536 98 573.5 133 c 128,-1,20
 611 168 611 168 637 236 c 0,21,22
 665 310 665 310 668.5 393.5 c 128,-1,23
 672 477 672 477 652 574 c 0,24,25
 602 813 602 813 466 813 c 0,26,27
 365 813 365 813 313 670 c 0,28,29
 284 595 284 595 281 510.5 c 128,-1,30
 278 426 278 426 298 332 c 0,31,32
 324 213 324 213 370 155.5 c 128,-1,33
 416 98 416 98 483 98 c 0,18,19
EndSplineSet
EndChar

StartChar: dagger
Encoding: 8224 8224 30
Width: 932
Flags: W
LayerCount: 2
Fore
SplineSet
347 -231 m 1,0,-1
 567 622 l 1,1,-1
 248 592 l 1,2,-1
 297 700 l 1,3,-1
 576 668 l 1,4,-1
 607 1066 l 1,5,-1
 755 1093 l 1,6,-1
 621 668 l 1,7,-1
 941 700 l 1,8,-1
 895 592 l 1,9,-1
 612 622 l 1,10,-1
 496 -213 l 1,11,-1
 347 -231 l 1,0,-1
EndSplineSet
EndChar

StartChar: degree
Encoding: 176 176 31
Width: 409
Flags: W
LayerCount: 2
Fore
SplineSet
395 844 m 0,0,1
 344 844 344 844 307.5 880 c 128,-1,2
 271 916 271 916 271 968 c 0,3,4
 271 1021 271 1021 307.5 1057 c 128,-1,5
 344 1093 344 1093 395 1093 c 0,6,7
 447 1093 447 1093 483 1057 c 128,-1,8
 519 1021 519 1021 519 968 c 0,9,10
 519 916 519 916 483 880 c 128,-1,11
 447 844 447 844 395 844 c 0,0,1
395 888 m 256,12,13
 427 888 427 888 450.5 912 c 128,-1,14
 474 936 474 936 474 968 c 256,15,16
 474 1000 474 1000 450.5 1024 c 128,-1,17
 427 1048 427 1048 395 1048 c 256,18,19
 363 1048 363 1048 339 1024 c 128,-1,20
 315 1000 315 1000 315 968 c 256,21,22
 315 936 315 936 339 912 c 128,-1,23
 363 888 363 888 395 888 c 256,12,13
EndSplineSet
EndChar

StartChar: bullet
Encoding: 8226 8226 32
Width: 931
Flags: W
LayerCount: 2
Fore
SplineSet
817 662 m 256,0,1
 817 517 817 517 713.5 414 c 128,-1,2
 610 311 610 311 465 311 c 256,3,4
 320 311 320 311 217 414 c 128,-1,5
 114 517 114 517 114 662 c 256,6,7
 114 807 114 807 217 910 c 128,-1,8
 320 1013 320 1013 465 1013 c 256,9,10
 610 1013 610 1013 713.5 910 c 128,-1,11
 817 807 817 807 817 662 c 256,0,1
EndSplineSet
EndChar

StartChar: registered
Encoding: 174 174 33
Width: 897
Flags: W
LayerCount: 2
Fore
SplineSet
580 445 m 0,0,1
 448 445 448 445 354.5 538.5 c 128,-1,2
 261 632 261 632 261 764 c 256,3,4
 261 896 261 896 354.5 990 c 128,-1,5
 448 1084 448 1084 580 1084 c 0,6,7
 714 1084 714 1084 807 990 c 128,-1,8
 900 896 900 896 900 764 c 256,9,10
 900 632 900 632 806.5 538.5 c 128,-1,11
 713 445 713 445 580 445 c 0,0,1
580 484 m 0,12,13
 695 484 695 484 777.5 567 c 128,-1,14
 860 650 860 650 860 764 c 256,15,16
 860 878 860 878 777.5 961 c 128,-1,17
 695 1044 695 1044 580 1044 c 0,18,19
 466 1044 466 1044 383.5 961 c 128,-1,20
 301 878 301 878 301 764 c 256,21,22
 301 650 301 650 383.5 567 c 128,-1,23
 466 484 466 484 580 484 c 0,12,13
529 737 m 1,24,-1
 501 596 l 1,25,-1
 394 596 l 1,26,-1
 403 639 l 1,27,-1
 456 639 l 1,28,-1
 511 915 l 1,29,-1
 458 915 l 1,30,-1
 466 959 l 1,31,-1
 598 959 l 2,32,33
 751 959 751 959 751 875 c 0,34,35
 751 800 751 800 650 750 c 1,36,-1
 685 639 l 1,37,-1
 747 639 l 1,38,-1
 738 596 l 1,39,-1
 641 596 l 1,40,-1
 591 737 l 1,41,-1
 529 737 l 1,24,-1
538 782 m 1,42,-1
 574 782 l 2,43,44
 697 782 697 782 697 866 c 0,45,46
 697 915 697 915 607 915 c 2,47,-1
 564 915 l 1,48,-1
 538 782 l 1,42,-1
EndSplineSet
EndChar

StartChar: copyright
Encoding: 169 169 34
Width: 1244
Flags: W
LayerCount: 2
Fore
SplineSet
725 -27 m 0,0,1
 495 -27 495 -27 330.5 137 c 128,-1,2
 166 301 166 301 166 533 c 256,3,4
 166 765 166 765 330.5 929 c 128,-1,5
 495 1093 495 1093 725 1093 c 0,6,7
 958 1093 958 1093 1122 929 c 128,-1,8
 1286 765 1286 765 1286 533 c 256,9,10
 1286 301 1286 301 1122 137 c 128,-1,11
 958 -27 958 -27 725 -27 c 0,0,1
725 18 m 0,12,13
 939 18 939 18 1090 169 c 128,-1,14
 1241 320 1241 320 1241 533 c 256,15,16
 1241 746 1241 746 1090 897 c 128,-1,17
 939 1048 939 1048 725 1048 c 0,18,19
 513 1048 513 1048 362 897 c 128,-1,20
 211 746 211 746 211 533 c 256,21,22
 211 320 211 320 362 169 c 128,-1,23
 513 18 513 18 725 18 c 0,12,13
890 246 m 1,24,25
 785 213 785 213 704 213 c 0,26,27
 580 213 580 213 508 279.5 c 128,-1,28
 436 346 436 346 436 462 c 0,29,30
 436 625 436 625 541 734.5 c 128,-1,31
 646 844 646 844 805 844 c 0,32,33
 896 844 896 844 1003 814 c 1,34,-1
 967 675 l 1,35,-1
 915 684 l 1,36,-1
 923 766 l 1,37,38
 854 798 854 798 792 798 c 0,39,40
 688 798 688 798 616 700 c 128,-1,41
 544 602 544 602 544 462 c 0,42,43
 544 271 544 271 722 271 c 0,44,45
 823 271 823 271 902 307 c 1,46,-1
 890 246 l 1,24,25
EndSplineSet
EndChar

StartChar: trademark
Encoding: 8482 8482 35
Width: 1333
Flags: W
LayerCount: 2
Fore
SplineSet
440 1021 m 1,0,-1
 307 1021 l 1,1,-1
 288 923 l 1,2,-1
 225 923 l 1,3,-1
 254 1066 l 1,4,-1
 751 1066 l 1,5,-1
 723 923 l 1,6,-1
 661 923 l 1,7,-1
 679 1021 l 1,8,-1
 546 1021 l 1,9,-1
 456 569 l 1,10,-1
 554 569 l 1,11,-1
 545 524 l 1,12,-1
 243 524 l 1,13,-1
 253 569 l 1,14,-1
 350 569 l 1,15,-1
 440 1021 l 1,0,-1
1011 569 m 1,16,-1
 942 956 l 1,17,-1
 857 524 l 1,18,-1
 688 524 l 1,19,-1
 697 569 l 1,20,-1
 794 569 l 1,21,-1
 884 1021 l 1,22,-1
 787 1021 l 1,23,-1
 796 1066 l 1,24,-1
 1036 1066 l 1,25,-1
 1092 747 l 1,26,-1
 1265 1066 l 1,27,-1
 1481 1066 l 1,28,-1
 1473 1021 l 1,29,-1
 1375 1021 l 1,30,-1
 1285 569 l 1,31,-1
 1383 569 l 1,32,-1
 1373 524 l 1,33,-1
 1178 524 l 1,34,-1
 1270 985 l 1,35,-1
 1041 569 l 1,36,-1
 1011 569 l 1,16,-1
EndSplineSet
EndChar

StartChar: logicalnot
Encoding: 172 172 39
Width: 932
Flags: W
LayerCount: 2
Fore
SplineSet
177 510 m 1,0,-1
 193 590 l 1,1,-1
 975 590 l 1,2,-1
 906 248 l 1,3,-1
 814 248 l 1,4,-1
 866 510 l 1,5,-1
 177 510 l 1,0,-1
EndSplineSet
EndChar

StartChar: florin
Encoding: 402 402 40
Width: 679
Flags: W
LayerCount: 2
Fore
SplineSet
158 -231 m 1,0,-1
 210 -18 l 1,1,-1
 286 364 l 1,2,-1
 108 364 l 1,3,-1
 117 409 l 1,4,-1
 294 409 l 1,5,-1
 298 427 l 2,6,7
 330 586 330 586 463 692.5 c 128,-1,8
 596 799 596 799 761 799 c 0,9,10
 818 799 818 799 860 784 c 1,11,-1
 764 678 l 1,12,13
 712 729 712 729 643 729 c 0,14,15
 500 729 500 729 457 512 c 2,16,-1
 436 409 l 1,17,-1
 623 409 l 1,18,-1
 614 364 l 1,19,-1
 427 364 l 1,20,-1
 313 -213 l 1,21,-1
 158 -231 l 1,0,-1
EndSplineSet
EndChar

StartChar: ellipsis
Encoding: 8230 8230 41
Width: 1827
Flags: W
LayerCount: 2
Fore
SplineSet
758 113 m 0,0,1
 758 144 758 144 809.5 245.5 c 128,-1,2
 861 347 861 347 876 355 c 0,3,4
 907 369 907 369 964.5 307.5 c 128,-1,5
 1022 246 1022 246 1026 211 c 1,6,7
 1026 166 1026 166 977.5 79.5 c 128,-1,8
 929 -7 929 -7 908 -7 c 0,9,10
 899 -7 899 -7 851 26.5 c 128,-1,11
 803 60 803 60 778 79 c 0,12,13
 758 96 758 96 758 113 c 0,0,1
1308 113 m 0,14,15
 1308 144 1308 144 1359 245.5 c 128,-1,16
 1410 347 1410 347 1426 355 c 0,17,18
 1457 369 1457 369 1514.5 307.5 c 128,-1,19
 1572 246 1572 246 1575 211 c 0,20,21
 1575 166 1575 166 1527 79.5 c 128,-1,22
 1479 -7 1479 -7 1458 -7 c 0,23,24
 1449 -7 1449 -7 1401 26.5 c 128,-1,25
 1353 60 1353 60 1328 79 c 0,26,27
 1308 96 1308 96 1308 113 c 0,14,15
211 113 m 0,28,29
 211 144 211 144 262 245.5 c 128,-1,30
 313 347 313 347 329 355 c 0,31,32
 360 369 360 369 417.5 307.5 c 128,-1,33
 475 246 475 246 478 211 c 0,34,35
 478 166 478 166 430 79.5 c 128,-1,36
 382 -7 382 -7 361 -7 c 0,37,38
 352 -7 352 -7 304 26.5 c 128,-1,39
 256 60 256 60 231 79 c 0,40,41
 211 96 211 96 211 113 c 0,28,29
EndSplineSet
EndChar

StartChar: endash
Encoding: 8211 8211 42
Width: 434
Flags: W
LayerCount: 2
Fore
SplineSet
434 154 m 1,0,-1
 0 154 l 1,1,-1
 0 234 l 1,2,-1
 434 234 l 1,3,-1
 434 154 l 1,0,-1
EndSplineSet
EndChar

StartChar: emdash
Encoding: 8212 8212 43
Width: 1862
Flags: W
LayerCount: 2
Fore
SplineSet
1866 572 m 1,0,-1
 -4 572 l 1,1,-1
 -4 732 l 1,2,-1
 1866 732 l 1,3,-1
 1866 572 l 1,0,-1
EndSplineSet
EndChar

StartChar: quotedblleft
Encoding: 8220 8220 44
Width: 613
Flags: W
LayerCount: 2
Fore
SplineSet
340 1073 m 0,0,1
 341 1138 341 1138 385 1201.5 c 128,-1,2
 429 1265 429 1265 483 1291 c 1,3,-1
 514 1233 l 1,4,5
 498 1224 498 1224 476 1200 c 128,-1,6
 454 1176 454 1176 444 1138 c 1,7,8
 510 1110 510 1110 507 1055 c 0,9,10
 507 1039 507 1039 500.5 1024.5 c 128,-1,11
 494 1010 494 1010 483.5 999 c 128,-1,12
 473 988 473 988 458 981.5 c 128,-1,13
 443 975 443 975 427 975 c 0,14,15
 406 975 406 975 390 983.5 c 128,-1,16
 374 992 374 992 363 1005.5 c 128,-1,17
 352 1019 352 1019 346 1037 c 128,-1,18
 340 1055 340 1055 340 1073 c 0,0,1
121 1073 m 0,19,20
 122 1138 122 1138 166 1201.5 c 128,-1,21
 210 1265 210 1265 265 1291 c 1,22,-1
 296 1233 l 1,23,24
 280 1224 280 1224 258 1200 c 128,-1,25
 236 1176 236 1176 226 1138 c 1,26,27
 292 1110 292 1110 289 1055 c 0,28,29
 289 1039 289 1039 282.5 1024.5 c 128,-1,30
 276 1010 276 1010 265 999 c 128,-1,31
 254 988 254 988 239 981.5 c 128,-1,32
 224 975 224 975 208 975 c 0,33,34
 188 975 188 975 171.5 983.5 c 128,-1,35
 155 992 155 992 144 1005.5 c 128,-1,36
 133 1019 133 1019 127 1037 c 128,-1,37
 121 1055 121 1055 121 1073 c 0,19,20
EndSplineSet
EndChar

StartChar: quotedblright
Encoding: 8221 8221 45
Width: 597
Flags: W
LayerCount: 2
Fore
SplineSet
295 1193 m 0,0,1
 294 1128 294 1128 250 1064.5 c 128,-1,2
 206 1001 206 1001 152 975 c 1,3,-1
 121 1033 l 1,4,5
 137 1042 137 1042 159 1066 c 128,-1,6
 181 1090 181 1090 191 1128 c 1,7,8
 125 1156 125 1156 128 1211 c 0,9,10
 128 1227 128 1227 134.5 1241.5 c 128,-1,11
 141 1256 141 1256 151.5 1267 c 128,-1,12
 162 1278 162 1278 176.5 1284.5 c 128,-1,13
 191 1291 191 1291 208 1291 c 0,14,15
 229 1291 229 1291 245 1282.5 c 128,-1,16
 261 1274 261 1274 272 1260.5 c 128,-1,17
 283 1247 283 1247 289 1229 c 128,-1,18
 295 1211 295 1211 295 1193 c 0,0,1
514 1193 m 0,19,20
 513 1128 513 1128 469 1064.5 c 128,-1,21
 425 1001 425 1001 370 975 c 1,22,-1
 339 1033 l 1,23,24
 355 1042 355 1042 377 1066 c 128,-1,25
 399 1090 399 1090 409 1128 c 1,26,27
 343 1156 343 1156 346 1211 c 0,28,29
 346 1227 346 1227 352.5 1241.5 c 128,-1,30
 359 1256 359 1256 370 1267 c 128,-1,31
 381 1278 381 1278 395.5 1284.5 c 128,-1,32
 410 1291 410 1291 427 1291 c 0,33,34
 447 1291 447 1291 463 1282.5 c 128,-1,35
 479 1274 479 1274 490.5 1260.5 c 128,-1,36
 502 1247 502 1247 508 1229 c 128,-1,37
 514 1211 514 1211 514 1193 c 0,19,20
EndSplineSet
EndChar

StartChar: divide
Encoding: 247 247 46
Width: 1093
Flags: W
LayerCount: 2
Fore
SplineSet
624 674 m 1,0,-1
 466 674 l 1,1,-1
 466 855 l 1,2,-1
 624 855 l 1,3,-1
 624 674 l 1,0,-1
933 383 m 1,4,-1
 157 383 l 1,5,-1
 157 489 l 1,6,-1
 933 489 l 1,7,-1
 933 383 l 1,4,-1
624 17 m 1,8,-1
 466 17 l 1,9,-1
 466 198 l 1,10,-1
 624 198 l 1,11,-1
 624 17 l 1,8,-1
EndSplineSet
EndChar

StartChar: lozenge
Encoding: 9674 9674 47
Width: 1118
Flags: W
LayerCount: 2
Fore
SplineSet
1003 699 m 1,0,-1
 560 197 l 1,1,-1
 117 699 l 1,2,-1
 560 1202 l 1,3,-1
 1003 699 l 1,0,-1
848 699 m 1,4,-1
 560 1036 l 1,5,-1
 271 699 l 1,6,-1
 560 364 l 1,7,-1
 848 699 l 1,4,-1
EndSplineSet
EndChar

StartChar: fraction
Encoding: 8260 8260 48
Width: 742
Flags: W
LayerCount: 2
Fore
SplineSet
740 1101 m 1,0,-1
 101 -82 l 1,1,-1
 -9 -82 l 1,2,-1
 629 1101 l 1,3,-1
 740 1101 l 1,0,-1
EndSplineSet
EndChar

StartChar: guilsinglleft
Encoding: 8249 8249 49
Width: 1117
Flags: W
LayerCount: 2
Fore
SplineSet
955 58 m 1,0,-1
 150 444 l 1,1,-1
 150 534 l 1,2,-1
 955 918 l 1,3,-1
 955 784 l 1,4,-1
 331 489 l 1,5,-1
 955 192 l 1,6,-1
 955 58 l 1,0,-1
EndSplineSet
EndChar

StartChar: daggerdbl
Encoding: 8225 8225 52
Width: 932
Flags: W
LayerCount: 2
Fore
SplineSet
349 -231 m 1,0,-1
 481 185 l 1,1,-1
 161 154 l 1,2,-1
 211 261 l 1,3,-1
 490 229 l 1,4,-1
 567 616 l 1,5,-1
 247 586 l 1,6,-1
 297 693 l 1,7,-1
 575 661 l 1,8,-1
 608 1066 l 1,9,-1
 758 1093 l 1,10,-1
 620 661 l 1,11,-1
 940 693 l 1,12,-1
 889 586 l 1,13,-1
 611 616 l 1,14,-1
 535 229 l 1,15,-1
 855 261 l 1,16,-1
 804 154 l 1,17,-1
 525 185 l 1,18,-1
 499 -213 l 1,19,-1
 349 -231 l 1,0,-1
EndSplineSet
EndChar

StartChar: middot.001
Encoding: 8729 8729 53
Width: 620
Flags: W
LayerCount: 2
Fore
SplineSet
429 516 m 1,0,-1
 190 516 l 1,1,-1
 190 789 l 1,2,-1
 429 789 l 1,3,-1
 429 516 l 1,0,-1
EndSplineSet
EndChar

StartChar: quotesinglbase
Encoding: 8218 8218 54
Width: 418
Flags: W
LayerCount: 2
Fore
SplineSet
103 128 m 1,0,-1
 247 231 l 1,1,-1
 353 90 l 1,2,3
 345 -56 345 -56 262.5 -134.5 c 128,-1,4
 180 -213 180 -213 36 -213 c 1,5,-1
 76 -168 l 1,6,7
 189 -158 189 -158 211 -18 c 1,8,-1
 103 128 l 1,0,-1
EndSplineSet
EndChar

StartChar: quotedblbase
Encoding: 8222 8222 55
Width: 684
Flags: W
LayerCount: 2
Fore
SplineSet
91 92 m 1,0,-1
 204 178 l 1,1,-1
 292 64 l 1,2,3
 270 -213 270 -213 31 -213 c 1,4,-1
 60 -168 l 1,5,6
 166 -148 166 -148 179 -16 c 1,7,-1
 91 92 l 1,0,-1
401 92 m 1,8,-1
 516 178 l 1,9,-1
 602 64 l 1,10,11
 581 -213 581 -213 341 -213 c 1,12,-1
 372 -168 l 1,13,14
 476 -148 476 -148 490 -16 c 1,15,-1
 401 92 l 1,8,-1
EndSplineSet
EndChar

StartChar: perthousand
Encoding: 8240 8240 56
Width: 1571
Flags: W
LayerCount: 2
Fore
SplineSet
385 533 m 0,0,1
 304 533 304 533 254.5 584.5 c 128,-1,2
 205 636 205 636 205 722 c 0,3,4
 205 865 205 865 286.5 965.5 c 128,-1,5
 368 1066 368 1066 483 1066 c 0,6,7
 567 1066 567 1066 617.5 1014.5 c 128,-1,8
 668 963 668 963 668 877 c 0,9,10
 668 733 668 733 585.5 633 c 128,-1,11
 503 533 503 533 385 533 c 0,0,1
311 715 m 0,12,13
 311 578 311 578 398 578 c 0,14,15
 463 578 463 578 517 671.5 c 128,-1,16
 571 765 571 765 571 881 c 0,17,18
 571 1022 571 1022 483 1022 c 0,19,20
 416 1022 416 1022 363.5 928 c 128,-1,21
 311 834 311 834 311 715 c 0,12,13
850 0 m 0,22,23
 769 0 769 0 719.5 51.5 c 128,-1,24
 670 103 670 103 670 189 c 0,25,26
 670 331 670 331 751 432 c 128,-1,27
 832 533 832 533 947 533 c 0,28,29
 1031 533 1031 533 1081.5 481.5 c 128,-1,30
 1132 430 1132 430 1132 344 c 0,31,32
 1132 200 1132 200 1049.5 100 c 128,-1,33
 967 0 967 0 850 0 c 0,22,23
776 182 m 0,34,35
 776 44 776 44 862 44 c 0,36,37
 929 44 929 44 982 138 c 128,-1,38
 1035 232 1035 232 1035 348 c 0,39,40
 1035 490 1035 490 948 490 c 0,41,42
 880 490 880 490 828 395.5 c 128,-1,43
 776 301 776 301 776 182 c 0,34,35
131 -27 m 1,44,-1
 1111 1093 l 1,45,-1
 1206 1093 l 1,46,-1
 225 -27 l 1,47,-1
 131 -27 l 1,44,-1
1376 0 m 0,48,49
 1294 0 1294 0 1244.5 51.5 c 128,-1,50
 1195 103 1195 103 1195 189 c 0,51,52
 1195 331 1195 331 1276.5 432 c 128,-1,53
 1358 533 1358 533 1473 533 c 0,54,55
 1557 533 1557 533 1607.5 481.5 c 128,-1,56
 1658 430 1658 430 1658 344 c 0,57,58
 1658 200 1658 200 1575.5 100 c 128,-1,59
 1493 0 1493 0 1376 0 c 0,48,49
1301 183 m 0,60,61
 1301 44 1301 44 1389 44 c 0,62,63
 1453 44 1453 44 1507 138 c 128,-1,64
 1561 232 1561 232 1561 347 c 0,65,66
 1561 490 1561 490 1473 490 c 0,67,68
 1406 490 1406 490 1353.5 395.5 c 128,-1,69
 1301 301 1301 301 1301 183 c 0,60,61
EndSplineSet
EndChar

StartChar: multiply
Encoding: 215 215 60
Width: 801
Flags: W
LayerCount: 2
Fore
SplineSet
592 807 m 1,0,-1
 672 727 l 1,1,-1
 477 532 l 1,2,-1
 672 337 l 1,3,-1
 592 257 l 1,4,-1
 397 452 l 1,5,-1
 201 256 l 1,6,-1
 121 336 l 1,7,-1
 317 533 l 1,8,-1
 121 728 l 1,9,-1
 201 808 l 1,10,-1
 396 612 l 1,11,-1
 592 807 l 1,0,-1
EndSplineSet
EndChar

StartChar: macron
Encoding: 175 175 61
Width: 1118
Flags: W
LayerCount: 2
Fore
SplineSet
1134 1259 m 1,0,-1
 -16 1259 l 1,1,-1
 -16 1389 l 1,2,-1
 1134 1389 l 1,3,-1
 1134 1259 l 1,0,-1
EndSplineSet
EndChar

StartChar: periodcentered
Encoding: 183 183 62
Width: 724
Flags: W
LayerCount: 2
Fore
SplineSet
482 832 m 1,0,-1
 243 832 l 1,1,-1
 243 1117 l 1,2,-1
 482 1117 l 1,3,-1
 482 832 l 1,0,-1
EndSplineSet
EndChar

StartChar: H22073
Encoding: 9633 9633 63
Width: 1237
Flags: W
LayerCount: 2
Fore
SplineSet
146 944 m 1,0,-1
 1090 944 l 1,1,-1
 1090 0 l 1,2,-1
 146 0 l 1,3,-1
 146 944 l 1,0,-1
222 868 m 1,4,-1
 222 76 l 1,5,-1
 1014 76 l 1,6,-1
 1014 868 l 1,7,-1
 222 868 l 1,4,-1
EndSplineSet
EndChar

StartChar: H18543
Encoding: 9642 9642 64
Width: 1089
Flags: W
LayerCount: 2
Fore
SplineSet
886 894 m 1,0,-1
 886 200 l 1,1,-1
 192 200 l 1,2,-1
 192 894 l 1,3,-1
 886 894 l 1,0,-1
EndSplineSet
EndChar

StartChar: H18551
Encoding: 9643 9643 65
Width: 1089
Flags: W
LayerCount: 2
Fore
SplineSet
888 930 m 1,0,-1
 888 235 l 1,1,-1
 193 235 l 1,2,-1
 193 930 l 1,3,-1
 888 930 l 1,0,-1
774 816 m 1,4,-1
 307 816 l 1,5,-1
 307 349 l 1,6,-1
 774 349 l 1,7,-1
 774 816 l 1,4,-1
EndSplineSet
EndChar

StartChar: H18533
Encoding: 9679 9679 66
Width: 1339
Flags: W
LayerCount: 2
Fore
SplineSet
204 775 m 0,0,1
 204 976 204 976 345 1117 c 128,-1,2
 486 1258 486 1258 685 1258 c 0,3,4
 885 1258 885 1258 1026 1117 c 128,-1,5
 1167 976 1167 976 1167 775 c 0,6,7
 1167 577 1167 577 1026 436 c 128,-1,8
 885 295 885 295 685 295 c 0,9,10
 486 295 486 295 345 436 c 128,-1,11
 204 577 204 577 204 775 c 0,0,1
EndSplineSet
EndChar

StartChar: openbullet
Encoding: 9702 9702 67
Width: 1089
Flags: W
LayerCount: 2
Fore
SplineSet
544 1392 m 0,0,1
 700 1392 700 1392 810.5 1281.5 c 128,-1,2
 921 1171 921 1171 921 1015 c 256,3,4
 921 859 921 859 810.5 749 c 128,-1,5
 700 639 700 639 544 639 c 256,6,7
 388 639 388 639 278 749 c 128,-1,8
 168 859 168 859 168 1015 c 256,9,10
 168 1171 168 1171 277.5 1281.5 c 128,-1,11
 387 1392 387 1392 544 1392 c 0,0,1
544 1278 m 0,12,13
 435 1278 435 1278 358.5 1200.5 c 128,-1,14
 282 1123 282 1123 282 1015 c 0,15,16
 282 906 282 906 359 829.5 c 128,-1,17
 436 753 436 753 544 753 c 256,18,19
 652 753 652 753 729.5 829.5 c 128,-1,20
 807 906 807 906 807 1015 c 0,21,22
 807 1123 807 1123 730.5 1200.5 c 128,-1,23
 654 1278 654 1278 544 1278 c 0,12,13
EndSplineSet
EndChar

StartChar: uniFFFC
Encoding: 65532 65532 68
Width: 2048
Flags: W
LayerCount: 2
Fore
SplineSet
2048 1150 m 1,0,-1
 1948 1150 l 1,1,-1
 1948 1373 l 1,2,-1
 1725 1373 l 1,3,-1
 1725 1473 l 1,4,-1
 2048 1473 l 1,5,-1
 2048 1150 l 1,0,-1
1473 1373 m 1,6,-1
 1150 1373 l 1,7,-1
 1150 1473 l 1,8,-1
 1473 1473 l 1,9,-1
 1473 1373 l 1,6,-1
2048 575 m 1,10,-1
 1948 575 l 1,11,-1
 1948 898 l 1,12,-1
 2048 898 l 1,13,-1
 2048 575 l 1,10,-1
1782 611 m 2,14,15
 1782 370 1782 370 1571 370 c 0,16,17
 1485 370 1485 370 1433 415 c 1,18,-1
 1506 494 l 1,19,20
 1531 468 1531 468 1571 468 c 0,21,22
 1666 468 1666 468 1666 606 c 2,23,-1
 1666 1090 l 1,24,-1
 1782 1090 l 1,25,-1
 1782 611 l 2,14,15
898 1373 m 1,26,-1
 575 1373 l 1,27,-1
 575 1473 l 1,28,-1
 898 1473 l 1,29,-1
 898 1373 l 1,26,-1
2048 0 m 1,30,-1
 1725 0 l 1,31,-1
 1725 100 l 1,32,-1
 1948 100 l 1,33,-1
 1948 323 l 1,34,-1
 2048 323 l 1,35,-1
 2048 0 l 1,30,-1
1423 591 m 0,36,37
 1423 382 1423 382 1149 382 c 2,38,-1
 909 382 l 1,39,-1
 909 1090 l 1,40,-1
 1144 1090 l 2,41,42
 1393 1090 1393 1090 1393 904 c 0,43,44
 1393 813 1393 813 1304 759 c 1,45,46
 1423 713 1423 713 1423 591 c 0,36,37
323 1373 m 1,47,-1
 100 1373 l 1,48,-1
 100 1150 l 1,49,-1
 0 1150 l 1,50,-1
 0 1473 l 1,51,-1
 323 1473 l 1,52,-1
 323 1373 l 1,47,-1
1473 0 m 1,53,-1
 1150 0 l 1,54,-1
 1150 100 l 1,55,-1
 1473 100 l 1,56,-1
 1473 0 l 1,53,-1
854 735 m 0,57,58
 854 562 854 562 772 466 c 128,-1,59
 690 370 690 370 537 370 c 256,60,61
 384 370 384 370 303.5 466 c 128,-1,62
 223 562 223 562 223 735 c 0,63,64
 223 910 223 910 303.5 1006 c 128,-1,65
 384 1102 384 1102 537 1102 c 256,66,67
 690 1102 690 1102 772 1006 c 128,-1,68
 854 910 854 910 854 735 c 0,57,58
100 575 m 1,69,-1
 0 575 l 1,70,-1
 0 898 l 1,71,-1
 100 898 l 1,72,-1
 100 575 l 1,69,-1
898 0 m 1,73,-1
 575 0 l 1,74,-1
 575 100 l 1,75,-1
 898 100 l 1,76,-1
 898 0 l 1,73,-1
323 0 m 1,77,-1
 0 0 l 1,78,-1
 0 323 l 1,79,-1
 100 323 l 1,80,-1
 100 100 l 1,81,-1
 323 100 l 1,82,-1
 323 0 l 1,77,-1
1277 893 m 0,83,84
 1277 992 1277 992 1114 992 c 2,85,-1
 1025 992 l 1,86,-1
 1025 798 l 1,87,-1
 1126 798 l 2,88,89
 1277 798 1277 798 1277 893 c 0,83,84
1307 591 m 0,90,91
 1307 700 1307 700 1136 700 c 2,92,-1
 1025 700 l 1,93,-1
 1025 480 l 1,94,-1
 1149 480 l 2,95,96
 1307 480 1307 480 1307 591 c 0,90,91
738 735 m 0,97,98
 738 1004 738 1004 537 1004 c 0,99,100
 339 1004 339 1004 339 735 c 0,101,102
 339 468 339 468 537 468 c 0,103,104
 738 468 738 468 738 735 c 0,97,98
EndSplineSet
EndChar

StartChar: zerowidthnonjoiner
Encoding: 8204 8204 88
Width: 0
GlyphClass: 2
Flags: W
LayerCount: 2
Fore
SplineSet
36 1289 m 1,0,-1
 36 -275 l 1,1,-1
 -36 -275 l 1,2,-1
 -36 1289 l 1,3,-1
 36 1289 l 1,0,-1
EndSplineSet
EndChar

StartChar: zerowidthjoiner
Encoding: 8205 8205 89
Width: 0
GlyphClass: 2
Flags: W
LayerCount: 2
Fore
SplineSet
36 -275 m 1,0,-1
 -36 -275 l 1,1,-1
 -36 1114 l 1,2,-1
 -170 978 l 1,3,-1
 -219 1027 l 1,4,-1
 -48 1196 l 1,5,-1
 -219 1364 l 1,6,-1
 -170 1413 l 1,7,-1
 0 1242 l 1,8,-1
 170 1413 l 1,9,-1
 219 1364 l 1,10,-1
 48 1196 l 1,11,-1
 219 1027 l 1,12,-1
 170 978 l 1,13,-1
 36 1114 l 1,14,-1
 36 -275 l 1,0,-1
EndSplineSet
EndChar

StartChar: lefttorightmark
Encoding: 8206 8206 90
Width: 0
GlyphClass: 2
Flags: W
LayerCount: 2
Fore
SplineSet
430 1198 m 1,0,-1
 213 984 l 1,1,-1
 164 1033 l 1,2,-1
 301 1163 l 1,3,-1
 35 1163 l 1,4,-1
 35 -275 l 1,5,-1
 -36 -275 l 1,6,-1
 -36 1234 l 1,7,-1
 301 1234 l 1,8,-1
 164 1364 l 1,9,-1
 213 1413 l 1,10,-1
 430 1198 l 1,0,-1
EndSplineSet
EndChar

StartChar: righttoleftmark
Encoding: 8207 8207 91
Width: 0
GlyphClass: 2
Flags: W
LayerCount: 2
Fore
SplineSet
35 -275 m 1,0,-1
 -36 -275 l 1,1,-1
 -36 1163 l 1,2,-1
 -302 1163 l 1,3,-1
 -165 1033 l 1,4,-1
 -214 984 l 1,5,-1
 -431 1198 l 1,6,-1
 -214 1413 l 1,7,-1
 -165 1364 l 1,8,-1
 -302 1234 l 1,9,-1
 35 1234 l 1,10,-1
 35 -275 l 1,0,-1
EndSplineSet
EndChar

StartChar: afii57388.001
Encoding: 1644 1644 92
Width: 353
GlyphClass: 2
Flags: W
LayerCount: 2
Fore
SplineSet
210 654 m 0,0,1
 200 627 200 627 185 603 c 0,2,3
 180 597 180 597 173.5 593.5 c 128,-1,4
 167 590 167 590 162 590 c 128,-1,5
 157 590 157 590 154.5 593 c 128,-1,6
 152 596 152 596 155 603 c 0,7,8
 187 660 187 660 202.5 713.5 c 128,-1,9
 218 767 218 767 218 800 c 1,10,11
 194 806 194 806 179 816 c 128,-1,12
 164 826 164 826 155 837.5 c 128,-1,13
 146 849 146 849 143 859 c 128,-1,14
 140 869 140 869 140 874 c 0,15,16
 140 890 140 890 145.5 907 c 128,-1,17
 151 924 151 924 160.5 937.5 c 128,-1,18
 170 951 170 951 183.5 959.5 c 128,-1,19
 197 968 197 968 213 968 c 0,20,21
 272 968 272 968 272 874 c 0,22,23
 272 859 272 859 268 835 c 128,-1,24
 264 811 264 811 256 781.5 c 128,-1,25
 248 752 248 752 236.5 719.5 c 128,-1,26
 225 687 225 687 210 654 c 0,0,1
EndSplineSet
EndChar

StartChar: afii57409
Encoding: 1569 1569 93
Width: 664
GlyphClass: 2
Flags: W
AnchorPoint: "Anchor-3" 450 -285 basechar 0
AnchorPoint: "Anchor-2" 465 555 basechar 0
LayerCount: 2
Fore
SplineSet
261 2 m 1,0,-1
 276 86 l 1,1,2
 288 96 288 96 314.5 112.5 c 128,-1,3
 341 129 341 129 352 135 c 1,4,5
 311 153 311 153 288.5 177.5 c 128,-1,6
 266 202 266 202 263 231 c 0,7,8
 263 235 263 235 262 243 c 128,-1,9
 261 251 261 251 261 258 c 0,10,11
 261 305 261 305 285 333.5 c 128,-1,12
 309 362 309 362 345 362 c 0,13,14
 358 362 358 362 367 360 c 128,-1,15
 376 358 376 358 386 354 c 0,16,17
 413 344 413 344 434.5 338.5 c 128,-1,18
 456 333 456 333 470 333 c 0,19,20
 487 333 487 333 496 341.5 c 128,-1,21
 505 350 505 350 507 364 c 128,-1,22
 509 378 509 378 513 386.5 c 128,-1,23
 517 395 517 395 519 393 c 0,24,25
 524 391 524 391 524 362 c 1,26,27
 519 327 519 327 513 319 c 0,28,29
 505 301 505 301 487 294 c 0,30,31
 472 290 472 290 461 287 c 128,-1,32
 450 284 450 284 438 284 c 0,33,34
 421 284 421 284 387.5 290 c 128,-1,35
 354 296 354 296 339 301 c 0,36,37
 325 303 325 303 317 291.5 c 128,-1,38
 309 280 309 280 309 266 c 0,39,40
 309 255 309 255 313 251 c 0,41,42
 337 221 337 221 375 201.5 c 128,-1,43
 413 182 413 182 452 178 c 1,44,-1
 603 264 l 1,45,-1
 571 172 l 1,46,47
 536 157 536 157 485 133 c 0,48,49
 423 104 423 104 370 71 c 0,50,51
 302 34 302 34 261 2 c 1,0,-1
EndSplineSet
EndChar

StartChar: afii57440
Encoding: 1600 1600 94
Width: 332
GlyphClass: 2
Flags: W
LayerCount: 2
Fore
SplineSet
389 0 m 1,0,-1
 106 0 l 2,1,2
 12 0 12 0 -39 51 c 0,3,4
 -84 98 -84 98 -113 199 c 1,5,-1
 389 199 l 1,6,-1
 389 0 l 1,0,-1
EndSplineSet
EndChar

StartChar: afii57453
Encoding: 1613 1613 95
Width: 0
GlyphClass: 4
Flags: W
AnchorPoint: "Anchor-3" 0 0 mark 0
AnchorPoint: "Anchor-1" 0 0 mark 0
LayerCount: 2
Fore
SplineSet
171 280 m 1,0,1
 171 203 171 203 134 182 c 2,2,-1
 -182 0 l 1,3,4
 -182 53 -182 53 -169 71 c 0,5,6
 -157 90 -157 90 -112 116 c 2,7,-1
 171 280 l 1,0,1
171 130 m 1,8,9
 171 53 171 53 134 32 c 2,10,-1
 -182 -150 l 1,11,12
 -182 -97 -182 -97 -169 -79 c 0,13,14
 -157 -60 -157 -60 -112 -34 c 2,15,-1
 171 130 l 1,8,9
EndSplineSet
EndChar

StartChar: afii57381
Encoding: 1642 1642 96
Width: 891
GlyphClass: 2
Flags: W
LayerCount: 2
Fore
SplineSet
612 246 m 0,0,1
 664 246 664 246 702 211 c 0,2,3
 739 176 739 176 739 127 c 0,4,5
 739 -4 739 -4 612 -8 c 0,6,7
 557 -10 557 -10 524.5 32 c 128,-1,8
 492 74 492 74 492 117 c 0,9,10
 492 174 492 174 525.5 210 c 128,-1,11
 559 246 559 246 612 246 c 0,0,1
272 1231 m 0,12,13
 334 1231 334 1231 366.5 1199 c 128,-1,14
 399 1167 399 1167 399 1114 c 0,15,16
 399 983 399 983 272 977 c 0,17,18
 219 977 219 977 186.5 1014 c 128,-1,19
 154 1051 154 1051 154 1104 c 0,20,21
 154 1155 154 1155 186.5 1193 c 128,-1,22
 219 1231 219 1231 272 1231 c 0,12,13
643 1262 m 1,23,-1
 743 1257 l 1,24,-1
 256 -8 l 1,25,-1
 160 -4 l 1,26,-1
 643 1262 l 1,23,-1
EndSplineSet
EndChar

StartChar: afii57461
Encoding: 1643 1643 97
Width: 536
GlyphClass: 2
Flags: W
LayerCount: 2
Fore
SplineSet
518 521 m 1,0,-1
 115 -382 l 1,1,-1
 19 -352 l 1,2,-1
 425 551 l 1,3,-1
 518 521 l 1,0,-1
EndSplineSet
EndChar

StartChar: afii63167
Encoding: 1645 1645 98
Width: 1118
GlyphClass: 2
Flags: W
LayerCount: 2
Fore
SplineSet
694 729 m 1,0,-1
 1057 733 l 1,1,-1
 1057 610 l 1,2,-1
 702 612 l 1,3,-1
 971 352 l 1,4,-1
 883 264 l 1,5,-1
 616 539 l 1,6,-1
 623 168 l 1,7,-1
 498 168 l 1,8,-1
 502 539 l 1,9,-1
 236 264 l 1,10,-1
 147 352 l 1,11,-1
 422 614 l 1,12,-1
 63 610 l 1,13,-1
 63 733 l 1,14,-1
 420 729 l 1,15,-1
 170 975 l 1,16,-1
 258 1065 l 1,17,-1
 502 817 l 1,18,-1
 498 1176 l 1,19,-1
 623 1176 l 1,20,-1
 616 813 l 1,21,-1
 860 1065 l 1,22,-1
 948 975 l 1,23,-1
 694 729 l 1,0,-1
EndSplineSet
EndChar

StartChar: afii57459
Encoding: 65543 -1 99
Width: 672
GlyphClass: 2
Flags: W
LayerCount: 2
Fore
SplineSet
377 0 m 2,0,-1
 106 0 l 2,1,2
 12 0 12 0 -39 51 c 0,3,4
 -84 98 -84 98 -113 199 c 1,5,-1
 236 199 l 2,6,7
 258 199 258 199 296 198 c 128,-1,8
 334 197 334 197 352 197 c 0,9,10
 401 197 401 197 440 204 c 128,-1,11
 479 211 479 211 514 229 c 1,12,13
 510 244 510 244 466 265.5 c 128,-1,14
 422 287 422 287 354.5 299 c 128,-1,15
 287 311 287 311 254 326.5 c 128,-1,16
 221 342 221 342 189.5 366.5 c 128,-1,17
 158 391 158 391 148.5 406.5 c 128,-1,18
 139 422 139 422 139 440 c 0,19,20
 139 444 139 444 141 493.5 c 128,-1,21
 143 543 143 543 164 612 c 0,22,23
 182 674 182 674 207 711 c 1,24,25
 231 760 231 760 274 791 c 0,26,27
 315 819 315 819 346 819 c 0,28,29
 479 819 479 819 567 653 c 0,30,31
 651 500 651 500 651 287 c 0,32,33
 651 156 651 156 576.5 78 c 128,-1,34
 502 0 502 0 377 0 c 2,0,-1
532 401 m 1,35,36
 516 489 516 489 456.5 562 c 128,-1,37
 397 635 397 635 330 651 c 1,38,39
 295 651 295 651 264 616.5 c 128,-1,40
 233 582 233 582 229 543 c 0,41,42
 229 514 229 514 270 494.5 c 128,-1,43
 311 475 311 475 384 456.5 c 128,-1,44
 457 438 457 438 483.5 429 c 128,-1,45
 510 420 510 420 532 401 c 1,35,36
EndSplineSet
EndChar

StartChar: afii57543
Encoding: 65544 -1 100
Width: 639
Flags: W
LayerCount: 2
Fore
SplineSet
158 199 m 2,0,1
 268 199 268 199 309 201 c 0,2,3
 385 209 385 209 428 229 c 1,4,5
 416 283 416 283 393 328 c 0,6,7
 377 367 377 367 340 422 c 0,8,9
 297 481 297 481 258 543 c 1,10,-1
 352 723 l 1,11,12
 416 659 416 659 457 563 c 0,13,14
 479 514 479 514 514 406 c 1,15,16
 526 352 526 352 532.5 301 c 128,-1,17
 539 250 539 250 539 205 c 0,18,19
 539 147 539 147 529.5 109.5 c 128,-1,20
 520 72 520 72 506 59 c 1,21,22
 401 25 401 25 360 16 c 0,23,24
 293 0 293 0 229 0 c 2,25,-1
 106 0 l 2,26,27
 12 0 12 0 -39 51 c 0,28,29
 -84 98 -84 98 -113 199 c 1,30,-1
 158 199 l 2,0,1
EndSplineSet
EndChar

StartChar: afii57534
Encoding: 1749 1749 101
Width: 674
GlyphClass: 2
Flags: W
LayerCount: 2
Fore
SplineSet
274 0 m 1,0,1
 205 8 205 8 169 61.5 c 128,-1,2
 133 115 133 115 133 211 c 0,3,4
 133 223 133 223 133 235.5 c 128,-1,5
 133 248 133 248 135 266 c 0,6,7
 145 328 145 328 176 383 c 0,8,9
 205 430 205 430 254 483 c 1,10,11
 211 518 211 518 209 520 c 0,12,13
 184 541 184 541 172 557 c 1,14,-1
 127 588 l 1,15,-1
 156 770 l 1,16,17
 250 705 250 705 346 639 c 1,18,-1
 283 647 l 1,19,-1
 354 588 l 1,20,21
 416 655 416 655 479 725 c 0,22,23
 549 801 549 801 592 848 c 0,24,25
 651 911 651 911 684 942 c 1,26,-1
 653 760 l 1,27,28
 625 735 625 735 592 700 c 0,29,30
 569 676 569 676 524 623 c 0,31,32
 467 555 467 555 440 520 c 1,33,34
 537 444 537 444 565 406 c 0,35,36
 598 358 598 358 598 291 c 2,37,-1
 598 279 l 2,38,39
 598 258 598 258 594 233 c 0,40,41
 590 184 590 184 551 137 c 0,42,43
 516 96 516 96 457 59 c 0,44,45
 403 25 403 25 365.5 12.5 c 128,-1,46
 328 0 328 0 274 0 c 1,0,1
492 279 m 1,47,48
 477 307 477 307 403 358 c 0,49,50
 348 395 348 395 324 414 c 1,51,52
 268 348 268 348 244.5 310 c 128,-1,53
 221 272 221 272 221 248 c 0,54,55
 221 223 221 223 243.5 201.5 c 128,-1,56
 266 180 266 180 291 180 c 0,57,58
 344 180 344 180 397 201 c 0,59,60
 459 229 459 229 492 279 c 1,47,48
EndSplineSet
EndChar

StartChar: afii64240
Encoding: 65546 -1 103
Width: 551
Flags: W
LayerCount: 2
Fore
SplineSet
217 262 m 1,0,-1
 385 151 l 1,1,-1
 287 2 l 1,2,-1
 114 116 l 1,3,-1
 217 262 l 1,0,-1
EndSplineSet
EndChar

StartChar: afii64241
Encoding: 65547 -1 104
Width: 756
Flags: W
LayerCount: 2
Fore
SplineSet
220 265 m 1,0,-1
 345 183 l 1,1,-1
 404 269 l 1,2,-1
 564 142 l 1,3,-1
 461 2 l 1,4,-1
 338 82 l 1,5,-1
 279 5 l 1,6,-1
 111 127 l 1,7,-1
 220 265 l 1,0,-1
EndSplineSet
EndChar

StartChar: afii63954
Encoding: 65548 -1 105
Width: 753
Flags: W
LayerCount: 2
Fore
SplineSet
351 246 m 1,0,-1
 197 349 l 1,1,-1
 294 492 l 1,2,-1
 453 388 l 1,3,-1
 351 246 l 1,0,-1
236 269 m 1,4,-1
 359 187 l 1,5,-1
 419 273 l 1,6,-1
 578 148 l 1,7,-1
 474 5 l 1,8,-1
 357 87 l 1,9,-1
 294 5 l 1,10,-1
 126 130 l 1,11,-1
 236 269 l 1,4,-1
EndSplineSet
EndChar

StartChar: afii57382
Encoding: 65549 -1 106
Width: 722
Flags: W
LayerCount: 2
Fore
SplineSet
453 -527 m 1,0,-1
 283 -419 l 1,1,-1
 382 -269 l 1,2,-1
 554 -382 l 1,3,-1
 453 -527 l 1,0,-1
605 -128 m 1,4,-1
 496 -269 l 1,5,-1
 349 -173 l 1,6,-1
 294 -261 l 1,7,-1
 146 -165 l 1,8,-1
 247 -5 l 1,9,-1
 394 -103 l 1,10,-1
 455 -19 l 1,11,-1
 605 -128 l 1,4,-1
EndSplineSet
EndChar

StartChar: afii64242
Encoding: 65550 -1 107
Width: 582
Flags: W
LayerCount: 2
Fore
SplineSet
158 199 m 2,0,1
 268 199 268 199 309 201 c 0,2,3
 385 209 385 209 428 229 c 1,4,5
 416 283 416 283 393 328 c 0,6,7
 377 367 377 367 340 422 c 0,8,9
 297 481 297 481 258 543 c 1,10,-1
 352 723 l 1,11,12
 416 659 416 659 457 563 c 0,13,14
 479 514 479 514 514 406 c 1,15,16
 526 352 526 352 532.5 301 c 128,-1,17
 539 250 539 250 539 205 c 0,18,19
 539 147 539 147 529.5 109.5 c 128,-1,20
 520 72 520 72 506 59 c 1,21,22
 401 25 401 25 360 16 c 0,23,24
 293 0 293 0 229 0 c 2,25,-1
 106 0 l 2,26,27
 12 0 12 0 -39 51 c 0,28,29
 -84 98 -84 98 -113 199 c 1,30,-1
 158 199 l 2,0,1
EndSplineSet
EndChar

StartChar: afii57373
Encoding: 65551 -1 112
Width: 0
Flags: W
LayerCount: 2
Fore
SplineSet
90 1429 m 1,0,-1
 105 1513 l 1,1,2
 117 1523 117 1523 143.5 1539.5 c 128,-1,3
 170 1556 170 1556 181 1562 c 1,4,5
 140 1580 140 1580 117.5 1604.5 c 128,-1,6
 95 1629 95 1629 92 1658 c 0,7,8
 92 1662 92 1662 91 1670 c 128,-1,9
 90 1678 90 1678 90 1685 c 0,10,11
 90 1732 90 1732 114 1760.5 c 128,-1,12
 138 1789 138 1789 174 1789 c 0,13,14
 187 1789 187 1789 196 1787 c 128,-1,15
 205 1785 205 1785 215 1781 c 0,16,17
 242 1771 242 1771 263.5 1765.5 c 128,-1,18
 285 1760 285 1760 299 1760 c 0,19,20
 316 1760 316 1760 325 1768.5 c 128,-1,21
 334 1777 334 1777 336 1791 c 128,-1,22
 338 1805 338 1805 342 1813.5 c 128,-1,23
 346 1822 346 1822 348 1820 c 0,24,25
 353 1818 353 1818 353 1789 c 1,26,27
 348 1754 348 1754 342 1746 c 0,28,29
 334 1728 334 1728 316 1721 c 0,30,31
 301 1717 301 1717 290 1714 c 128,-1,32
 279 1711 279 1711 267 1711 c 0,33,34
 250 1711 250 1711 216.5 1717 c 128,-1,35
 183 1723 183 1723 168 1728 c 0,36,37
 154 1730 154 1730 146 1718.5 c 128,-1,38
 138 1707 138 1707 138 1693 c 0,39,40
 138 1682 138 1682 142 1678 c 0,41,42
 166 1648 166 1648 204 1628.5 c 128,-1,43
 242 1609 242 1609 281 1605 c 1,44,-1
 432 1691 l 1,45,-1
 400 1599 l 1,46,47
 365 1584 365 1584 314 1560 c 0,48,49
 252 1531 252 1531 199 1498 c 0,50,51
 131 1461 131 1461 90 1429 c 1,0,-1
EndSplineSet
EndChar

StartChar: afii57374
Encoding: 65552 -1 113
Width: 741
GlyphClass: 2
Flags: W
LayerCount: 2
Fore
SplineSet
377 0 m 2,0,-1
 106 0 l 2,1,2
 12 0 12 0 -39 51 c 0,3,4
 -84 98 -84 98 -113 199 c 1,5,-1
 236 199 l 2,6,7
 258 199 258 199 296 198 c 128,-1,8
 334 197 334 197 352 197 c 0,9,10
 401 197 401 197 440 204 c 128,-1,11
 479 211 479 211 514 229 c 1,12,13
 510 244 510 244 466 265.5 c 128,-1,14
 422 287 422 287 354.5 299 c 128,-1,15
 287 311 287 311 254 326.5 c 128,-1,16
 221 342 221 342 189.5 366.5 c 128,-1,17
 158 391 158 391 148.5 406.5 c 128,-1,18
 139 422 139 422 139 440 c 0,19,20
 139 444 139 444 141 493.5 c 128,-1,21
 143 543 143 543 164 612 c 0,22,23
 182 674 182 674 207 711 c 1,24,25
 231 760 231 760 274 791 c 0,26,27
 315 819 315 819 346 819 c 0,28,29
 479 819 479 819 567 653 c 0,30,31
 651 500 651 500 651 287 c 0,32,33
 651 156 651 156 576.5 78 c 128,-1,34
 502 0 502 0 377 0 c 2,0,-1
532 401 m 1,35,36
 516 489 516 489 456.5 562 c 128,-1,37
 397 635 397 635 330 651 c 1,38,39
 295 651 295 651 264 616.5 c 128,-1,40
 233 582 233 582 229 543 c 0,41,42
 229 514 229 514 270 494.5 c 128,-1,43
 311 475 311 475 384 456.5 c 128,-1,44
 457 438 457 438 483.5 429 c 128,-1,45
 510 420 510 420 532 401 c 1,35,36
EndSplineSet
EndChar

StartChar: afii57375
Encoding: 1619 1619 114
Width: 868
GlyphClass: 2
Flags: W
LayerCount: 2
Fore
SplineSet
629 1728 m 0,0,1
 637 1740 637 1740 653.5 1746.5 c 128,-1,2
 670 1753 670 1753 670 1738.5 c 128,-1,3
 670 1724 670 1724 658 1705 c 0,4,5
 629 1646 629 1646 592 1611 c 1,6,7
 539 1570 539 1570 451 1566 c 128,-1,8
 363 1562 363 1562 275 1601 c 1,9,10
 272 1607 272 1607 252 1607 c 128,-1,11
 232 1607 232 1607 209 1598 c 128,-1,12
 186 1589 186 1589 168 1570 c 1,13,14
 168 1621 168 1621 191.5 1663 c 128,-1,15
 215 1705 215 1705 248 1710.5 c 128,-1,16
 281 1716 281 1716 301 1705 c 0,17,18
 354 1666 354 1666 424 1655 c 128,-1,19
 494 1644 494 1644 543 1665.5 c 128,-1,20
 592 1687 592 1687 629 1728 c 0,0,1
EndSplineSet
EndChar

StartChar: afii57391
Encoding: 59450 59450 115
Width: 1024
GlyphClass: 2
Flags: W
LayerCount: 2
Fore
SplineSet
1024 0 m 1,0,-1
 -70 0 l 1,1,-1
 -70 188 l 1,2,-1
 1024 188 l 1,3,-1
 1024 0 l 1,0,-1
EndSplineSet
EndChar

StartChar: afii57471
Encoding: 65553 -1 116
Width: 1280
Flags: W
LayerCount: 2
Fore
SplineSet
150 565 m 0,0,1
 113 479 113 479 113 406 c 0,2,3
 113 307 113 307 186.5 253 c 128,-1,4
 260 199 260 199 391 199 c 2,5,-1
 920 199 l 2,6,7
 1010 199 1010 199 1054 204 c 128,-1,8
 1098 209 1098 209 1118 217 c 1,9,10
 1094 303 1094 303 1055 381 c 0,11,12
 1006 477 1006 477 944 543 c 1,13,-1
 1040 733 l 1,14,15
 1079 692 1079 692 1116 623 c 0,16,17
 1159 537 1159 537 1196 414 c 1,18,19
 1225 299 1225 299 1225 207 c 0,20,21
 1225 94 1225 94 1192 61 c 1,22,23
 1120 27 1120 27 1047.5 13.5 c 128,-1,24
 975 0 975 0 887 0 c 2,25,-1
 332 0 l 2,26,27
 188 0 188 0 100 96 c 0,28,29
 20 188 20 188 20 330 c 0,30,31
 20 395 20 395 38.5 460.5 c 128,-1,32
 57 526 57 526 98 592 c 1,33,34
 127 627 127 627 145 627 c 0,35,36
 160 627 160 627 160 602 c 0,37,38
 160 592 160 592 158 585 c 128,-1,39
 156 578 156 578 150 565 c 0,0,1
EndSplineSet
EndChar

StartChar: afii52258
Encoding: 65554 -1 117
Width: 1380
GlyphClass: 2
Flags: W
LayerCount: 2
Fore
SplineSet
897 199 m 2,0,1
 920 199 920 199 956 197 c 2,2,-1
 1014 197 l 2,3,4
 1063 197 1063 197 1102 203 c 0,5,6
 1141 211 1141 211 1176 229 c 1,7,8
 1171 244 1171 244 1127 265.5 c 128,-1,9
 1083 287 1083 287 1015.5 299 c 128,-1,10
 948 311 948 311 915.5 326.5 c 128,-1,11
 883 342 883 342 851 366.5 c 128,-1,12
 819 391 819 391 809 406 c 0,13,14
 801 422 801 422 801 440 c 0,15,16
 801 444 801 444 803 494 c 0,17,18
 805 543 805 543 825 612 c 0,19,20
 844 674 844 674 868 711 c 1,21,22
 893 760 893 760 936 791 c 0,23,24
 977 819 977 819 1008 819 c 0,25,26
 1141 819 1141 819 1229 653 c 0,27,28
 1313 500 1313 500 1313 287 c 0,29,30
 1313 156 1313 156 1238 78 c 128,-1,31
 1163 0 1163 0 1038 0 c 2,32,-1
 332 0 l 2,33,34
 188 0 188 0 100 96 c 0,35,36
 20 188 20 188 20 330 c 0,37,38
 20 395 20 395 38.5 460.5 c 128,-1,39
 57 526 57 526 98 592 c 1,40,41
 127 627 127 627 145 627 c 0,42,43
 160 627 160 627 160 602 c 0,44,45
 160 592 160 592 158 585 c 128,-1,46
 156 578 156 578 150 565 c 0,47,48
 113 479 113 479 113 406 c 0,49,50
 113 307 113 307 186.5 253 c 128,-1,51
 260 199 260 199 391 199 c 2,52,-1
 897 199 l 2,0,1
1194 401 m 1,53,54
 1178 489 1178 489 1118 561 c 0,55,56
 1059 635 1059 635 991 651 c 1,57,58
 956 651 956 651 926 616 c 0,59,60
 895 582 895 582 891 543 c 0,61,62
 891 514 891 514 932 494.5 c 128,-1,63
 973 475 973 475 1045.5 456.5 c 128,-1,64
 1118 438 1118 438 1144.5 429 c 128,-1,65
 1171 420 1171 420 1194 401 c 1,53,54
EndSplineSet
EndChar

StartChar: afii62889
Encoding: 65555 -1 123
Width: 1126
Flags: W
LayerCount: 2
Fore
SplineSet
90 33 m 0,0,1
 90 -70 90 -70 182 -127 c 0,2,3
 266 -180 266 -180 397 -180 c 0,4,5
 471 -180 471 -180 544.5 -165 c 128,-1,6
 618 -150 618 -150 688 -125 c 0,7,8
 748 -102 748 -102 823 -61 c 0,9,10
 905 -20 905 -20 948 16 c 1,11,12
 924 33 924 33 859.5 51.5 c 128,-1,13
 795 70 795 70 760 76 c 0,14,15
 713 86 713 86 669 106.5 c 128,-1,16
 625 127 625 127 594 150 c 0,17,18
 575 164 575 164 566 194.5 c 128,-1,19
 557 225 557 225 557 250 c 0,20,21
 557 324 557 324 580 395 c 0,22,23
 594 446 594 446 623 496 c 0,24,25
 649 543 649 543 692 573 c 0,26,27
 729 600 729 600 762 600 c 0,28,29
 893 600 893 600 981 434 c 0,30,31
 1061 281 1061 281 1061 70 c 0,32,33
 1061 -35 1061 -35 1023 -89 c 128,-1,34
 985 -143 985 -143 864 -213 c 1,35,36
 741 -291 741 -291 616 -332 c 0,37,38
 481 -377 481 -377 360 -377 c 0,39,40
 180 -377 180 -377 96 -297 c 0,41,42
 16 -221 16 -221 16 -61 c 0,43,44
 16 8 16 8 39 123 c 0,45,46
 63 254 63 254 98 317 c 0,47,48
 109 340 109 340 124 353.5 c 128,-1,49
 139 367 139 367 150 367 c 0,50,51
 162 367 162 367 162 344 c 0,52,53
 162 340 162 340 160 329.5 c 128,-1,54
 158 319 158 319 158 315 c 0,55,56
 125 233 125 233 107.5 155.5 c 128,-1,57
 90 78 90 78 90 33 c 0,0,1
948 201 m 1,58,59
 932 274 932 274 872 344 c 0,60,61
 811 418 811 418 745 432 c 1,62,63
 711 432 711 432 676 401 c 0,64,65
 647 371 647 371 643 330 c 0,66,67
 643 305 643 305 684 289.5 c 128,-1,68
 725 274 725 274 785.5 262 c 128,-1,69
 846 250 846 250 890 233.5 c 128,-1,70
 934 217 934 217 948 201 c 1,58,59
EndSplineSet
EndChar

StartChar: afii62887
Encoding: 65556 -1 124
Width: 1231
Flags: W
LayerCount: 2
Fore
SplineSet
150 565 m 0,0,1
 113 479 113 479 113 406 c 0,2,3
 113 307 113 307 186.5 253 c 128,-1,4
 260 199 260 199 391 199 c 2,5,-1
 920 199 l 2,6,7
 1010 199 1010 199 1054 204 c 128,-1,8
 1098 209 1098 209 1118 217 c 1,9,10
 1094 303 1094 303 1055 381 c 0,11,12
 1006 477 1006 477 944 543 c 1,13,-1
 1040 733 l 1,14,15
 1079 692 1079 692 1116 623 c 0,16,17
 1159 537 1159 537 1196 414 c 1,18,19
 1225 299 1225 299 1225 207 c 0,20,21
 1225 94 1225 94 1192 61 c 1,22,23
 1120 27 1120 27 1047.5 13.5 c 128,-1,24
 975 0 975 0 887 0 c 2,25,-1
 332 0 l 2,26,27
 188 0 188 0 100 96 c 0,28,29
 20 188 20 188 20 330 c 0,30,31
 20 395 20 395 38.5 460.5 c 128,-1,32
 57 526 57 526 98 592 c 1,33,34
 127 627 127 627 145 627 c 0,35,36
 160 627 160 627 160 602 c 0,37,38
 160 592 160 592 158 585 c 128,-1,39
 156 578 156 578 150 565 c 0,0,1
EndSplineSet
EndChar

StartChar: afii62888
Encoding: 1697 1697 125
Width: 1337
GlyphClass: 2
Flags: W
LayerCount: 2
Fore
SplineSet
897 199 m 2,0,1
 920 199 920 199 956 197 c 2,2,-1
 1014 197 l 2,3,4
 1063 197 1063 197 1102 203 c 0,5,6
 1141 211 1141 211 1176 229 c 1,7,8
 1171 244 1171 244 1127 265.5 c 128,-1,9
 1083 287 1083 287 1015.5 299 c 128,-1,10
 948 311 948 311 915.5 326.5 c 128,-1,11
 883 342 883 342 851 366.5 c 128,-1,12
 819 391 819 391 809 406 c 0,13,14
 801 422 801 422 801 440 c 0,15,16
 801 444 801 444 803 494 c 0,17,18
 805 543 805 543 825 612 c 0,19,20
 844 674 844 674 868 711 c 1,21,22
 893 760 893 760 936 791 c 0,23,24
 977 819 977 819 1008 819 c 0,25,26
 1141 819 1141 819 1229 653 c 0,27,28
 1313 500 1313 500 1313 287 c 0,29,30
 1313 156 1313 156 1238 78 c 128,-1,31
 1163 0 1163 0 1038 0 c 2,32,-1
 332 0 l 2,33,34
 188 0 188 0 100 96 c 0,35,36
 20 188 20 188 20 330 c 0,37,38
 20 395 20 395 38.5 460.5 c 128,-1,39
 57 526 57 526 98 592 c 1,40,41
 127 627 127 627 145 627 c 0,42,43
 160 627 160 627 160 602 c 0,44,45
 160 592 160 592 158 585 c 128,-1,46
 156 578 156 578 150 565 c 0,47,48
 113 479 113 479 113 406 c 0,49,50
 113 307 113 307 186.5 253 c 128,-1,51
 260 199 260 199 391 199 c 2,52,-1
 897 199 l 2,0,1
1194 401 m 1,53,54
 1178 489 1178 489 1118 561 c 0,55,56
 1059 635 1059 635 991 651 c 1,57,58
 956 651 956 651 926 616 c 0,59,60
 895 582 895 582 891 543 c 0,61,62
 891 514 891 514 932 494.5 c 128,-1,63
 973 475 973 475 1045.5 456.5 c 128,-1,64
 1118 438 1118 438 1144.5 429 c 128,-1,65
 1171 420 1171 420 1194 401 c 1,53,54
EndSplineSet
Substitution2: "'medi' Medial Forms in Arabic lookup 3 subtable" afii57374
Substitution2: "'fina' Terminal Forms in Arabic lookup 2 subtable" afii52258
Substitution2: "'init' Initial Forms in Arabic lookup 1 subtable" afii57459
EndChar

StartChar: afii57567
Encoding: 1705 1705 132
Width: 1462
GlyphClass: 2
Flags: W
AnchorPoint: "Anchor-3" 630 -540 basechar 0
AnchorPoint: "Anchor-2" 435 1095 basechar 0
LayerCount: 2
Fore
SplineSet
176 565 m 1,0,1
 139 307 139 307 213 253 c 128,-1,2
 287 199 287 199 418 199 c 2,3,-1
 932 199 l 2,4,5
 1065 199 1065 199 1126 207 c 0,6,7
 1212 213 1212 213 1253 244 c 1,8,9
 1239 317 1239 317 1122 426 c 0,10,11
 1020 526 1020 526 887 610 c 0,12,13
 795 666 795 666 739 727 c 0,14,15
 690 782 690 782 690 811 c 0,16,17
 688 825 688 825 687 837.5 c 128,-1,18
 686 850 686 850 686 860 c 0,19,20
 686 944 686 944 727 1020 c 0,21,22
 762 1081 762 1081 815 1126 c 0,23,24
 924 1217 924 1217 1110 1315 c 0,25,26
 1282 1409 1282 1409 1421 1454 c 1,27,28
 1421 1372 1421 1372 1393 1305 c 0,29,30
 1364 1229 1364 1229 1313 1212 c 0,31,32
 1190 1165 1190 1165 1047 1081 c 0,33,34
 889 991 889 991 809 907 c 1,35,36
 834 881 834 881 868 850 c 0,37,38
 897 825 897 825 944 788 c 0,39,40
 971 770 971 770 1042 715 c 0,41,42
 1159 625 1159 625 1262.5 482.5 c 128,-1,43
 1366 340 1366 340 1366 266 c 0,44,45
 1366 184 1366 184 1358 149.5 c 128,-1,46
 1350 115 1350 115 1331 90 c 1,47,48
 1282 47 1282 47 1165 20 c 0,49,50
 1069 0 1069 0 983 0 c 2,51,-1
 358 0 l 2,52,53
 217 0 217 0 127 96 c 1,54,55
 47 188 47 188 47 330 c 0,56,57
 47 395 47 395 65.5 460.5 c 128,-1,58
 84 526 84 526 125 592 c 1,59,60
 156 627 156 627 172 627 c 0,61,62
 186 627 186 627 186 602 c 0,63,64
 186 592 186 592 184 585 c 128,-1,65
 182 578 182 578 176 565 c 1,0,1
EndSplineSet
Substitution2: "'medi' Medial Forms in Arabic lookup 3 subtable" afii52306
Substitution2: "'fina' Terminal Forms in Arabic lookup 2 subtable" afii62964
Substitution2: "'init' Initial Forms in Arabic lookup 1 subtable" afii52305
EndChar

StartChar: afii62964
Encoding: 64399 64399 133
Width: 1462
GlyphClass: 2
Flags: W
AnchorPoint: "Anchor-3" 600 -480 basechar 0
AnchorPoint: "Anchor-2" 420 1155 basechar 0
LayerCount: 2
Fore
SplineSet
176 565 m 1,0,1
 139 307 139 307 213 253 c 128,-1,2
 287 199 287 199 418 199 c 2,3,-1
 932 199 l 2,4,5
 1065 199 1065 199 1126 207 c 0,6,7
 1212 213 1212 213 1253 244 c 1,8,9
 1239 317 1239 317 1122 426 c 0,10,11
 1020 526 1020 526 887 610 c 0,12,13
 795 666 795 666 739 727 c 0,14,15
 690 782 690 782 690 811 c 0,16,17
 688 825 688 825 687 837.5 c 128,-1,18
 686 850 686 850 686 860 c 0,19,20
 686 944 686 944 727 1020 c 0,21,22
 762 1081 762 1081 815 1126 c 0,23,24
 924 1217 924 1217 1110 1315 c 0,25,26
 1282 1409 1282 1409 1421 1454 c 1,27,28
 1421 1372 1421 1372 1393 1305 c 0,29,30
 1364 1229 1364 1229 1313 1212 c 0,31,32
 1190 1165 1190 1165 1047 1081 c 0,33,34
 889 991 889 991 809 907 c 1,35,36
 834 881 834 881 868 850 c 0,37,38
 897 825 897 825 944 788 c 0,39,40
 971 770 971 770 1042 715 c 0,41,42
 1159 625 1159 625 1262.5 482.5 c 128,-1,43
 1366 340 1366 340 1366 266 c 0,44,45
 1366 184 1366 184 1358 149.5 c 128,-1,46
 1350 115 1350 115 1331 90 c 1,47,48
 1282 47 1282 47 1165 20 c 0,49,50
 1069 0 1069 0 983 0 c 2,51,-1
 358 0 l 2,52,53
 217 0 217 0 127 96 c 1,54,55
 47 188 47 188 47 330 c 0,56,57
 47 395 47 395 65.5 460.5 c 128,-1,58
 84 526 84 526 125 592 c 1,59,60
 156 627 156 627 172 627 c 0,61,62
 186 627 186 627 186 602 c 0,63,64
 186 592 186 592 184 585 c 128,-1,65
 182 578 182 578 176 565 c 1,0,1
EndSplineSet
EndChar

StartChar: afii52305
Encoding: 64400 64400 134
Width: 766
GlyphClass: 2
Flags: W
AnchorPoint: "Anchor-3" 210 -510 basechar 0
AnchorPoint: "Anchor-2" 165 1440 basechar 0
LayerCount: 2
Fore
SplineSet
340 0 m 2,0,-1
 106 0 l 2,1,2
 12 0 12 0 -39 51 c 0,3,4
 -84 98 -84 98 -113 199 c 1,5,-1
 287 199 l 2,6,7
 420 199 420 199 481 207 c 0,8,9
 567 213 567 213 610 244 c 1,10,11
 594 317 594 317 479 426 c 0,12,13
 377 526 377 526 244 610 c 0,14,15
 150 666 150 666 96 727 c 0,16,17
 47 782 47 782 47 811 c 0,18,19
 45 825 45 825 43 837.5 c 128,-1,20
 41 850 41 850 41 860 c 0,21,22
 41 944 41 944 84 1020 c 0,23,24
 119 1081 119 1081 172 1126 c 0,25,26
 281 1217 281 1217 467 1315 c 0,27,28
 639 1409 639 1409 776 1454 c 1,29,30
 776 1372 776 1372 750 1305 c 0,31,32
 721 1229 721 1229 668 1212 c 0,33,34
 545 1165 545 1165 403 1081 c 0,35,36
 246 991 246 991 164 907 c 1,37,38
 188 881 188 881 223 850 c 0,39,40
 254 825 254 825 299 788 c 1,41,42
 328 770 328 770 397 715 c 0,43,44
 516 625 516 625 619.5 482.5 c 128,-1,45
 723 340 723 340 723 266 c 0,46,47
 723 184 723 184 714 149.5 c 128,-1,48
 705 115 705 115 688 90 c 1,49,50
 639 47 639 47 520 20 c 0,51,52
 426 0 426 0 340 0 c 2,0,-1
EndSplineSet
EndChar

StartChar: afii52306
Encoding: 64401 64401 135
Width: 819
GlyphClass: 2
Flags: W
AnchorPoint: "Anchor-3" 195 -540 basechar 0
AnchorPoint: "Anchor-2" 150 1410 basechar 0
LayerCount: 2
Fore
SplineSet
340 0 m 2,0,-1
 106 0 l 2,1,2
 12 0 12 0 -39 51 c 0,3,4
 -84 98 -84 98 -113 199 c 1,5,-1
 287 199 l 2,6,7
 420 199 420 199 481 207 c 0,8,9
 567 213 567 213 610 244 c 1,10,11
 594 317 594 317 479 426 c 0,12,13
 377 526 377 526 244 610 c 0,14,15
 150 666 150 666 96 727 c 0,16,17
 47 782 47 782 47 811 c 0,18,19
 45 825 45 825 43 837.5 c 128,-1,20
 41 850 41 850 41 860 c 0,21,22
 41 944 41 944 84 1020 c 0,23,24
 119 1081 119 1081 172 1126 c 0,25,26
 281 1217 281 1217 467 1315 c 0,27,28
 639 1409 639 1409 776 1454 c 1,29,30
 776 1372 776 1372 750 1305 c 0,31,32
 721 1229 721 1229 668 1212 c 0,33,34
 545 1165 545 1165 403 1081 c 0,35,36
 246 991 246 991 164 907 c 1,37,38
 188 881 188 881 223 850 c 0,39,40
 254 825 254 825 299 788 c 1,41,42
 328 770 328 770 397 715 c 0,43,44
 516 625 516 625 619.5 482.5 c 128,-1,45
 723 340 723 340 723 266 c 0,46,47
 723 184 723 184 714 149.5 c 128,-1,48
 705 115 705 115 688 90 c 1,49,50
 639 47 639 47 520 20 c 0,51,52
 426 0 426 0 340 0 c 2,0,-1
EndSplineSet
EndChar

StartChar: afii57509
Encoding: 1711 1711 136
Width: 1462
GlyphClass: 2
Flags: W
AnchorPoint: "Anchor-3" 615 -525 basechar 0
AnchorPoint: "Anchor-2" 420 1125 basechar 0
LayerCount: 2
Fore
SplineSet
176 565 m 1,0,1
 139 307 139 307 213 253 c 128,-1,2
 287 199 287 199 418 199 c 2,3,-1
 932 199 l 2,4,5
 1065 199 1065 199 1126 207 c 0,6,7
 1212 213 1212 213 1253 244 c 1,8,9
 1239 317 1239 317 1122 426 c 0,10,11
 1020 526 1020 526 887 610 c 0,12,13
 795 666 795 666 739 727 c 0,14,15
 690 782 690 782 690 811 c 0,16,17
 688 825 688 825 687 837.5 c 128,-1,18
 686 850 686 850 686 860 c 0,19,20
 686 944 686 944 727 1020 c 0,21,22
 762 1081 762 1081 815 1126 c 0,23,24
 924 1217 924 1217 1110 1315 c 0,25,26
 1282 1409 1282 1409 1421 1454 c 1,27,28
 1421 1372 1421 1372 1393 1305 c 0,29,30
 1364 1229 1364 1229 1313 1212 c 0,31,32
 1190 1165 1190 1165 1047 1081 c 0,33,34
 889 991 889 991 809 907 c 1,35,36
 834 881 834 881 868 850 c 0,37,38
 897 825 897 825 944 788 c 0,39,40
 971 770 971 770 1042 715 c 0,41,42
 1159 625 1159 625 1262.5 482.5 c 128,-1,43
 1366 340 1366 340 1366 266 c 0,44,45
 1366 184 1366 184 1358 149.5 c 128,-1,46
 1350 115 1350 115 1331 90 c 1,47,48
 1282 47 1282 47 1165 20 c 0,49,50
 1069 0 1069 0 983 0 c 2,51,-1
 358 0 l 2,52,53
 217 0 217 0 127 96 c 1,54,55
 47 188 47 188 47 330 c 0,56,57
 47 395 47 395 65.5 460.5 c 128,-1,58
 84 526 84 526 125 592 c 1,59,60
 156 627 156 627 172 627 c 0,61,62
 186 627 186 627 186 602 c 0,63,64
 186 592 186 592 184 585 c 128,-1,65
 182 578 182 578 176 565 c 1,0,1
864 1417 m 1,66,67
 897 1436 897 1436 941 1461 c 128,-1,68
 985 1486 985 1486 1036 1512.5 c 128,-1,69
 1087 1539 1087 1539 1142.5 1566 c 128,-1,70
 1198 1593 1198 1593 1253 1617.5 c 128,-1,71
 1308 1642 1308 1642 1360.5 1662 c 128,-1,72
 1413 1682 1413 1682 1458 1694 c 0,73,74
 1467 1693 1467 1693 1458.5 1675 c 128,-1,75
 1450 1657 1450 1657 1431.5 1633 c 128,-1,76
 1413 1609 1413 1609 1388 1584 c 128,-1,77
 1363 1559 1363 1559 1341 1544 c 1,78,79
 1185 1488 1185 1488 1049.5 1418.5 c 128,-1,80
 914 1349 914 1349 784 1274 c 1,81,-1
 864 1417 l 1,66,67
EndSplineSet
Substitution2: "'medi' Medial Forms in Arabic lookup 3 subtable" afii62966
Substitution2: "'fina' Terminal Forms in Arabic lookup 2 subtable" afii62967
Substitution2: "'init' Initial Forms in Arabic lookup 1 subtable" afii62965
EndChar

StartChar: afii62967
Encoding: 64403 64403 137
Width: 1462
GlyphClass: 2
Flags: W
AnchorPoint: "Anchor-3" 600 -510 basechar 0
AnchorPoint: "Anchor-2" 360 1200 basechar 0
LayerCount: 2
Fore
SplineSet
176 565 m 1,0,1
 139 307 139 307 213 253 c 128,-1,2
 287 199 287 199 418 199 c 2,3,-1
 932 199 l 2,4,5
 1065 199 1065 199 1126 207 c 0,6,7
 1212 213 1212 213 1253 244 c 1,8,9
 1239 317 1239 317 1122 426 c 0,10,11
 1020 526 1020 526 887 610 c 0,12,13
 795 666 795 666 739 727 c 0,14,15
 690 782 690 782 690 811 c 0,16,17
 688 825 688 825 687 837.5 c 128,-1,18
 686 850 686 850 686 860 c 0,19,20
 686 944 686 944 727 1020 c 0,21,22
 762 1081 762 1081 815 1126 c 0,23,24
 924 1217 924 1217 1110 1315 c 0,25,26
 1282 1409 1282 1409 1421 1454 c 1,27,28
 1421 1372 1421 1372 1393 1305 c 0,29,30
 1364 1229 1364 1229 1313 1212 c 0,31,32
 1190 1165 1190 1165 1047 1081 c 0,33,34
 889 991 889 991 809 907 c 1,35,36
 834 881 834 881 868 850 c 0,37,38
 897 825 897 825 944 788 c 0,39,40
 971 770 971 770 1042 715 c 0,41,42
 1159 625 1159 625 1262.5 482.5 c 128,-1,43
 1366 340 1366 340 1366 266 c 0,44,45
 1366 184 1366 184 1358 149.5 c 128,-1,46
 1350 115 1350 115 1331 90 c 1,47,48
 1282 47 1282 47 1165 20 c 0,49,50
 1069 0 1069 0 983 0 c 2,51,-1
 358 0 l 2,52,53
 217 0 217 0 127 96 c 1,54,55
 47 188 47 188 47 330 c 0,56,57
 47 395 47 395 65.5 460.5 c 128,-1,58
 84 526 84 526 125 592 c 1,59,60
 156 627 156 627 172 627 c 0,61,62
 186 627 186 627 186 602 c 0,63,64
 186 592 186 592 184 585 c 128,-1,65
 182 578 182 578 176 565 c 1,0,1
840 1401 m 1,66,67
 873 1420 873 1420 917 1444.5 c 128,-1,68
 961 1469 961 1469 1012 1495 c 128,-1,69
 1063 1521 1063 1521 1118.5 1548 c 128,-1,70
 1174 1575 1174 1575 1229 1599 c 128,-1,71
 1284 1623 1284 1623 1336.5 1643 c 128,-1,72
 1389 1663 1389 1663 1434 1675 c 0,73,74
 1443 1674 1443 1674 1434 1656 c 128,-1,75
 1425 1638 1425 1638 1406.5 1614 c 128,-1,76
 1388 1590 1388 1590 1363.5 1565.5 c 128,-1,77
 1339 1541 1339 1541 1317 1526 c 1,78,79
 1239 1498 1239 1498 1166.5 1466.5 c 128,-1,80
 1094 1435 1094 1435 1025.5 1400.5 c 128,-1,81
 957 1366 957 1366 891 1329.5 c 128,-1,82
 825 1293 825 1293 760 1255 c 1,83,-1
 840 1401 l 1,66,67
EndSplineSet
EndChar

StartChar: afii62965
Encoding: 64404 64404 138
Width: 766
GlyphClass: 2
Flags: W
AnchorPoint: "Anchor-3" 240 -525 basechar 0
AnchorPoint: "Anchor-2" 165 1635 basechar 0
LayerCount: 2
Fore
SplineSet
340 0 m 2,0,-1
 106 0 l 2,1,2
 12 0 12 0 -39 51 c 0,3,4
 -84 98 -84 98 -113 199 c 1,5,-1
 287 199 l 2,6,7
 420 199 420 199 481 207 c 0,8,9
 567 213 567 213 610 244 c 1,10,11
 594 317 594 317 479 426 c 0,12,13
 377 526 377 526 244 610 c 0,14,15
 150 666 150 666 96 727 c 0,16,17
 47 782 47 782 47 811 c 0,18,19
 45 825 45 825 43 837.5 c 128,-1,20
 41 850 41 850 41 860 c 0,21,22
 41 944 41 944 84 1020 c 0,23,24
 119 1081 119 1081 172 1126 c 0,25,26
 281 1217 281 1217 467 1315 c 0,27,28
 639 1409 639 1409 776 1454 c 1,29,30
 776 1372 776 1372 750 1305 c 0,31,32
 721 1229 721 1229 668 1212 c 0,33,34
 545 1165 545 1165 403 1081 c 0,35,36
 246 991 246 991 164 907 c 1,37,38
 188 881 188 881 223 850 c 0,39,40
 254 825 254 825 299 788 c 1,41,42
 328 770 328 770 397 715 c 0,43,44
 516 625 516 625 619.5 482.5 c 128,-1,45
 723 340 723 340 723 266 c 0,46,47
 723 184 723 184 714 149.5 c 128,-1,48
 705 115 705 115 688 90 c 1,49,50
 639 47 639 47 520 20 c 0,51,52
 426 0 426 0 340 0 c 2,0,-1
209 1391 m 1,53,54
 242 1410 242 1410 286 1434 c 128,-1,55
 330 1458 330 1458 381 1485 c 128,-1,56
 432 1512 432 1512 487.5 1539 c 128,-1,57
 543 1566 543 1566 597.5 1590.5 c 128,-1,58
 652 1615 652 1615 704.5 1635 c 128,-1,59
 757 1655 757 1655 801 1667 c 1,60,61
 810 1665 810 1665 801.5 1647 c 128,-1,62
 793 1629 793 1629 774.5 1605 c 128,-1,63
 756 1581 756 1581 732 1556 c 128,-1,64
 708 1531 708 1531 686 1516 c 1,65,66
 529 1460 529 1460 394 1391 c 128,-1,67
 259 1322 259 1322 127 1245 c 1,68,-1
 209 1391 l 1,53,54
EndSplineSet
EndChar

StartChar: afii62966
Encoding: 64405 64405 139
Width: 819
GlyphClass: 2
Flags: W
AnchorPoint: "Anchor-3" 255 -525 basechar 0
AnchorPoint: "Anchor-2" 255 1605 basechar 0
LayerCount: 2
Fore
SplineSet
340 0 m 2,0,-1
 106 0 l 2,1,2
 12 0 12 0 -39 51 c 0,3,4
 -84 98 -84 98 -113 199 c 1,5,-1
 287 199 l 2,6,7
 420 199 420 199 481 207 c 0,8,9
 567 213 567 213 610 244 c 1,10,11
 594 317 594 317 479 426 c 0,12,13
 377 526 377 526 244 610 c 0,14,15
 150 666 150 666 96 727 c 0,16,17
 47 782 47 782 47 811 c 0,18,19
 45 825 45 825 43 837.5 c 128,-1,20
 41 850 41 850 41 860 c 0,21,22
 41 944 41 944 84 1020 c 0,23,24
 119 1081 119 1081 172 1126 c 0,25,26
 281 1217 281 1217 467 1315 c 0,27,28
 639 1409 639 1409 776 1454 c 1,29,30
 776 1372 776 1372 750 1305 c 0,31,32
 721 1229 721 1229 668 1212 c 0,33,34
 545 1165 545 1165 403 1081 c 0,35,36
 246 991 246 991 164 907 c 1,37,38
 188 881 188 881 223 850 c 0,39,40
 254 825 254 825 299 788 c 1,41,42
 328 770 328 770 397 715 c 0,43,44
 516 625 516 625 619.5 482.5 c 128,-1,45
 723 340 723 340 723 266 c 0,46,47
 723 184 723 184 714 149.5 c 128,-1,48
 705 115 705 115 688 90 c 1,49,50
 639 47 639 47 520 20 c 0,51,52
 426 0 426 0 340 0 c 2,0,-1
209 1391 m 1,53,54
 242 1410 242 1410 286 1434 c 128,-1,55
 330 1458 330 1458 381 1485 c 128,-1,56
 432 1512 432 1512 487.5 1539 c 128,-1,57
 543 1566 543 1566 597.5 1590.5 c 128,-1,58
 652 1615 652 1615 704.5 1635 c 128,-1,59
 757 1655 757 1655 801 1667 c 1,60,61
 810 1665 810 1665 801.5 1647 c 128,-1,62
 793 1629 793 1629 774.5 1605 c 128,-1,63
 756 1581 756 1581 732 1556 c 128,-1,64
 708 1531 708 1531 686 1516 c 1,65,66
 529 1460 529 1460 394 1391 c 128,-1,67
 259 1322 259 1322 127 1245 c 1,68,-1
 209 1391 l 1,53,54
EndSplineSet
EndChar

StartChar: afii57555
Encoding: 1740 1740 140
Width: 1178
GlyphClass: 2
Flags: W
AnchorPoint: "Anchor-3" 495 -960 basechar 0
AnchorPoint: "Anchor-2" 465 555 basechar 0
LayerCount: 2
Fore
SplineSet
745 -100 m 0,0,1
 676 -86 676 -86 650.5 -62.5 c 128,-1,2
 625 -39 625 -39 625 0 c 0,3,4
 625 21 625 21 631 49 c 1,5,6
 680 160 680 160 762 256 c 0,7,8
 831 340 831 340 887 371 c 0,9,10
 926 391 926 391 959.5 402.5 c 128,-1,11
 993 414 993 414 1024 414 c 0,12,13
 1071 414 1071 414 1106 381 c 0,14,15
 1155 334 1155 334 1155 289 c 0,16,17
 1153 268 1153 268 1149 249.5 c 128,-1,18
 1145 231 1145 231 1133 199 c 0,19,20
 1110 148 1110 148 1090 148 c 0,21,22
 1079 148 1079 148 1070 163 c 128,-1,23
 1061 178 1061 178 1055 202.5 c 128,-1,24
 1049 227 1049 227 1029.5 241.5 c 128,-1,25
 1010 256 1010 256 979 256 c 2,26,-1
 967 256 l 2,27,28
 924 256 924 256 864 217 c 0,29,30
 791 166 791 166 745 80 c 1,31,32
 782 55 782 55 840 39 c 0,33,34
 887 27 887 27 958 21 c 0,35,36
 999 18 999 18 1032 8 c 128,-1,37
 1065 -2 1065 -2 1073 -12 c 0,38,39
 1090 -31 1090 -31 1097 -59.5 c 128,-1,40
 1104 -88 1104 -88 1104 -121 c 0,41,42
 1104 -176 1104 -176 1084.5 -228.5 c 128,-1,43
 1065 -281 1065 -281 1032 -305 c 0,44,45
 852 -412 852 -412 700 -469 c 0,46,47
 565 -518 565 -518 455 -530 c 0,48,49
 438 -532 438 -532 416.5 -532 c 128,-1,50
 395 -532 395 -532 379 -532 c 0,51,52
 287 -532 287 -532 222.5 -513 c 128,-1,53
 158 -494 158 -494 98 -448 c 0,54,55
 57 -420 57 -420 34.5 -356.5 c 128,-1,56
 12 -293 12 -293 12 -207 c 0,57,58
 12 -117 12 -117 35.5 -23.5 c 128,-1,59
 59 70 59 70 106 160 c 0,60,61
 121 184 121 184 133 195.5 c 128,-1,62
 145 207 145 207 158 207 c 0,63,64
 176 207 176 207 176 170 c 0,65,66
 176 156 176 156 170 133 c 1,67,68
 135 59 135 59 119 2 c 0,69,70
 106 -43 106 -43 106 -78 c 0,71,72
 106 -92 106 -92 107.5 -106.5 c 128,-1,73
 109 -121 109 -121 111 -129 c 0,74,75
 111 -252 111 -252 176 -309 c 0,76,77
 242 -367 242 -367 365 -367 c 0,78,79
 393 -367 393 -367 428 -362.5 c 128,-1,80
 463 -358 463 -358 477 -356 c 0,81,82
 582 -338 582 -338 690 -299 c 0,83,84
 778 -268 778 -268 868 -223 c 0,85,86
 934 -186 934 -186 973 -160 c 1,87,88
 936 -141 936 -141 889 -129 c 0,89,90
 872 -125 872 -125 745 -100 c 0,0,1
EndSplineSet
Substitution2: "'medi' Medial Forms in Arabic lookup 3 subtable" afii62832
Substitution2: "'fina' Terminal Forms in Arabic lookup 2 subtable" afii52364
Substitution2: "'init' Initial Forms in Arabic lookup 1 subtable" uniFBFE
EndChar

StartChar: afii52364
Encoding: 64509 64509 141
Width: 1178
GlyphClass: 2
Flags: W
AnchorPoint: "Anchor-3" 450 -1005 basechar 0
AnchorPoint: "Anchor-2" 405 615 basechar 0
LayerCount: 2
Fore
SplineSet
745 -98 m 0,0,1
 676 -84 676 -84 650.5 -60.5 c 128,-1,2
 625 -37 625 -37 625 2 c 0,3,4
 625 23 625 23 631 51 c 1,5,6
 680 162 680 162 762 258 c 0,7,8
 831 342 831 342 887 373 c 0,9,10
 926 393 926 393 959.5 404.5 c 128,-1,11
 993 416 993 416 1024 416 c 0,12,13
 1071 416 1071 416 1106 383 c 0,14,15
 1155 336 1155 336 1155 291 c 0,16,17
 1153 270 1153 270 1149 251.5 c 128,-1,18
 1145 233 1145 233 1133 201 c 0,19,20
 1110 150 1110 150 1090 150 c 0,21,22
 1079 150 1079 150 1070 165 c 128,-1,23
 1061 180 1061 180 1055 204.5 c 128,-1,24
 1049 229 1049 229 1029.5 243.5 c 128,-1,25
 1010 258 1010 258 979 258 c 2,26,-1
 967 258 l 2,27,28
 924 258 924 258 864 219 c 0,29,30
 791 168 791 168 745 82 c 1,31,32
 782 57 782 57 840 41 c 0,33,34
 887 29 887 29 958 23 c 0,35,36
 999 20 999 20 1032 10 c 128,-1,37
 1065 0 1065 0 1073 -10 c 0,38,39
 1090 -29 1090 -29 1097 -57.5 c 128,-1,40
 1104 -86 1104 -86 1104 -119 c 0,41,42
 1104 -174 1104 -174 1084.5 -226.5 c 128,-1,43
 1065 -279 1065 -279 1032 -303 c 0,44,45
 852 -410 852 -410 700 -467 c 0,46,47
 565 -516 565 -516 455 -528 c 0,48,49
 438 -530 438 -530 416.5 -530 c 128,-1,50
 395 -530 395 -530 379 -530 c 0,51,52
 287 -530 287 -530 222.5 -511 c 128,-1,53
 158 -492 158 -492 98 -446 c 0,54,55
 57 -418 57 -418 34.5 -354.5 c 128,-1,56
 12 -291 12 -291 12 -205 c 0,57,58
 12 -115 12 -115 35.5 -21.5 c 128,-1,59
 59 72 59 72 106 162 c 0,60,61
 121 186 121 186 133 197.5 c 128,-1,62
 145 209 145 209 158 209 c 0,63,64
 176 209 176 209 176 172 c 0,65,66
 176 158 176 158 170 135 c 1,67,68
 135 61 135 61 119 4 c 0,69,70
 106 -41 106 -41 106 -76 c 0,71,72
 106 -90 106 -90 107.5 -104.5 c 128,-1,73
 109 -119 109 -119 111 -127 c 0,74,75
 111 -250 111 -250 176 -307 c 0,76,77
 242 -365 242 -365 365 -365 c 0,78,79
 393 -365 393 -365 428 -360.5 c 128,-1,80
 463 -356 463 -356 477 -354 c 0,81,82
 582 -336 582 -336 690 -297 c 0,83,84
 778 -266 778 -266 868 -221 c 0,85,86
 934 -184 934 -184 973 -158 c 1,87,88
 936 -139 936 -139 889 -127 c 0,89,90
 872 -123 872 -123 745 -98 c 0,0,1
EndSplineSet
EndChar

StartChar: afii62945
Encoding: 65557 -1 147
Width: 1565
GlyphClass: 3
Flags: W
LayerCount: 2
Fore
SplineSet
512 537 m 1,0,1
 471 481 471 481 427 444.5 c 128,-1,2
 383 408 383 408 333 389.5 c 128,-1,3
 283 371 283 371 217 324 c 0,4,5
 145 270 145 270 137 236 c 1,6,-1
 137 231 l 2,7,8
 137 211 137 211 182 205 c 0,9,10
 207 199 207 199 262 199 c 0,11,12
 344 199 344 199 405.5 218.5 c 128,-1,13
 467 238 467 238 526 287 c 1,14,-1
 512 537 l 1,0,1
1018 70 m 1,15,-1
 1006 51 l 2,16,17
 987 25 987 25 924.5 12.5 c 128,-1,18
 862 0 862 0 788 0 c 2,19,-1
 745 0 l 1,20,-1
 696 0 l 2,21,22
 614 0 614 0 573 39 c 0,23,24
 526 84 526 84 526 172 c 1,25,26
 453 106 453 106 354 61 c 0,27,28
 270 25 270 25 221 25 c 0,29,30
 137 25 137 25 102 63 c 0,31,32
 74 98 74 98 74 164 c 0,33,34
 74 291 74 291 88 336 c 0,35,36
 113 414 113 414 207 477 c 0,37,38
 244 504 244 504 344 555 c 0,39,40
 381 575 381 575 417 594.5 c 128,-1,41
 453 614 453 614 467 631 c 0,42,43
 477 647 477 647 477 659 c 2,44,-1
 469 696 l 1,45,-1
 532 858 l 1,46,47
 578 831 578 831 604 641 c 0,48,49
 627 489 627 489 627 340 c 0,50,51
 627 274 627 274 629 254 c 0,52,53
 637 199 637 199 680 199 c 2,54,-1
 764 199 l 2,55,56
 848 199 848 199 874 201 c 0,57,58
 920 209 920 209 956 229 c 1,59,60
 948 291 948 291 938 352 c 2,61,-1
 825 1280 l 1,62,-1
 956 1448 l 1,63,64
 967 1366 967 1366 1000.5 1237 c 128,-1,65
 1034 1108 1034 1108 1067 1044 c 0,66,67
 1069 1040 1069 1040 1070 1034 c 128,-1,68
 1071 1028 1071 1028 1071 1022 c 0,69,70
 1071 1010 1071 1010 1057 1010 c 0,71,72
 1049 1010 1049 1010 1036 1018 c 0,73,74
 1020 1028 1020 1028 1012 1032 c 0,75,76
 995 1040 995 1040 985 1047 c 1,77,78
 1053 352 1053 352 1061 262 c 0,79,80
 1067 221 1067 221 1067 199 c 1,81,-1
 1194 199 l 2,82,83
 1278 199 1278 199 1305 201 c 0,84,85
 1350 209 1350 209 1386 229 c 1,86,87
 1378 291 1378 291 1368 352 c 0,88,89
 1356 455 1356 455 1255 1280 c 1,90,-1
 1386 1448 l 1,91,92
 1397 1366 1397 1366 1430.5 1237 c 128,-1,93
 1464 1108 1464 1108 1497 1044 c 0,94,95
 1499 1040 1499 1040 1500 1034 c 128,-1,96
 1501 1028 1501 1028 1501 1022 c 0,97,98
 1501 1010 1501 1010 1487 1010 c 0,99,100
 1479 1010 1479 1010 1466 1018 c 0,101,102
 1450 1028 1450 1028 1442 1032 c 0,103,104
 1427 1040 1427 1040 1415 1047 c 1,105,106
 1415 979 1415 979 1483 381 c 1,107,108
 1483 236 1483 236 1477 180 c 0,109,110
 1466 88 1466 88 1436 51 c 0,111,112
 1417 25 1417 25 1354.5 12.5 c 128,-1,113
 1292 0 1292 0 1219 0 c 2,114,-1
 1176 0 l 2,115,116
 1122 0 1122 0 1083 18.5 c 128,-1,117
 1044 37 1044 37 1018 70 c 1,15,-1
EndSplineSet
EndChar

StartChar: afii64184
Encoding: 65010 65010 148
Width: 1565
GlyphClass: 3
Flags: W
AnchorPoint: "Anchor-1" 1380 -450 baselig 0
AnchorPoint: "Anchor-0" 1305 1560 baselig 0
AnchorPoint: "Anchor-1" 945 -420 baselig 1
AnchorPoint: "Anchor-0" 900 1320 baselig 1
AnchorPoint: "Anchor-1" 390 -420 baselig 2
AnchorPoint: "Anchor-0" 345 975 baselig 2
LayerCount: 2
Fore
SplineSet
512 537 m 1,0,1
 471 481 471 481 427 444.5 c 128,-1,2
 383 408 383 408 333 389.5 c 128,-1,3
 283 371 283 371 217 324 c 0,4,5
 145 270 145 270 137 236 c 1,6,-1
 137 231 l 2,7,8
 137 211 137 211 182 205 c 0,9,10
 207 199 207 199 262 199 c 0,11,12
 344 199 344 199 405.5 218.5 c 128,-1,13
 467 238 467 238 526 287 c 1,14,-1
 512 537 l 1,0,1
1018 70 m 1,15,-1
 1006 51 l 2,16,17
 987 25 987 25 924.5 12.5 c 128,-1,18
 862 0 862 0 788 0 c 2,19,-1
 745 0 l 1,20,-1
 696 0 l 2,21,22
 614 0 614 0 573 39 c 0,23,24
 526 84 526 84 526 172 c 1,25,26
 453 106 453 106 354 61 c 0,27,28
 270 25 270 25 221 25 c 0,29,30
 137 25 137 25 102 63 c 0,31,32
 74 98 74 98 74 164 c 0,33,34
 74 291 74 291 88 336 c 0,35,36
 113 414 113 414 207 477 c 0,37,38
 244 504 244 504 344 555 c 0,39,40
 381 575 381 575 417 594.5 c 128,-1,41
 453 614 453 614 467 631 c 0,42,43
 477 647 477 647 477 659 c 2,44,-1
 469 696 l 1,45,-1
 532 858 l 1,46,47
 578 831 578 831 604 641 c 0,48,49
 627 489 627 489 627 340 c 0,50,51
 627 274 627 274 629 254 c 0,52,53
 637 199 637 199 680 199 c 2,54,-1
 764 199 l 2,55,56
 848 199 848 199 874 201 c 0,57,58
 920 209 920 209 956 229 c 1,59,60
 948 291 948 291 938 352 c 2,61,-1
 841 1116 l 1,62,-1
 972 1284 l 1,63,64
 983 1202 983 1202 1016.5 1073 c 128,-1,65
 1050 944 1050 944 1083 880 c 0,66,67
 1085 876 1085 876 1086 870 c 128,-1,68
 1087 864 1087 864 1087 858 c 0,69,70
 1087 846 1087 846 1073 846 c 0,71,72
 1065 846 1065 846 1052 854 c 0,73,74
 1036 864 1036 864 1028 868 c 0,75,76
 1011 876 1011 876 1001 883 c 1,77,78
 1053 352 1053 352 1061 262 c 0,79,80
 1067 221 1067 221 1067 199 c 1,81,-1
 1194 199 l 2,82,83
 1278 199 1278 199 1305 201 c 0,84,85
 1350 209 1350 209 1386 229 c 1,86,87
 1378 291 1378 291 1368 352 c 0,88,89
 1356 455 1356 455 1255 1280 c 1,90,-1
 1386 1448 l 1,91,92
 1397 1366 1397 1366 1430.5 1237 c 128,-1,93
 1464 1108 1464 1108 1497 1044 c 0,94,95
 1499 1040 1499 1040 1500 1034 c 128,-1,96
 1501 1028 1501 1028 1501 1022 c 0,97,98
 1501 1010 1501 1010 1487 1010 c 0,99,100
 1479 1010 1479 1010 1466 1018 c 0,101,102
 1450 1028 1450 1028 1442 1032 c 0,103,104
 1427 1040 1427 1040 1415 1047 c 1,105,106
 1415 979 1415 979 1483 381 c 1,107,108
 1483 236 1483 236 1477 180 c 0,109,110
 1466 88 1466 88 1436 51 c 0,111,112
 1417 25 1417 25 1354.5 12.5 c 128,-1,113
 1292 0 1292 0 1219 0 c 2,114,-1
 1176 0 l 2,115,116
 1122 0 1122 0 1083 18.5 c 128,-1,117
 1044 37 1044 37 1018 70 c 1,15,-1
1080 1549 m 0,118,119
 1080 1469 1080 1469 1051.5 1421.5 c 128,-1,120
 1023 1374 1023 1374 972 1374 c 0,121,122
 947 1374 947 1374 936 1379.5 c 128,-1,123
 925 1385 925 1385 919.5 1387 c 128,-1,124
 914 1389 914 1389 904 1397 c 1,125,126
 898 1360 898 1360 864 1332.5 c 128,-1,127
 830 1305 830 1305 798 1305 c 0,128,129
 761 1305 761 1305 736.5 1337.5 c 128,-1,130
 712 1370 712 1370 712 1420 c 0,131,132
 712 1434 712 1434 714 1449.5 c 128,-1,133
 716 1465 716 1465 724 1487 c 0,134,135
 726 1495 726 1495 729 1507.5 c 128,-1,136
 732 1520 732 1520 732 1524 c 2,137,-1
 757 1530 l 1,138,139
 757 1469 757 1469 767 1441 c 128,-1,140
 777 1413 777 1413 800 1413 c 0,141,142
 830 1413 830 1413 855 1452 c 1,143,144
 875 1493 875 1493 892 1581 c 1,145,-1
 910 1587 l 1,146,147
 916 1559 916 1559 924.5 1539.5 c 128,-1,148
 933 1520 933 1520 939 1510 c 0,149,150
 951 1487 951 1487 972 1487 c 0,151,152
 1043 1487 1043 1487 1043 1641 c 1,153,-1
 1064 1649 l 1,154,-1
 1076 1596 l 2,155,156
 1080 1573 1080 1573 1080 1549 c 0,118,119
830 1905 m 1,157,-1
 908 2007 l 1,158,-1
 920 1724 l 1,159,-1
 861 1632 l 1,160,-1
 830 1905 l 1,157,-1
EndSplineSet
Ligature2: "'rlig' Required Ligatures in Arabic lookup 5 subtable" afii62817 afii62818 uniFC63 afii62828
Ligature2: "'rlig' Required Ligatures in Arabic lookup 5 subtable" afii62817 afii62818 afii57457 uni0670 afii62828
EndChar

StartChar: afii57415.001
Encoding: 1575 1575 162
Width: 358
GlyphClass: 2
Flags: W
AnchorPoint: "Anchor-3" 210 -360 basechar 0
AnchorPoint: "Anchor-2" 180 1545 basechar 0
LayerCount: 2
Fore
SplineSet
209 1454 m 1,0,1
 223 1391 223 1391 246.5 1324 c 128,-1,2
 270 1257 270 1257 309 1159 c 0,3,4
 324 1128 324 1128 328 1120 c 0,5,6
 332 1104 332 1104 332 1081 c 0,7,8
 332 1057 332 1057 317 1057 c 0,9,10
 305 1059 305 1059 283.5 1081.5 c 128,-1,11
 262 1104 262 1104 244 1130 c 1,12,13
 258 981 258 981 269.5 697.5 c 128,-1,14
 281 414 281 414 282 355.5 c 128,-1,15
 283 297 283 297 281 244 c 0,16,17
 281 213 281 213 271.5 178 c 128,-1,18
 262 143 262 143 252 108.5 c 128,-1,19
 242 74 242 74 226.5 51.5 c 128,-1,20
 211 29 211 29 195 14 c 1,21,22
 184 14 184 14 182 23.5 c 128,-1,23
 180 33 180 33 180 53 c 0,24,25
 182 84 182 84 182 133 c 0,26,27
 182 242 182 242 159.5 623 c 128,-1,28
 137 1004 137 1004 100 1255 c 1,29,30
 90 1276 90 1276 88 1288 c 1,31,-1
 209 1454 l 1,0,1
EndSplineSet
Substitution2: "'fina' Terminal Forms in Arabic lookup 2 subtable" afii62760
EndChar

StartChar: afii62760.001
Encoding: 65558 -1 163
Width: 360
GlyphClass: 2
Flags: W
LayerCount: 2
Fore
SplineSet
459 0 m 1,0,-1
 184 0 l 1,1,2
 184 188 184 188 176 409.5 c 128,-1,3
 168 631 168 631 145 856 c 0,4,5
 123 1114 123 1114 88 1280 c 1,6,-1
 205 1454 l 1,7,8
 270 1155 270 1155 277.5 701.5 c 128,-1,9
 285 248 285 248 285 199 c 1,10,-1
 459 199 l 1,11,-1
 459 0 l 1,0,-1
EndSplineSet
EndChar

StartChar: afii57421
Encoding: 1581 1581 182
Width: 1010
GlyphClass: 2
Flags: W
AnchorPoint: "Anchor-3" 420 -1020 basechar 0
AnchorPoint: "Anchor-2" 345 915 basechar 0
LayerCount: 2
Fore
SplineSet
895 139 m 1,0,1
 819 160 819 160 753.5 167 c 128,-1,2
 688 174 688 174 633 174 c 0,3,4
 590 174 590 174 550 169 c 128,-1,5
 510 164 510 164 479 160 c 0,6,7
 322 119 322 119 229 2 c 0,8,9
 150 -98 150 -98 150 -195 c 0,10,11
 150 -322 150 -322 287 -410 c 0,12,13
 430 -502 430 -502 702 -541 c 0,14,15
 760 -547 760 -547 782.5 -555 c 128,-1,16
 805 -563 805 -563 799 -571 c 1,17,18
 797 -582 797 -582 762 -590 c 128,-1,19
 727 -598 727 -598 680 -598 c 0,20,21
 446 -598 446 -598 342 -584 c 0,22,23
 215 -569 215 -569 148.5 -518 c 128,-1,24
 82 -467 82 -467 55 -358 c 0,25,26
 41 -293 41 -293 41 -233 c 0,27,28
 41 -145 41 -145 68 -66 c 0,29,30
 98 10 98 10 143 76 c 1,31,32
 223 170 223 170 309 229 c 0,33,34
 393 283 393 283 508 315 c 1,35,36
 492 330 492 330 473 348 c 0,37,38
 424 395 424 395 401 412 c 0,39,40
 338 461 338 461 273.5 479.5 c 128,-1,41
 209 498 209 498 167 480.5 c 128,-1,42
 125 463 125 463 123 432 c 0,43,44
 121 423 121 423 115.5 420.5 c 128,-1,45
 110 418 110 418 102 432 c 0,46,47
 84 485 84 485 109.5 539.5 c 128,-1,48
 135 594 135 594 186.5 621.5 c 128,-1,49
 238 649 238 649 297 641 c 1,50,51
 340 641 340 641 436 588 c 0,52,53
 502 547 502 547 578 485 c 0,54,55
 590 477 590 477 676 412 c 0,56,57
 731 371 731 371 808 346.5 c 128,-1,58
 885 322 885 322 969 309 c 1,59,60
 965 299 965 299 936 233 c 1,61,62
 915 172 915 172 895 139 c 1,0,1
EndSplineSet
Substitution2: "'medi' Medial Forms in Arabic lookup 3 subtable" afii62775
Substitution2: "'fina' Terminal Forms in Arabic lookup 2 subtable" afii62776
Substitution2: "'init' Initial Forms in Arabic lookup 1 subtable" afii62774
EndChar

StartChar: afii62776
Encoding: 65186 65186 183
Width: 1020
GlyphClass: 2
Flags: W
AnchorPoint: "Anchor-3" 420 -990 basechar 0
AnchorPoint: "Anchor-2" 390 870 basechar 0
LayerCount: 2
Fore
SplineSet
1079 0 m 1,0,1
 973 0 973 0 922 49 c 0,2,3
 887 84 887 84 872 143 c 1,4,5
 811 160 811 160 758 166 c 0,6,7
 690 174 690 174 633 174 c 0,8,9
 590 174 590 174 550 169 c 128,-1,10
 510 164 510 164 477 158 c 0,11,12
 322 117 322 117 225 0 c 0,13,14
 145 -100 145 -100 145 -199 c 0,15,16
 145 -328 145 -328 283 -418 c 0,17,18
 428 -512 428 -512 702 -549 c 0,19,20
 762 -557 762 -557 785.5 -564 c 128,-1,21
 809 -571 809 -571 803 -582 c 0,22,23
 801 -590 801 -590 765 -599 c 128,-1,24
 729 -608 729 -608 680 -608 c 0,25,26
 446 -608 446 -608 340 -592 c 1,27,28
 211 -578 211 -578 144.5 -526.5 c 128,-1,29
 78 -475 78 -475 49 -365 c 0,30,31
 35 -299 35 -299 35 -242 c 0,32,33
 35 -150 35 -150 61 -70 c 1,34,35
 92 6 92 6 141 76 c 1,36,37
 219 170 219 170 307 227 c 0,38,39
 391 285 391 285 508 313 c 1,40,41
 492 330 492 330 469 350 c 0,42,43
 422 397 422 397 397 414 c 0,44,45
 338 463 338 463 271.5 481.5 c 128,-1,46
 205 500 205 500 162 481.5 c 128,-1,47
 119 463 119 463 117 436 c 0,48,49
 117 425 117 425 111.5 423 c 128,-1,50
 106 421 106 421 98 436 c 0,51,52
 80 485 80 485 105.5 541.5 c 128,-1,53
 131 598 131 598 182 626.5 c 128,-1,54
 233 655 233 655 293 647 c 0,55,56
 338 645 338 645 434 590 c 0,57,58
 502 551 502 551 578 485 c 1,59,-1
 578 487 l 1,60,61
 590 477 590 477 676 414 c 0,62,63
 733 373 733 373 810 347.5 c 128,-1,64
 887 322 887 322 975 307 c 1,65,66
 969 299 969 299 940 231 c 0,67,68
 934 213 934 213 930 199 c 1,69,-1
 1079 199 l 1,70,-1
 1079 0 l 1,0,1
EndSplineSet
EndChar

StartChar: afii62774
Encoding: 65187 65187 184
Width: 1120
GlyphClass: 2
Flags: W
AnchorPoint: "Anchor-3" 375 -435 basechar 0
AnchorPoint: "Anchor-2" 390 1035 basechar 0
LayerCount: 2
Fore
SplineSet
63 0 m 2,0,1
 2 0 2 0 -46 50 c 128,-1,2
 -94 100 -94 100 -123 199 c 1,3,-1
 115 199 l 2,4,5
 289 199 289 199 389 219 c 0,6,7
 512 244 512 244 649 315 c 1,8,9
 608 344 608 344 560 392 c 128,-1,10
 512 440 512 440 487 457 c 0,11,12
 424 508 424 508 357.5 526.5 c 128,-1,13
 291 545 291 545 249 527.5 c 128,-1,14
 207 510 207 510 205 481 c 0,15,16
 203 469 203 469 196.5 466.5 c 128,-1,17
 190 464 190 464 182 481 c 0,18,19
 166 528 166 528 191.5 585.5 c 128,-1,20
 217 643 217 643 268 672.5 c 128,-1,21
 319 702 319 702 381 694 c 1,22,23
 428 692 428 692 524.5 637 c 128,-1,24
 621 582 621 582 735 473 c 0,25,26
 801 412 801 412 903 371 c 0,27,28
 991 334 991 334 1114 309 c 1,29,30
 1083 248 1083 248 1069 219 c 0,31,32
 1034 150 1034 150 1016 125 c 1,33,34
 954 150 954 150 899 163 c 128,-1,35
 844 176 844 176 797 176 c 0,36,37
 760 176 760 176 727 171 c 128,-1,38
 694 166 694 166 664 150 c 0,39,40
 582 115 582 115 446 70 c 1,41,42
 332 27 332 27 270 8 c 0,43,44
 246 2 246 2 203 1 c 128,-1,45
 160 0 160 0 127 0 c 2,46,-1
 63 0 l 2,0,1
EndSplineSet
EndChar

StartChar: afii62775
Encoding: 65188 65188 185
Width: 1174
GlyphClass: 2
Flags: W
AnchorPoint: "Anchor-3" 390 -570 basechar 0
AnchorPoint: "Anchor-2" 450 945 basechar 0
LayerCount: 2
Fore
SplineSet
74 0 m 2,0,1
 12 2 12 2 -34 52 c 128,-1,2
 -80 102 -80 102 -109 199 c 1,3,-1
 125 199 l 2,4,5
 295 199 295 199 393 219 c 0,6,7
 512 244 512 244 645 313 c 1,8,9
 608 340 608 340 560 387 c 128,-1,10
 512 434 512 434 487 451 c 0,11,12
 428 500 428 500 361.5 518.5 c 128,-1,13
 295 537 295 537 254 519.5 c 128,-1,14
 213 502 213 502 211 473 c 0,15,16
 211 462 211 462 204.5 460 c 128,-1,17
 198 458 198 458 190 473 c 0,18,19
 174 520 174 520 198.5 575.5 c 128,-1,20
 223 631 223 631 274.5 660.5 c 128,-1,21
 326 690 326 690 385 684 c 0,22,23
 430 682 430 682 523 626.5 c 128,-1,24
 616 571 616 571 731 467 c 0,25,26
 795 406 795 406 893 367 c 0,27,28
 981 330 981 330 1098 305 c 1,29,30
 1071 250 1071 250 1055 219 c 0,31,32
 1049 207 1049 207 1042 199 c 1,33,-1
 1243 199 l 1,34,-1
 1243 0 l 1,35,-1
 1192 0 l 2,36,37
 1114 0 1114 0 1072 33 c 128,-1,38
 1030 66 1030 66 1001 127 c 1,39,40
 942 150 942 150 890 162 c 128,-1,41
 838 174 838 174 793 174 c 0,42,43
 756 174 756 174 724 169 c 128,-1,44
 692 164 692 164 657 150 c 0,45,46
 580 115 580 115 444 70 c 1,47,48
 338 29 338 29 272 10 c 0,49,50
 252 4 252 4 210 2 c 128,-1,51
 168 0 168 0 137 0 c 2,52,-1
 74 0 l 2,0,1
EndSplineSet
EndChar

StartChar: afii57423
Encoding: 1583 1583 190
Width: 898
GlyphClass: 2
Flags: W
AnchorPoint: "Anchor-3" 255 -465 basechar 0
AnchorPoint: "Anchor-2" 360 1080 basechar 0
LayerCount: 2
Fore
SplineSet
206 272 m 1,0,1
 218 209 218 209 255 183.5 c 128,-1,2
 292 158 292 158 374 158 c 0,3,4
 505 158 505 158 583 180 c 1,5,6
 667 209 667 209 732 229 c 1,7,8
 708 309 708 309 661 391 c 0,9,10
 618 467 618 467 542 563 c 1,11,-1
 534 543 l 1,12,13
 489 567 489 567 458 618 c 0,14,15
 431 664 431 664 423 702 c 1,16,17
 423 758 423 758 441.5 807 c 128,-1,18
 460 856 460 856 482 881 c 1,19,20
 554 819 554 819 630 709 c 0,21,22
 695 616 695 616 741 528 c 0,23,24
 792 426 792 426 816 346 c 0,25,26
 831 293 831 293 831 244 c 2,27,-1
 818 76 l 1,28,29
 788 39 788 39 607 2 c 0,30,31
 439 -33 439 -33 323 -33 c 0,32,33
 247 -33 247 -33 201 10 c 128,-1,34
 155 53 155 53 155 121 c 1,35,36
 165 221 165 221 173 243.5 c 128,-1,37
 181 266 181 266 206 272 c 1,0,1
EndSplineSet
Substitution2: "'fina' Terminal Forms in Arabic lookup 2 subtable" afii62780
PairPos2: "'kern' Horizontal Kerning in Arabic lookup 0 subtable" afii57415 dx=0 dy=0 dh=0 dv=0 dx=0 dy=0 dh=-50 dv=0
PairPos2: "'kern' Horizontal Kerning in Arabic lookup 0 subtable" uni0675 dx=0 dy=0 dh=0 dv=0 dx=0 dy=0 dh=-50 dv=0
PairPos2: "'kern' Horizontal Kerning in Arabic lookup 0 subtable" uni0672 dx=0 dy=0 dh=0 dv=0 dx=0 dy=0 dh=-50 dv=0
PairPos2: "'kern' Horizontal Kerning in Arabic lookup 0 subtable" afii57411 dx=0 dy=0 dh=0 dv=0 dx=0 dy=0 dh=-50 dv=0
EndChar

StartChar: afii62780
Encoding: 65194 65194 191
Width: 890
GlyphClass: 2
Flags: W
AnchorPoint: "Anchor-3" 345 -525 basechar 0
AnchorPoint: "Anchor-2" 375 1020 basechar 0
LayerCount: 2
Fore
SplineSet
218 272 m 1,0,1
 227 209 227 209 263.5 183.5 c 128,-1,2
 300 158 300 158 386 158 c 0,3,4
 513 158 513 158 591 180 c 1,5,6
 675 209 675 209 743 229 c 1,7,8
 720 309 720 309 671 391 c 0,9,10
 628 467 628 467 552 563 c 1,11,-1
 540 543 l 1,12,13
 497 567 497 567 464 618 c 0,14,15
 438 664 438 664 429 702 c 1,16,17
 429 754 429 754 452 809 c 0,18,19
 466 850 466 850 491 881 c 1,20,21
 563 815 563 815 640 709 c 0,22,23
 710 614 710 614 751 528 c 1,24,25
 806 426 806 426 825 346 c 0,26,27
 841 295 841 295 841 244 c 2,28,-1
 831 76 l 1,29,30
 796 37 796 37 614 2 c 0,31,32
 448 -33 448 -33 329 -33 c 0,33,34
 253 -33 253 -33 210 9 c 128,-1,35
 167 51 167 51 167 121 c 0,36,37
 167 213 167 213 182 246 c 0,38,39
 192 266 192 266 218 272 c 1,0,1
EndSplineSet
PairPos2: "'kern' Horizontal Kerning in Arabic lookup 0 subtable" afii57415 dx=0 dy=0 dh=0 dv=0 dx=0 dy=0 dh=-50 dv=0
PairPos2: "'kern' Horizontal Kerning in Arabic lookup 0 subtable" uni0675 dx=0 dy=0 dh=0 dv=0 dx=0 dy=0 dh=-50 dv=0
PairPos2: "'kern' Horizontal Kerning in Arabic lookup 0 subtable" uni0672 dx=0 dy=0 dh=0 dv=0 dx=0 dy=0 dh=-50 dv=0
PairPos2: "'kern' Horizontal Kerning in Arabic lookup 0 subtable" afii57411 dx=0 dy=0 dh=0 dv=0 dx=0 dy=0 dh=-50 dv=0
EndChar

StartChar: afii57425
Encoding: 1585 1585 194
Width: 736
GlyphClass: 2
Flags: W
AnchorPoint: "Anchor-3" 60 -750 basechar 0
AnchorPoint: "Anchor-2" 300 855 basechar 0
LayerCount: 2
Fore
SplineSet
658 377 m 2,0,-1
 609 391 l 1,1,2
 643 324 643 324 662 268 c 1,3,4
 693 195 693 195 697 147 c 1,5,6
 697 86 697 86 690.5 57.5 c 128,-1,7
 684 29 684 29 666 -16 c 1,8,9
 557 -158 557 -158 473 -221 c 0,10,11
 400 -274 400 -274 244 -340 c 1,12,13
 228 -342 228 -342 146 -348 c 0,14,15
 105 -354 105 -354 64 -358 c 1,16,17
 4 -358 4 -358 -49 -367.5 c 128,-1,18
 -102 -377 -102 -377 -133 -381 c 0,19,20
 -176 -389 -176 -389 -194 -389 c 0,21,22
 -213 -389 -213 -389 -213 -381 c 0,23,24
 -213 -371 -213 -371 -161 -346 c 0,25,26
 115 -225 115 -225 215 -180 c 0,27,28
 347 -115 347 -115 433 -57 c 1,29,30
 502 -4 502 -4 609 90 c 1,31,32
 592 162 592 162 562.5 230.5 c 128,-1,33
 533 299 533 299 484 377 c 1,34,-1
 441 463 l 1,35,-1
 531 610 l 1,36,37
 564 539 564 539 584 508 c 0,38,39
 619 463 619 463 666 426 c 0,40,41
 674 416 674 416 682 408 c 0,42,43
 693 393 693 393 693 383 c 0,44,45
 691 373 691 373 674 373 c 0,46,47
 666 373 666 373 658 377 c 2,0,-1
EndSplineSet
Substitution2: "'fina' Terminal Forms in Arabic lookup 2 subtable" afii62782
PairPos2: "'kern' Horizontal Kerning in Arabic lookup 0 subtable" afii57415 dx=0 dy=0 dh=0 dv=0 dx=0 dy=0 dh=-50 dv=0
PairPos2: "'kern' Horizontal Kerning in Arabic lookup 0 subtable" uni0675 dx=0 dy=0 dh=0 dv=0 dx=0 dy=0 dh=-50 dv=0
PairPos2: "'kern' Horizontal Kerning in Arabic lookup 0 subtable" uni0672 dx=0 dy=0 dh=0 dv=0 dx=0 dy=0 dh=-50 dv=0
PairPos2: "'kern' Horizontal Kerning in Arabic lookup 0 subtable" uniFBFE dx=0 dy=0 dh=0 dv=0 dx=0 dy=0 dh=180 dv=0
PairPos2: "'kern' Horizontal Kerning in Arabic lookup 0 subtable" afii62831 dx=0 dy=0 dh=0 dv=0 dx=0 dy=0 dh=180 dv=0
PairPos2: "'kern' Horizontal Kerning in Arabic lookup 0 subtable" afii57450 dx=0 dy=0 dh=0 dv=0 dx=0 dy=0 dh=150 dv=0
PairPos2: "'kern' Horizontal Kerning in Arabic lookup 0 subtable" afii57449 dx=0 dy=0 dh=0 dv=0 dx=0 dy=0 dh=150 dv=0
PairPos2: "'kern' Horizontal Kerning in Arabic lookup 0 subtable" afii62761 dx=0 dy=0 dh=0 dv=0 dx=0 dy=0 dh=180 dv=0
PairPos2: "'kern' Horizontal Kerning in Arabic lookup 0 subtable" afii57414 dx=0 dy=0 dh=0 dv=0 dx=0 dy=0 dh=150 dv=0
PairPos2: "'kern' Horizontal Kerning in Arabic lookup 0 subtable" afii57413 dx=0 dy=0 dh=0 dv=0 dx=0 dy=0 dh=250 dv=0
PairPos2: "'kern' Horizontal Kerning in Arabic lookup 0 subtable" afii57411 dx=0 dy=0 dh=0 dv=0 dx=0 dy=0 dh=-50 dv=0
PairPos2: "'kern' Horizontal Kerning in Arabic lookup 0 subtable" afii57555 dx=0 dy=0 dh=0 dv=0 dx=0 dy=0 dh=150 dv=0
PairPos2: "'kern' Horizontal Kerning in Arabic lookup 0 subtable" afii62956 dx=0 dy=0 dh=0 dv=0 dx=0 dy=0 dh=180 dv=0
EndChar

StartChar: afii62782
Encoding: 65198 65198 195
Width: 783
GlyphClass: 2
Flags: W
AnchorPoint: "Anchor-3" 15 -840 basechar 0
AnchorPoint: "Anchor-2" 270 810 basechar 0
LayerCount: 2
Fore
SplineSet
673 377 m 2,0,-1
 636 383 l 1,1,2
 669 324 669 324 687 260 c 1,3,4
 708 205 708 205 712 147 c 1,5,6
 712 86 712 86 705.5 57.5 c 128,-1,7
 699 29 699 29 681 -16 c 1,8,9
 572 -158 572 -158 488 -221 c 0,10,11
 415 -274 415 -274 259 -340 c 1,12,13
 230 -342 230 -342 202 -344 c 0,14,15
 177 -344 177 -344 150.5 -346 c 128,-1,16
 124 -348 124 -348 67.5 -353 c 128,-1,17
 11 -358 11 -358 -31 -363.5 c 128,-1,18
 -73 -369 -73 -369 -124 -381 c 0,19,20
 -165 -389 -165 -389 -185 -389 c 0,21,22
 -200 -389 -200 -389 -200 -383 c 0,23,24
 -200 -373 -200 -373 -146 -346 c 0,25,26
 130 -225 130 -225 230 -180 c 0,27,28
 362 -115 362 -115 448 -57 c 1,29,30
 517 -4 517 -4 624 90 c 1,31,32
 613 137 613 137 574.5 224 c 128,-1,33
 536 311 536 311 499 377 c 1,34,-1
 441 455 l 1,35,-1
 536 606 l 1,36,37
 554 565 554 565 599 512 c 0,38,39
 632 475 632 475 681 426 c 0,40,41
 689 416 689 416 697 408 c 0,42,43
 708 393 708 393 708 383 c 0,44,45
 706 373 706 373 689 373 c 0,46,47
 681 373 681 373 673 377 c 2,0,-1
EndSplineSet
PairPos2: "'kern' Horizontal Kerning in Arabic lookup 0 subtable" afii57415 dx=0 dy=0 dh=0 dv=0 dx=0 dy=0 dh=-100 dv=0
PairPos2: "'kern' Horizontal Kerning in Arabic lookup 0 subtable" uniFBFE dx=0 dy=0 dh=0 dv=0 dx=0 dy=0 dh=170 dv=0
PairPos2: "'kern' Horizontal Kerning in Arabic lookup 0 subtable" afii62831 dx=0 dy=0 dh=0 dv=0 dx=0 dy=0 dh=170 dv=0
PairPos2: "'kern' Horizontal Kerning in Arabic lookup 0 subtable" afii57450 dx=0 dy=0 dh=0 dv=0 dx=0 dy=0 dh=150 dv=0
PairPos2: "'kern' Horizontal Kerning in Arabic lookup 0 subtable" afii57449 dx=0 dy=0 dh=0 dv=0 dx=0 dy=0 dh=150 dv=0
PairPos2: "'kern' Horizontal Kerning in Arabic lookup 0 subtable" afii62761 dx=0 dy=0 dh=0 dv=0 dx=0 dy=0 dh=170 dv=0
PairPos2: "'kern' Horizontal Kerning in Arabic lookup 0 subtable" afii57414 dx=0 dy=0 dh=0 dv=0 dx=0 dy=0 dh=150 dv=0
PairPos2: "'kern' Horizontal Kerning in Arabic lookup 0 subtable" afii57413 dx=0 dy=0 dh=0 dv=0 dx=0 dy=0 dh=200 dv=0
PairPos2: "'kern' Horizontal Kerning in Arabic lookup 0 subtable" afii57555 dx=0 dy=0 dh=0 dv=0 dx=0 dy=0 dh=150 dv=0
PairPos2: "'kern' Horizontal Kerning in Arabic lookup 0 subtable" afii62956 dx=0 dy=0 dh=0 dv=0 dx=0 dy=0 dh=170 dv=0
EndChar

StartChar: afii57427
Encoding: 1587 1587 198
Width: 1810
GlyphClass: 2
Flags: W
AnchorPoint: "Anchor-3" 420 -840 basechar 0
AnchorPoint: "Anchor-2" 1095 945 basechar 0
LayerCount: 2
Fore
SplineSet
1708 651 m 1,0,1
 1747 565 1747 565 1764.5 481 c 128,-1,2
 1782 397 1782 397 1782 324 c 0,3,4
 1782 309 1782 309 1781 290.5 c 128,-1,5
 1780 272 1780 272 1778 258 c 0,6,7
 1778 186 1778 186 1757.5 128 c 128,-1,8
 1737 70 1737 70 1708 33 c 1,9,10
 1630 33 1630 33 1540 49 c 0,11,12
 1421 72 1421 72 1366 113 c 1,13,14
 1329 59 1329 59 1262 27 c 1,15,16
 1196 0 1196 0 1130 0 c 0,17,18
 1057 0 1057 0 1018 33 c 1,19,20
 1010 -29 1010 -29 1006 -51 c 0,21,22
 995 -90 995 -90 981 -121 c 1,23,24
 864 -229 864 -229 666 -305 c 0,25,26
 479 -373 479 -373 340 -373 c 0,27,28
 217 -373 217 -373 123 -297 c 0,29,30
 23 -217 23 -217 23 -90 c 0,31,32
 23 -82 23 -82 21.5 -53.5 c 128,-1,33
 20 -25 20 -25 20 -23 c 0,34,35
 20 82 20 82 41.5 180.5 c 128,-1,36
 63 279 63 279 106 340 c 0,37,38
 133 381 133 381 150 381 c 0,39,40
 162 381 162 381 162 356 c 0,41,42
 162 344 162 344 159 333 c 128,-1,43
 156 322 156 322 150 309 c 0,44,45
 119 248 119 248 101.5 187.5 c 128,-1,46
 84 127 84 127 84 72 c 0,47,48
 84 10 84 10 107.5 -40 c 128,-1,49
 131 -90 131 -90 184 -127 c 0,50,51
 217 -150 217 -150 267 -163 c 128,-1,52
 317 -176 317 -176 381 -176 c 0,53,54
 508 -176 508 -176 651 -131 c 1,55,56
 803 -78 803 -78 930 14 c 1,57,58
 920 98 920 98 881 170 c 0,59,60
 846 231 846 231 776 309 c 1,61,-1
 899 483 l 1,62,63
 934 422 934 422 963 346 c 0,64,65
 983 293 983 293 1010 207 c 1,66,67
 1053 197 1053 197 1108 197 c 0,68,69
 1157 197 1157 197 1203 207 c 128,-1,70
 1249 217 1249 217 1294 236 c 0,71,72
 1313 248 1313 248 1319 254 c 0,73,74
 1335 268 1335 268 1335 293 c 0,75,76
 1335 303 1335 303 1331 309 c 0,77,78
 1317 348 1317 348 1311 367 c 0,79,80
 1300 393 1300 393 1288 420 c 1,81,-1
 1364 551 l 1,82,83
 1380 590 1380 590 1393 586 c 0,84,85
 1401 586 1401 586 1407 570.5 c 128,-1,86
 1413 555 1413 555 1417 537 c 0,87,88
 1425 506 1425 506 1429.5 472 c 128,-1,89
 1434 438 1434 438 1434 408 c 0,90,91
 1434 389 1434 389 1429.5 353 c 128,-1,92
 1425 317 1425 317 1425 303 c 1,93,94
 1487 260 1487 260 1548 244 c 0,95,96
 1599 229 1599 229 1673 229 c 1,97,98
 1673 287 1673 287 1655 346 c 0,99,100
 1632 422 1632 422 1583 477 c 1,101,-1
 1708 651 l 1,0,1
EndSplineSet
Substitution2: "'medi' Medial Forms in Arabic lookup 3 subtable" afii62785
Substitution2: "'fina' Terminal Forms in Arabic lookup 2 subtable" afii62786
Substitution2: "'init' Initial Forms in Arabic lookup 1 subtable" afii62784
EndChar

StartChar: afii62786
Encoding: 65202 65202 199
Width: 1843
GlyphClass: 2
Flags: W
AnchorPoint: "Anchor-3" 450 -870 basechar 0
AnchorPoint: "Anchor-2" 1245 885 basechar 0
LayerCount: 2
Fore
SplineSet
1708 651 m 1,0,1
 1747 565 1747 565 1764.5 481 c 128,-1,2
 1782 397 1782 397 1782 324 c 0,3,4
 1782 309 1782 309 1781 290.5 c 128,-1,5
 1780 272 1780 272 1778 258 c 0,6,7
 1778 186 1778 186 1757.5 128 c 128,-1,8
 1737 70 1737 70 1708 33 c 1,9,10
 1630 33 1630 33 1540 49 c 0,11,12
 1421 72 1421 72 1366 113 c 1,13,14
 1329 59 1329 59 1262 27 c 1,15,16
 1196 0 1196 0 1130 0 c 0,17,18
 1057 0 1057 0 1018 33 c 1,19,20
 1010 -29 1010 -29 1006 -51 c 0,21,22
 995 -90 995 -90 981 -121 c 1,23,24
 864 -229 864 -229 666 -305 c 0,25,26
 479 -373 479 -373 340 -373 c 0,27,28
 217 -373 217 -373 123 -297 c 0,29,30
 23 -217 23 -217 23 -90 c 0,31,32
 23 -82 23 -82 21.5 -53.5 c 128,-1,33
 20 -25 20 -25 20 -23 c 0,34,35
 20 82 20 82 41.5 180.5 c 128,-1,36
 63 279 63 279 106 340 c 0,37,38
 133 381 133 381 150 381 c 0,39,40
 162 381 162 381 162 356 c 0,41,42
 162 344 162 344 159 333 c 128,-1,43
 156 322 156 322 150 309 c 0,44,45
 119 248 119 248 101.5 187.5 c 128,-1,46
 84 127 84 127 84 72 c 0,47,48
 84 10 84 10 107.5 -40 c 128,-1,49
 131 -90 131 -90 184 -127 c 0,50,51
 217 -150 217 -150 267 -163 c 128,-1,52
 317 -176 317 -176 381 -176 c 0,53,54
 508 -176 508 -176 651 -131 c 1,55,56
 803 -78 803 -78 930 14 c 1,57,58
 920 98 920 98 881 170 c 0,59,60
 846 231 846 231 776 309 c 1,61,-1
 899 483 l 1,62,63
 934 422 934 422 963 346 c 0,64,65
 983 293 983 293 1010 207 c 1,66,67
 1053 197 1053 197 1108 197 c 0,68,69
 1157 197 1157 197 1203 207 c 128,-1,70
 1249 217 1249 217 1294 236 c 0,71,72
 1313 248 1313 248 1319 254 c 0,73,74
 1335 268 1335 268 1335 293 c 0,75,76
 1335 303 1335 303 1331 309 c 0,77,78
 1317 348 1317 348 1311 367 c 0,79,80
 1300 393 1300 393 1288 420 c 1,81,-1
 1364 551 l 1,82,83
 1380 590 1380 590 1393 586 c 0,84,85
 1401 586 1401 586 1407 570.5 c 128,-1,86
 1413 555 1413 555 1417 537 c 0,87,88
 1425 506 1425 506 1429.5 472 c 128,-1,89
 1434 438 1434 438 1434 408 c 0,90,91
 1434 389 1434 389 1429.5 353 c 128,-1,92
 1425 317 1425 317 1425 303 c 1,93,94
 1487 260 1487 260 1548 244 c 0,95,96
 1599 229 1599 229 1673 229 c 1,97,98
 1673 287 1673 287 1655 346 c 0,99,100
 1632 422 1632 422 1583 477 c 1,101,-1
 1708 651 l 1,0,1
EndSplineSet
EndChar

StartChar: afii62784
Encoding: 65203 65203 200
Width: 1410
GlyphClass: 2
Flags: W
AnchorPoint: "Anchor-3" 735 -540 basechar 0
AnchorPoint: "Anchor-2" 900 1020 basechar 0
LayerCount: 2
Fore
SplineSet
106 0 m 2,0,1
 12 0 12 0 -39 51 c 0,2,3
 -84 98 -84 98 -113 199 c 1,4,-1
 106 199 l 2,5,6
 195 201 195 201 231 209 c 0,7,8
 291 219 291 219 324 250 c 0,9,10
 354 279 354 279 377 299 c 0,11,12
 444 367 444 367 537 469 c 0,13,14
 561 492 561 492 573 489 c 0,15,16
 586 489 586 489 593 477 c 128,-1,17
 600 465 600 465 600 451 c 0,18,19
 600 442 600 442 594 432 c 0,20,21
 578 395 578 395 571.5 356 c 128,-1,22
 565 317 565 317 565 293 c 0,23,24
 565 258 565 258 607 227.5 c 128,-1,25
 649 197 649 197 698 197 c 1,26,-1
 717 199 l 2,27,28
 801 211 801 211 858 238 c 0,29,30
 901 260 901 260 922 287 c 1,31,32
 922 348 922 348 909 393 c 0,33,34
 907 408 907 408 897 428 c 1,35,36
 907 446 907 446 934 500 c 0,37,38
 954 541 954 541 958 551 c 0,39,40
 971 569 971 569 981 579.5 c 128,-1,41
 991 590 991 590 997 590 c 0,42,43
 1010 590 1010 590 1018 569 c 0,44,45
 1022 557 1022 557 1030 506 c 1,46,47
 1036 426 1036 426 1036 381 c 0,48,49
 1036 365 1036 365 1035 346.5 c 128,-1,50
 1034 328 1034 328 1032 309 c 0,51,52
 1032 281 1032 281 1108 266 c 0,53,54
 1118 262 1118 262 1270 236 c 1,55,56
 1270 293 1270 293 1243 377 c 0,57,58
 1225 444 1225 444 1204 477 c 1,59,60
 1214 487 1214 487 1241 528 c 0,61,62
 1276 582 1276 582 1311 639 c 1,63,64
 1350 555 1350 555 1368 465 c 0,65,66
 1386 383 1386 383 1386 317 c 0,67,68
 1386 244 1386 244 1362.5 164 c 128,-1,69
 1339 84 1339 84 1311 47 c 1,70,71
 1214 57 1214 57 1165 63 c 0,72,73
 1092 76 1092 76 1092 76 c 2,74,75
 1065 84 1065 84 1030 100 c 0,76,77
 983 121 983 121 971 125 c 1,78,79
 907 70 907 70 819 35 c 0,80,81
 739 2 739 2 680 2 c 0,82,83
 598 2 598 2 538.5 54 c 128,-1,84
 479 106 479 106 463 186 c 1,85,86
 389 82 389 82 322 35 c 0,87,88
 268 0 268 0 213 0 c 2,89,-1
 106 0 l 2,0,1
EndSplineSet
EndChar

StartChar: afii62785
Encoding: 65204 65204 201
Width: 1460
GlyphClass: 2
Flags: W
AnchorPoint: "Anchor-3" 810 -585 basechar 0
AnchorPoint: "Anchor-2" 855 915 basechar 0
LayerCount: 2
Fore
SplineSet
47 199 m 1,0,-1
 106 201 l 2,1,2
 195 201 195 201 231 209 c 0,3,4
 291 219 291 219 324 250 c 0,5,6
 354 279 354 279 377 299 c 0,7,8
 444 367 444 367 537 469 c 0,9,10
 561 492 561 492 573 489 c 0,11,12
 586 489 586 489 593 477 c 128,-1,13
 600 465 600 465 600 451 c 0,14,15
 600 442 600 442 594 432 c 0,16,17
 578 395 578 395 571.5 356 c 128,-1,18
 565 317 565 317 565 293 c 0,19,20
 565 258 565 258 607 227.5 c 128,-1,21
 649 197 649 197 698 197 c 1,22,-1
 717 199 l 2,23,24
 801 211 801 211 858 238 c 0,25,26
 901 260 901 260 922 287 c 1,27,28
 922 348 922 348 909 393 c 0,29,30
 907 408 907 408 897 428 c 1,31,32
 907 446 907 446 934 500 c 0,33,34
 954 541 954 541 958 551 c 0,35,36
 971 569 971 569 981 579.5 c 128,-1,37
 991 590 991 590 997 590 c 0,38,39
 1010 590 1010 590 1018 569 c 0,40,41
 1022 557 1022 557 1030 506 c 1,42,43
 1036 426 1036 426 1036 381 c 0,44,45
 1036 365 1036 365 1035 346.5 c 128,-1,46
 1034 328 1034 328 1032 309 c 0,47,48
 1032 281 1032 281 1108 266 c 0,49,50
 1118 262 1118 262 1270 236 c 1,51,52
 1270 293 1270 293 1243 377 c 0,53,54
 1225 444 1225 444 1204 477 c 1,55,56
 1214 487 1214 487 1241 528 c 0,57,58
 1276 582 1276 582 1311 639 c 1,59,60
 1350 555 1350 555 1368 465 c 0,61,62
 1386 383 1386 383 1386 317 c 0,63,64
 1386 244 1386 244 1362.5 164 c 128,-1,65
 1339 84 1339 84 1311 47 c 1,66,67
 1214 57 1214 57 1165 63 c 0,68,69
 1092 76 1092 76 1092 76 c 2,70,71
 1065 84 1065 84 1030 100 c 0,72,73
 983 121 983 121 971 125 c 1,74,75
 907 70 907 70 819 35 c 0,76,77
 739 2 739 2 680 2 c 0,78,79
 598 2 598 2 538.5 54 c 128,-1,80
 479 106 479 106 463 186 c 1,81,82
 389 82 389 82 322 35 c 0,83,84
 268 0 268 0 213 0 c 2,85,-1
 106 0 l 2,86,87
 12 0 12 0 -39 51 c 0,88,89
 -84 98 -84 98 -113 199 c 1,90,-1
 47 199 l 1,0,-1
EndSplineSet
EndChar

StartChar: afii57429
Encoding: 1589 1589 206
Width: 1903
GlyphClass: 2
Flags: W
AnchorPoint: "Anchor-3" 450 -885 basechar 0
AnchorPoint: "Anchor-2" 900 915 basechar 0
LayerCount: 2
Fore
SplineSet
1559 16 m 0,0,1
 1511 10 1511 10 1432.5 6 c 128,-1,2
 1354 2 1354 2 1281 1 c 128,-1,3
 1208 0 1208 0 1114 0 c 2,4,-1
 1022 0 l 1,5,6
 995 -96 995 -96 985 -119 c 0,7,8
 981 -131 981 -131 948 -158 c 0,9,10
 862 -219 862 -219 801 -254 c 0,11,12
 702 -307 702 -307 604 -340 c 0,13,14
 483 -377 483 -377 360 -377 c 0,15,16
 174 -377 174 -377 94 -295 c 1,17,18
 16 -221 16 -221 16 -61 c 0,19,20
 16 35 16 35 38.5 142.5 c 128,-1,21
 61 250 61 250 90 324 c 0,22,23
 98 340 98 340 109.5 348 c 128,-1,24
 121 356 121 356 133 356 c 0,25,26
 152 356 152 356 152 328 c 0,27,28
 152 317 152 317 150 309 c 0,29,30
 131 246 131 246 121 196.5 c 128,-1,31
 111 147 111 147 111 113 c 0,32,33
 111 94 111 94 113 78 c 0,34,35
 119 -84 119 -84 197 -133 c 0,36,37
 266 -180 266 -180 397 -180 c 0,38,39
 530 -180 530 -180 677.5 -121.5 c 128,-1,40
 825 -63 825 -63 930 23 c 1,41,42
 907 102 907 102 871.5 178 c 128,-1,43
 836 254 836 254 791 309 c 1,44,-1
 897 481 l 1,45,46
 920 451 920 451 946 377 c 0,47,48
 973 305 973 305 980 263 c 128,-1,49
 987 221 987 221 997.5 204.5 c 128,-1,50
 1008 188 1008 188 1020 188 c 0,51,52
 1030 188 1030 188 1040 199 c 0,53,54
 1092 285 1092 285 1155 369 c 0,55,56
 1202 430 1202 430 1262 504 c 0,57,58
 1298 543 1298 543 1339 584 c 128,-1,59
 1380 625 1380 625 1430 651 c 0,60,61
 1483 680 1483 680 1513 680 c 2,62,-1
 1522 680 l 2,63,64
 1638 680 1638 680 1744.5 594 c 128,-1,65
 1851 508 1851 508 1878 391 c 1,66,67
 1878 322 1878 322 1858.5 232.5 c 128,-1,68
 1839 143 1839 143 1819 113 c 1,69,70
 1794 86 1794 86 1715 56.5 c 128,-1,71
 1636 27 1636 27 1559 16 c 0,0,1
1485 528 m 0,72,73
 1421 528 1421 528 1362 479 c 0,74,75
 1317 440 1317 440 1251 348 c 0,76,77
 1188 262 1188 262 1126 176 c 1,78,79
 1153 172 1153 172 1185 168 c 128,-1,80
 1217 164 1217 164 1412.5 172 c 128,-1,81
 1608 180 1608 180 1674.5 199.5 c 128,-1,82
 1741 219 1741 219 1794 258 c 1,83,84
 1790 297 1790 297 1775.5 331 c 128,-1,85
 1761 365 1761 365 1733 395 c 0,86,87
 1688 446 1688 446 1622 481 c 0,88,89
 1538 528 1538 528 1485 528 c 0,72,73
EndSplineSet
Substitution2: "'medi' Medial Forms in Arabic lookup 3 subtable" afii62791
Substitution2: "'fina' Terminal Forms in Arabic lookup 2 subtable" afii62792
Substitution2: "'init' Initial Forms in Arabic lookup 1 subtable" afii62790
EndChar

StartChar: afii62792
Encoding: 65210 65210 207
Width: 1929
GlyphClass: 2
Flags: W
AnchorPoint: "Anchor-3" 510 -840 basechar 0
AnchorPoint: "Anchor-2" 960 945 basechar 0
LayerCount: 2
Fore
SplineSet
1559 16 m 0,0,1
 1511 10 1511 10 1432.5 6 c 128,-1,2
 1354 2 1354 2 1281 1 c 128,-1,3
 1208 0 1208 0 1114 0 c 2,4,-1
 1022 0 l 1,5,6
 995 -96 995 -96 985 -119 c 0,7,8
 981 -131 981 -131 948 -158 c 0,9,10
 862 -219 862 -219 801 -254 c 0,11,12
 702 -307 702 -307 604 -340 c 0,13,14
 483 -377 483 -377 360 -377 c 0,15,16
 174 -377 174 -377 94 -295 c 1,17,18
 16 -221 16 -221 16 -61 c 0,19,20
 16 35 16 35 38.5 142.5 c 128,-1,21
 61 250 61 250 90 324 c 0,22,23
 98 340 98 340 109.5 348 c 128,-1,24
 121 356 121 356 133 356 c 0,25,26
 152 356 152 356 152 328 c 0,27,28
 152 317 152 317 150 309 c 0,29,30
 131 246 131 246 121 196.5 c 128,-1,31
 111 147 111 147 111 113 c 0,32,33
 111 94 111 94 113 78 c 0,34,35
 119 -84 119 -84 197 -133 c 0,36,37
 266 -180 266 -180 397 -180 c 0,38,39
 530 -180 530 -180 677.5 -121.5 c 128,-1,40
 825 -63 825 -63 930 23 c 1,41,42
 907 102 907 102 871.5 178 c 128,-1,43
 836 254 836 254 791 309 c 1,44,-1
 897 481 l 1,45,46
 920 451 920 451 946 377 c 0,47,48
 973 305 973 305 980 263 c 128,-1,49
 987 221 987 221 997.5 204.5 c 128,-1,50
 1008 188 1008 188 1020 188 c 0,51,52
 1030 188 1030 188 1040 199 c 0,53,54
 1092 285 1092 285 1155 369 c 0,55,56
 1202 430 1202 430 1262 504 c 0,57,58
 1298 543 1298 543 1339 584 c 128,-1,59
 1380 625 1380 625 1430 651 c 0,60,61
 1483 680 1483 680 1513 680 c 2,62,-1
 1522 680 l 2,63,64
 1638 680 1638 680 1744.5 594 c 128,-1,65
 1851 508 1851 508 1878 391 c 1,66,67
 1878 322 1878 322 1858.5 232.5 c 128,-1,68
 1839 143 1839 143 1819 113 c 1,69,70
 1794 86 1794 86 1715 56.5 c 128,-1,71
 1636 27 1636 27 1559 16 c 0,0,1
1485 528 m 0,72,73
 1421 528 1421 528 1362 479 c 0,74,75
 1317 440 1317 440 1251 348 c 0,76,77
 1188 262 1188 262 1126 176 c 1,78,79
 1153 172 1153 172 1185 168 c 128,-1,80
 1217 164 1217 164 1412.5 172 c 128,-1,81
 1608 180 1608 180 1674.5 199.5 c 128,-1,82
 1741 219 1741 219 1794 258 c 1,83,84
 1790 297 1790 297 1775.5 331 c 128,-1,85
 1761 365 1761 365 1733 395 c 0,86,87
 1688 446 1688 446 1622 481 c 0,88,89
 1538 528 1538 528 1485 528 c 0,72,73
EndSplineSet
EndChar

StartChar: afii62790
Encoding: 65211 65211 208
Width: 1489
GlyphClass: 2
Flags: W
AnchorPoint: "Anchor-3" 540 -630 basechar 0
AnchorPoint: "Anchor-2" 735 1035 basechar 0
LayerCount: 2
Fore
SplineSet
106 0 m 2,0,1
 12 0 12 0 -39 51 c 0,2,3
 -84 98 -84 98 -113 199 c 1,4,-1
 233 199 l 2,5,6
 260 199 260 199 312.5 215 c 128,-1,7
 365 231 365 231 410 267 c 128,-1,8
 455 303 455 303 478.5 335 c 128,-1,9
 502 367 502 367 532 432 c 0,10,11
 553 469 553 469 573 469 c 0,12,13
 582 469 582 469 587 460 c 128,-1,14
 592 451 592 451 592 438 c 0,15,16
 592 420 592 420 588 414 c 0,17,18
 578 383 578 383 572.5 349 c 128,-1,19
 567 315 567 315 565 287 c 0,20,21
 565 260 565 260 587.5 229.5 c 128,-1,22
 610 199 610 199 625 199 c 1,23,24
 659 268 659 268 725 356 c 0,25,26
 778 430 778 430 840 500 c 0,27,28
 874 539 874 539 922 586 c 1,29,30
 969 625 969 625 1020 652.5 c 128,-1,31
 1071 680 1071 680 1104 680 c 2,32,-1
 1110 680 l 2,33,34
 1229 680 1229 680 1334.5 594 c 128,-1,35
 1440 508 1440 508 1466 391 c 1,36,37
 1466 322 1466 322 1445.5 230.5 c 128,-1,38
 1425 139 1425 139 1402.5 112.5 c 128,-1,39
 1380 86 1380 86 1303.5 57.5 c 128,-1,40
 1227 29 1227 29 1158.5 18.5 c 128,-1,41
 1090 8 1090 8 1005 4 c 128,-1,42
 920 0 920 0 787.5 0 c 128,-1,43
 655 0 655 0 640 0 c 128,-1,44
 625 0 625 0 610 0 c 1,45,46
 600 -14 600 -14 586 -35 c 0,47,48
 575 -45 575 -45 558 -61.5 c 128,-1,49
 541 -78 541 -78 520 -78 c 0,50,51
 496 -78 496 -78 496 -49 c 0,52,53
 496 -39 496 -39 500 -33 c 0,54,55
 506 -10 506 -10 516 8.5 c 128,-1,56
 526 27 526 27 532 39 c 1,57,58
 508 61 508 61 491.5 92 c 128,-1,59
 475 123 475 123 463 162 c 1,60,61
 416 90 416 90 342 45 c 0,62,63
 272 0 272 0 217 0 c 2,64,-1
 106 0 l 2,0,1
1073 528 m 1,65,66
 999 506 999 506 944 459 c 0,67,68
 897 420 897 420 835.5 339 c 128,-1,69
 774 258 774 258 715 176 c 1,70,71
 745 174 745 174 773 173 c 128,-1,72
 801 172 801 172 851 172 c 128,-1,73
 901 172 901 172 1048.5 179 c 128,-1,74
 1196 186 1196 186 1261.5 205.5 c 128,-1,75
 1327 225 1327 225 1380 258 c 1,76,77
 1374 299 1374 299 1362 332 c 128,-1,78
 1350 365 1350 365 1323 395 c 0,79,80
 1268 459 1268 459 1188 500 c 1,81,82
 1120 528 1120 528 1081 528 c 2,83,-1
 1073 528 l 1,65,66
EndSplineSet
EndChar

StartChar: afii62791
Encoding: 65212 65212 209
Width: 1516
GlyphClass: 2
Flags: W
AnchorPoint: "Anchor-3" 615 -615 basechar 0
AnchorPoint: "Anchor-2" 705 975 basechar 0
LayerCount: 2
Fore
SplineSet
106 0 m 2,0,1
 12 0 12 0 -39 51 c 0,2,3
 -84 98 -84 98 -113 199 c 1,4,-1
 233 199 l 2,5,6
 260 199 260 199 312.5 215 c 128,-1,7
 365 231 365 231 410 267 c 128,-1,8
 455 303 455 303 478.5 335 c 128,-1,9
 502 367 502 367 532 432 c 0,10,11
 553 469 553 469 573 469 c 0,12,13
 582 469 582 469 587 460 c 128,-1,14
 592 451 592 451 592 438 c 0,15,16
 592 420 592 420 588 414 c 0,17,18
 578 383 578 383 572.5 349 c 128,-1,19
 567 315 567 315 565 287 c 0,20,21
 565 260 565 260 587.5 229.5 c 128,-1,22
 610 199 610 199 625 199 c 1,23,24
 659 268 659 268 725 356 c 0,25,26
 778 430 778 430 840 500 c 0,27,28
 874 539 874 539 922 586 c 1,29,30
 969 625 969 625 1020 652.5 c 128,-1,31
 1071 680 1071 680 1104 680 c 2,32,-1
 1110 680 l 2,33,34
 1229 680 1229 680 1334.5 594 c 128,-1,35
 1440 508 1440 508 1466 391 c 1,36,37
 1466 322 1466 322 1445.5 230.5 c 128,-1,38
 1425 139 1425 139 1402.5 112.5 c 128,-1,39
 1380 86 1380 86 1303.5 57.5 c 128,-1,40
 1227 29 1227 29 1158.5 18.5 c 128,-1,41
 1090 8 1090 8 1005 4 c 128,-1,42
 920 0 920 0 787.5 0 c 128,-1,43
 655 0 655 0 640 0 c 128,-1,44
 625 0 625 0 610 0 c 1,45,46
 600 -14 600 -14 586 -35 c 0,47,48
 575 -45 575 -45 558 -61.5 c 128,-1,49
 541 -78 541 -78 520 -78 c 0,50,51
 496 -78 496 -78 496 -49 c 0,52,53
 496 -39 496 -39 500 -33 c 0,54,55
 506 -10 506 -10 516 8.5 c 128,-1,56
 526 27 526 27 532 39 c 1,57,58
 508 61 508 61 491.5 92 c 128,-1,59
 475 123 475 123 463 162 c 1,60,61
 416 90 416 90 342 45 c 0,62,63
 272 0 272 0 217 0 c 2,64,-1
 106 0 l 2,0,1
1073 528 m 1,65,66
 999 506 999 506 944 459 c 0,67,68
 897 420 897 420 835.5 339 c 128,-1,69
 774 258 774 258 715 176 c 1,70,71
 745 174 745 174 773 173 c 128,-1,72
 801 172 801 172 851 172 c 128,-1,73
 901 172 901 172 1048.5 179 c 128,-1,74
 1196 186 1196 186 1261.5 205.5 c 128,-1,75
 1327 225 1327 225 1380 258 c 1,76,77
 1374 299 1374 299 1362 332 c 128,-1,78
 1350 365 1350 365 1323 395 c 0,79,80
 1268 459 1268 459 1188 500 c 1,81,82
 1120 528 1120 528 1081 528 c 2,83,-1
 1073 528 l 1,65,66
EndSplineSet
EndChar

StartChar: afii57431
Encoding: 1591 1591 214
Width: 1264
GlyphClass: 2
Flags: W
AnchorPoint: "Anchor-3" 630 -540 basechar 0
AnchorPoint: "Anchor-2" 930 1230 basechar 0
LayerCount: 2
Fore
SplineSet
1249 377 m 0,0,1
 1249 309 1249 309 1208 221 c 0,2,3
 1178 152 1178 152 1147 121 c 1,4,5
 1079 82 1079 82 1022 59 c 0,6,7
 944 29 944 29 841.5 13.5 c 128,-1,8
 739 -2 739 -2 586 -2 c 2,9,-1
 262 -2 l 2,10,11
 188 -2 188 -2 131 37 c 0,12,13
 78 72 78 72 53 121 c 0,14,15
 39 150 39 150 41 162 c 0,16,17
 41 174 41 174 47 183.5 c 128,-1,18
 53 193 53 193 61 201 c 1,19,20
 100 197 100 197 140 195 c 128,-1,21
 180 193 180 193 221 193 c 0,22,23
 236 193 236 193 249 193 c 128,-1,24
 262 193 262 193 272 193 c 1,25,26
 295 207 295 207 311.5 224.5 c 128,-1,27
 328 242 328 242 344 258 c 0,28,29
 358 274 358 274 373 295 c 0,30,31
 383 305 383 305 383 317 c 1,32,-1
 420 397 l 1,33,34
 420 502 420 502 408 627 c 0,35,36
 397 705 397 705 377.5 849 c 128,-1,37
 358 993 358 993 354 1053 c 0,38,39
 344 1143 344 1143 334 1187 c 128,-1,40
 324 1231 324 1231 315 1270 c 1,41,-1
 440 1434 l 1,42,43
 446 1391 446 1391 455 1348 c 0,44,45
 467 1300 467 1300 514 1184 c 0,46,47
 530 1143 530 1143 540.5 1108 c 128,-1,48
 551 1073 551 1073 551 1053 c 1,49,-1
 528 1016 l 1,50,-1
 469 1106 l 1,51,52
 469 1067 469 1067 479 971 c 0,53,54
 481 948 481 948 500 776 c 1,55,56
 500 713 500 713 504 650.5 c 128,-1,57
 508 588 508 588 514 526 c 0,58,59
 514 508 514 508 512 494 c 0,60,61
 506 446 506 446 506 428 c 1,62,63
 594 543 594 543 696 614 c 0,64,65
 782 674 782 674 848 680 c 1,66,67
 985 680 985 680 1118 578 c 0,68,69
 1249 475 1249 475 1249 377 c 0,0,1
1145 287 m 1,70,71
 1069 418 1069 418 979 481 c 0,72,73
 893 541 893 541 807 541 c 1,74,75
 739 530 739 530 727 526 c 0,76,77
 702 516 702 516 653 469 c 1,78,79
 614 438 614 438 532 352 c 0,80,81
 444 256 444 256 391 180 c 1,82,-1
 791 184 l 2,83,84
 868 184 868 184 982 217 c 128,-1,85
 1096 250 1096 250 1145 287 c 1,70,71
EndSplineSet
Substitution2: "'medi' Medial Forms in Arabic lookup 3 subtable" afii62797
Substitution2: "'fina' Terminal Forms in Arabic lookup 2 subtable" afii62798
Substitution2: "'init' Initial Forms in Arabic lookup 1 subtable" afii62796
EndChar

StartChar: afii62798
Encoding: 65218 65218 215
Width: 1280
GlyphClass: 2
Flags: W
AnchorPoint: "Anchor-3" 630 -480 basechar 0
AnchorPoint: "Anchor-2" 855 1350 basechar 0
LayerCount: 2
Fore
SplineSet
1243 377 m 0,0,1
 1243 311 1243 311 1204 223 c 0,2,3
 1169 150 1169 150 1145 125 c 1,4,5
 1073 84 1073 84 1018 61 c 0,6,7
 942 33 942 33 837.5 16.5 c 128,-1,8
 733 0 733 0 580 0 c 2,9,-1
 258 0 l 2,10,11
 182 0 182 0 125 39 c 0,12,13
 76 72 76 72 51 125 c 0,14,15
 37 156 37 156 37 168 c 0,16,17
 37 176 37 176 43 185.5 c 128,-1,18
 49 195 49 195 53 201 c 1,19,20
 98 197 98 197 131 195 c 128,-1,21
 164 193 164 193 197 193 c 0,22,23
 213 193 213 193 230.5 194 c 128,-1,24
 248 195 248 195 266 195 c 1,25,26
 291 211 291 211 305 225 c 0,27,28
 324 248 324 248 340 262 c 0,29,30
 360 287 360 287 369.5 297 c 128,-1,31
 379 307 379 307 381 317 c 2,32,-1
 418 397 l 1,33,34
 418 508 418 508 406 629 c 0,35,36
 397 696 397 696 375.5 846.5 c 128,-1,37
 354 997 354 997 346 1055 c 0,38,39
 336 1151 336 1151 330 1192 c 1,40,41
 317 1239 317 1239 309 1270 c 1,42,-1
 434 1434 l 1,43,44
 444 1372 444 1372 453 1350 c 0,45,46
 463 1311 463 1311 506 1190 c 0,47,48
 530 1128 530 1128 539 1094 c 0,49,50
 543 1073 543 1073 543 1053 c 1,51,-1
 520 1016 l 1,52,-1
 469 1083 l 1,53,54
 469 1053 469 1053 479 963 c 0,55,56
 494 815 494 815 496 782 c 0,57,58
 496 715 496 715 500 651.5 c 128,-1,59
 504 588 504 588 506 528 c 2,60,-1
 506 514 l 2,61,62
 506 506 506 506 503 476 c 128,-1,63
 500 446 500 446 500 432 c 1,64,65
 590 551 590 551 690 618 c 0,66,67
 782 680 782 680 844 680 c 0,68,69
 983 680 983 680 1114 578 c 0,70,71
 1243 477 1243 477 1243 377 c 0,0,1
1141 287 m 1,72,73
 1065 420 1065 420 971 483 c 0,74,75
 887 543 887 543 799 543 c 1,76,77
 735 530 735 530 723 526 c 0,78,79
 698 516 698 516 647 475 c 0,80,81
 627 457 627 457 578 406 c 0,82,83
 518 344 518 344 477 297 c 0,84,85
 420 233 420 233 383 184 c 1,86,-1
 788 186 l 2,87,88
 864 186 864 186 978 220 c 128,-1,89
 1092 254 1092 254 1141 287 c 1,72,73
EndSplineSet
EndChar

StartChar: afii62796
Encoding: 65219 65219 216
Width: 1110
GlyphClass: 2
Flags: W
AnchorPoint: "Anchor-3" 420 -510 basechar 0
AnchorPoint: "Anchor-2" 705 1215 basechar 0
LayerCount: 2
Fore
SplineSet
440 0 m 2,0,-1
 106 0 l 2,1,2
 12 0 12 0 -39 51 c 0,3,4
 -84 98 -84 98 -113 199 c 1,5,-1
 139 199 l 1,6,7
 158 217 158 217 171 232.5 c 128,-1,8
 184 248 184 248 199 262 c 0,9,10
 221 287 221 287 229.5 297 c 128,-1,11
 238 307 238 307 242 317 c 2,12,-1
 279 397 l 1,13,14
 279 508 279 508 266 629 c 0,15,16
 258 698 258 698 235.5 851 c 128,-1,17
 213 1004 213 1004 209 1055 c 0,18,19
 199 1151 199 1151 188 1192 c 0,20,21
 188 1202 188 1202 170 1270 c 1,22,-1
 295 1434 l 1,23,24
 309 1354 309 1354 311 1350 c 0,25,26
 324 1307 324 1307 369 1190 c 0,27,28
 393 1128 393 1128 401 1094 c 0,29,30
 406 1073 406 1073 406 1053 c 1,31,-1
 383 1016 l 1,32,-1
 332 1053 l 1,33,34
 332 1024 332 1024 340 979 c 0,35,36
 354 860 354 860 354 782 c 1,37,38
 358 721 358 721 363.5 644 c 128,-1,39
 369 567 369 567 369 528 c 0,40,41
 369 518 369 518 364.5 486.5 c 128,-1,42
 360 455 360 455 360 432 c 1,43,44
 455 551 455 551 551 618 c 0,45,46
 639 680 639 680 702 680 c 0,47,48
 840 680 840 680 973 578 c 0,49,50
 1104 477 1104 477 1104 377 c 0,51,52
 1104 311 1104 311 1065 223 c 0,53,54
 1032 150 1032 150 1008 125 c 1,55,56
 936 84 936 84 881 61 c 0,57,58
 803 33 803 33 697.5 16.5 c 128,-1,59
 592 0 592 0 440 0 c 2,0,-1
1004 287 m 1,60,61
 930 420 930 420 834 483 c 0,62,63
 748 543 748 543 662 543 c 1,64,65
 598 530 598 530 586 526 c 0,66,67
 561 516 561 516 506 475 c 1,68,69
 469 442 469 442 389 354 c 0,70,71
 299 256 299 256 244 184 c 1,72,-1
 651 186 l 2,73,74
 727 186 727 186 838.5 218 c 128,-1,75
 950 250 950 250 1004 287 c 1,60,61
EndSplineSet
EndChar

StartChar: afii62797
Encoding: 65220 65220 217
Width: 1153
GlyphClass: 2
Flags: W
AnchorPoint: "Anchor-3" 540 -525 basechar 0
AnchorPoint: "Anchor-2" 750 1170 basechar 0
LayerCount: 2
Fore
SplineSet
440 0 m 2,0,-1
 106 0 l 2,1,2
 12 0 12 0 -39 51 c 0,3,4
 -84 98 -84 98 -113 199 c 1,5,-1
 127 199 l 1,6,7
 152 219 152 219 164 231 c 0,8,9
 174 238 174 238 199 262 c 0,10,11
 221 287 221 287 229.5 297 c 128,-1,12
 238 307 238 307 242 317 c 2,13,-1
 279 397 l 1,14,15
 279 508 279 508 266 629 c 0,16,17
 258 698 258 698 235.5 851 c 128,-1,18
 213 1004 213 1004 209 1055 c 0,19,20
 199 1151 199 1151 188 1192 c 0,21,22
 188 1202 188 1202 170 1270 c 1,23,-1
 295 1434 l 1,24,25
 309 1354 309 1354 311 1350 c 0,26,27
 324 1307 324 1307 369 1190 c 0,28,29
 393 1128 393 1128 401 1094 c 0,30,31
 406 1073 406 1073 406 1053 c 1,32,-1
 383 1016 l 1,33,-1
 332 1053 l 1,34,35
 332 1024 332 1024 340 979 c 0,36,37
 354 860 354 860 354 782 c 1,38,39
 358 721 358 721 363.5 644 c 128,-1,40
 369 567 369 567 369 528 c 0,41,42
 369 518 369 518 364.5 486.5 c 128,-1,43
 360 455 360 455 360 432 c 1,44,45
 455 551 455 551 551 618 c 0,46,47
 639 680 639 680 702 680 c 0,48,49
 840 680 840 680 973 578 c 0,50,51
 1104 477 1104 477 1104 377 c 0,52,53
 1104 311 1104 311 1065 223 c 0,54,55
 1032 150 1032 150 1008 125 c 1,56,57
 936 84 936 84 881 61 c 0,58,59
 803 33 803 33 697.5 16.5 c 128,-1,60
 592 0 592 0 440 0 c 2,0,-1
1004 287 m 1,61,62
 930 420 930 420 834 483 c 0,63,64
 748 543 748 543 662 543 c 1,65,66
 598 530 598 530 586 526 c 0,67,68
 561 516 561 516 506 475 c 1,69,70
 469 442 469 442 389 354 c 0,71,72
 299 256 299 256 244 184 c 1,73,-1
 651 186 l 2,74,75
 727 186 727 186 838.5 218 c 128,-1,76
 950 250 950 250 1004 287 c 1,61,62
EndSplineSet
EndChar

StartChar: afii57433
Encoding: 1593 1593 222
Width: 846
GlyphClass: 2
Flags: W
AnchorPoint: "Anchor-3" 315 -1035 basechar 0
AnchorPoint: "Anchor-2" 360 1110 basechar 0
LayerCount: 2
Fore
SplineSet
770 369 m 1,0,1
 561 369 561 369 401 268 c 0,2,3
 270 186 270 186 195 57 c 0,4,5
 127 -53 127 -53 127 -135 c 0,6,7
 127 -250 127 -250 258 -344 c 1,8,9
 397 -451 397 -451 666 -512 c 0,10,11
 717 -524 717 -524 723 -524 c 0,12,13
 754 -532 754 -532 752 -541 c 0,14,15
 752 -545 752 -545 724 -550 c 128,-1,16
 696 -555 696 -555 659 -555 c 0,17,18
 434 -555 434 -555 317 -539 c 0,19,20
 176 -518 176 -518 109 -465 c 0,21,22
 35 -410 35 -410 14 -303 c 0,23,24
 8 -262 8 -262 8 -223 c 0,25,26
 8 -78 8 -78 88 76 c 0,27,28
 162 219 162 219 272 309 c 1,29,30
 152 334 152 334 90 389 c 0,31,32
 41 434 41 434 41 483 c 1,33,-1
 45 500 l 1,34,35
 84 684 84 684 152 739 c 0,36,37
 225 799 225 799 428 799 c 2,38,-1
 455 799 l 2,39,40
 512 799 512 799 539 809 c 0,41,42
 582 823 582 823 586 861 c 128,-1,43
 590 899 590 899 598 918.5 c 128,-1,44
 606 938 606 938 614 938 c 0,45,46
 627 938 627 938 629 907 c 0,47,48
 629 901 629 901 639 860 c 0,49,50
 641 844 641 844 641 834 c 0,51,52
 641 823 641 823 639 803 c 0,53,54
 629 762 629 762 629 754 c 0,55,56
 625 715 625 715 590 692 c 0,57,58
 565 674 565 674 543 674 c 1,59,60
 500 664 500 664 469 658.5 c 128,-1,61
 438 653 438 653 406 653 c 0,62,63
 307 653 307 653 238 629 c 0,64,65
 180 606 180 606 158 573 c 1,66,67
 213 506 213 506 270 477 c 0,68,69
 346 434 346 434 446 434 c 1,70,71
 545 500 545 500 649 541 c 0,72,73
 733 575 733 575 797 588 c 1,74,-1
 770 369 l 1,0,1
EndSplineSet
Substitution2: "'medi' Medial Forms in Arabic lookup 3 subtable" afii62803
Substitution2: "'fina' Terminal Forms in Arabic lookup 2 subtable" afii62804
Substitution2: "'init' Initial Forms in Arabic lookup 1 subtable" afii62802
EndChar

StartChar: afii62804
Encoding: 65226 65226 223
Width: 870
GlyphClass: 2
Flags: W
AnchorPoint: "Anchor-3" 345 -975 basechar 0
AnchorPoint: "Anchor-2" 405 975 basechar 0
LayerCount: 2
Fore
SplineSet
47 -293 m 0,0,1
 39 -268 39 -268 37 -239.5 c 128,-1,2
 35 -211 35 -211 35 -180 c 0,3,4
 35 -33 35 -33 121 102 c 1,5,6
 199 233 199 233 340 330 c 1,7,8
 201 426 201 426 88 426 c 0,9,10
 66 426 66 426 50.5 423 c 128,-1,11
 35 420 35 420 2 414 c 1,12,13
 14 465 14 465 27.5 516 c 128,-1,14
 41 567 41 567 61 602 c 1,15,16
 121 647 121 647 222.5 673.5 c 128,-1,17
 324 700 324 700 446 700 c 0,18,19
 598 700 598 700 705 668 c 0,20,21
 788 643 788 643 887 586 c 1,22,23
 874 543 874 543 860 492 c 0,24,25
 844 422 844 422 840 414 c 1,26,27
 772 391 772 391 725 373 c 0,28,29
 655 346 655 346 602 315 c 1,30,31
 616 287 616 287 640 260 c 128,-1,32
 664 233 664 233 690.5 220 c 128,-1,33
 717 207 717 207 737.5 203 c 128,-1,34
 758 199 758 199 791 199 c 2,35,-1
 936 199 l 1,36,-1
 936 0 l 1,37,38
 735 0 735 0 627 57 c 0,39,40
 526 109 526 109 469 233 c 1,41,42
 342 170 342 170 250 63 c 0,43,44
 158 -45 158 -45 158 -135 c 0,45,46
 158 -250 158 -250 292 -336 c 128,-1,47
 426 -422 426 -422 702 -483 c 0,48,49
 745 -496 745 -496 761.5 -504 c 128,-1,50
 778 -512 778 -512 778 -518 c 0,51,52
 778 -530 778 -530 750.5 -536.5 c 128,-1,53
 723 -543 723 -543 688 -543 c 0,54,55
 438 -543 438 -543 332 -528 c 0,56,57
 199 -512 199 -512 137.5 -460 c 128,-1,58
 76 -408 76 -408 47 -293 c 0,0,1
500 418 m 1,59,60
 526 426 526 426 588 455 c 0,61,62
 618 469 618 469 674 496 c 1,63,64
 625 530 625 530 566.5 547.5 c 128,-1,65
 508 565 508 565 446 565 c 0,66,67
 397 565 397 565 354 554 c 128,-1,68
 311 543 311 543 279 520 c 1,69,70
 354 500 354 500 406 475 c 0,71,72
 446 455 446 455 500 418 c 1,59,60
EndSplineSet
EndChar

StartChar: afii62802
Encoding: 65227 65227 224
Width: 1032
GlyphClass: 2
Flags: W
AnchorPoint: "Anchor-3" 435 -480 basechar 0
AnchorPoint: "Anchor-2" 435 1095 basechar 0
LayerCount: 2
Fore
SplineSet
162 199 m 2,0,1
 174 199 174 199 186.5 199 c 128,-1,2
 199 199 199 199 211 199 c 0,3,4
 256 199 256 199 281.5 202 c 128,-1,5
 307 205 307 205 332 217 c 1,6,7
 231 266 231 266 182 332 c 0,8,9
 139 389 139 389 139 455 c 0,10,11
 139 479 139 479 162 526 c 0,12,13
 221 639 221 639 268 680 c 0,14,15
 309 717 309 717 369 717 c 1,16,17
 426 711 426 711 495.5 701.5 c 128,-1,18
 565 692 565 692 623 692 c 1,19,-1
 643 690 l 2,20,21
 666 690 666 690 685.5 696 c 128,-1,22
 705 702 705 702 725 715 c 0,23,24
 813 766 813 766 819 791 c 0,25,26
 821 811 821 811 827.5 821 c 128,-1,27
 834 831 834 831 840 831 c 0,28,29
 850 831 850 831 857 819 c 128,-1,30
 864 807 864 807 862 791 c 0,31,32
 846 672 846 672 790.5 610.5 c 128,-1,33
 735 549 735 549 651 549 c 1,34,-1
 625 551 l 2,35,36
 586 555 586 555 555 557 c 0,37,38
 455 569 455 569 381 569 c 0,39,40
 367 569 367 569 336 567 c 128,-1,41
 305 565 305 565 287 565 c 1,42,43
 287 530 287 530 322 475 c 0,44,45
 365 408 365 408 426 358 c 1,46,47
 502 303 502 303 588 287 c 1,48,-1
 594 287 l 2,49,50
 614 287 614 287 676 303 c 0,51,52
 741 319 741 319 809 336 c 0,53,54
 897 356 897 356 971 369 c 0,55,56
 973 369 973 369 977 370 c 128,-1,57
 981 371 981 371 983 371 c 0,58,59
 997 371 997 371 1010.5 361.5 c 128,-1,60
 1024 352 1024 352 1024 336 c 1,61,62
 1020 322 1020 322 984 253 c 128,-1,63
 948 184 948 184 936 162 c 1,64,65
 905 170 905 170 874 170 c 0,66,67
 831 170 831 170 639 121 c 1,68,69
 526 76 526 76 408 47 c 0,70,71
 311 23 311 23 223 10 c 0,72,73
 152 0 152 0 102 0 c 0,74,75
 16 0 16 0 -35 51 c 0,76,77
 -84 100 -84 100 -113 199 c 1,78,-1
 162 199 l 2,0,1
EndSplineSet
EndChar

StartChar: afii62803
Encoding: 65228 65228 225
Width: 997
GlyphClass: 2
Flags: W
AnchorPoint: "Anchor-3" 435 -525 basechar 0
AnchorPoint: "Anchor-2" 480 960 basechar 0
LayerCount: 2
Fore
SplineSet
1141 199 m 1,0,-1
 1141 2 l 1,1,2
 786 2 786 2 696 51 c 0,3,4
 649 76 649 76 612 119 c 0,5,6
 580 152 580 152 551 201 c 1,7,8
 520 184 520 184 501.5 171 c 128,-1,9
 483 158 483 158 467 143 c 0,10,11
 358 61 358 61 291 33 c 0,12,13
 211 0 211 0 106 0 c 0,14,15
 12 0 12 0 -39 51 c 0,16,17
 -84 98 -84 98 -113 199 c 1,18,-1
 111 199 l 1,19,20
 199 211 199 211 267.5 238.5 c 128,-1,21
 336 266 336 266 428 330 c 1,22,23
 348 379 348 379 248 397 c 0,24,25
 174 414 174 414 90 414 c 1,26,27
 94 420 94 420 102 516 c 1,28,29
 111 567 111 567 127 594 c 1,30,31
 199 641 199 641 299 668 c 0,32,33
 410 700 410 700 532 700 c 0,34,35
 680 700 680 700 801 664 c 0,36,37
 895 635 895 635 967 586 c 1,38,39
 958 543 958 543 940 479.5 c 128,-1,40
 922 416 922 416 920 403 c 1,41,42
 872 397 872 397 811 372.5 c 128,-1,43
 750 348 750 348 686 309 c 1,44,45
 696 283 696 283 720.5 259.5 c 128,-1,46
 745 236 745 236 784 213 c 1,47,48
 811 205 811 205 834.5 202 c 128,-1,49
 858 199 858 199 926 199 c 2,50,-1
 1141 199 l 1,0,-1
580 406 m 1,51,52
 602 414 602 414 647 434 c 1,53,54
 711 469 711 469 762 496 c 1,55,56
 713 528 713 528 652.5 542.5 c 128,-1,57
 592 557 592 557 532 557 c 0,58,59
 483 557 483 557 443 548 c 128,-1,60
 403 539 403 539 377 520 c 1,61,62
 438 502 438 502 502 463 c 0,63,64
 551 432 551 432 580 406 c 1,51,52
EndSplineSet
EndChar

StartChar: afii57443
Encoding: 1603 1603 238
Width: 1280
GlyphClass: 2
Flags: W
AnchorPoint: "Anchor-3" 615 -480 basechar 0
AnchorPoint: "Anchor-2" 570 1320 basechar 0
LayerCount: 2
Fore
SplineSet
397 199 m 2,0,-1
 936 199 l 2,1,2
 1018 199 1018 199 1044 201 c 0,3,4
 1092 209 1092 209 1130 229 c 1,5,6
 1126 254 1126 254 1118 298 c 128,-1,7
 1110 342 1110 342 1104 416 c 0,8,9
 1092 514 1092 514 1083 580 c 0,10,11
 1069 709 1069 709 1061 784 c 0,12,13
 1049 868 1049 868 1040 954 c 0,14,15
 1032 1016 1032 1016 1022 1106 c 0,16,17
 1022 1114 1022 1114 1016 1160 c 128,-1,18
 1010 1206 1010 1206 995 1280 c 1,19,-1
 1130 1448 l 1,20,21
 1139 1368 1139 1368 1173.5 1238 c 128,-1,22
 1208 1108 1208 1108 1241 1044 c 0,23,24
 1245 1030 1245 1030 1245 1024 c 0,25,26
 1241 1010 1241 1010 1227 1010 c 0,27,28
 1219 1010 1219 1010 1206 1018 c 0,29,30
 1200 1024 1200 1024 1190 1028 c 0,31,32
 1159 1044 1159 1044 1155 1047 c 1,33,34
 1155 997 1155 997 1165.5 921.5 c 128,-1,35
 1176 846 1176 846 1184 766 c 2,36,-1
 1221 381 l 1,37,38
 1221 283 1221 283 1219 226.5 c 128,-1,39
 1217 170 1217 170 1208.5 124 c 128,-1,40
 1200 78 1200 78 1177.5 51.5 c 128,-1,41
 1155 25 1155 25 1093.5 12.5 c 128,-1,42
 1032 0 1032 0 958 0 c 2,43,-1
 340 0 l 2,44,45
 197 0 197 0 111 96 c 0,46,47
 27 188 27 188 27 330 c 0,48,49
 27 395 27 395 46.5 461.5 c 128,-1,50
 66 528 66 528 106 592 c 1,51,52
 133 627 133 627 152 627 c 0,53,54
 168 627 168 627 168 602 c 0,55,56
 168 592 168 592 165 585 c 128,-1,57
 162 578 162 578 158 565 c 0,58,59
 121 479 121 479 121 406 c 0,60,61
 121 307 121 307 193.5 253 c 128,-1,62
 266 199 266 199 397 199 c 2,0,-1
426 586 m 1,63,-1
 442 688 l 1,64,65
 459 700 459 700 491.5 719.5 c 128,-1,66
 524 739 524 739 537 748 c 1,67,68
 487 770 487 770 459.5 798.5 c 128,-1,69
 432 827 432 827 428 864 c 0,70,71
 428 870 428 870 427 879.5 c 128,-1,72
 426 889 426 889 426 897 c 0,73,74
 426 956 426 956 453.5 990 c 128,-1,75
 481 1024 481 1024 528 1024 c 0,76,77
 543 1024 543 1024 554 1022 c 128,-1,78
 565 1020 565 1020 580 1016 c 0,79,80
 612 1004 612 1004 638 997.5 c 128,-1,81
 664 991 664 991 680 991 c 0,82,83
 702 991 702 991 712.5 999.5 c 128,-1,84
 723 1008 723 1008 725 1026 c 128,-1,85
 727 1044 727 1044 732 1055.5 c 128,-1,86
 737 1067 737 1067 739 1065 c 0,87,88
 748 1059 748 1059 748 1024 c 1,89,90
 739 983 739 983 735 973 c 0,91,92
 723 948 723 948 702 944 c 1,93,94
 684 936 684 936 669.5 934 c 128,-1,95
 655 932 655 932 641 932 c 0,96,97
 623 932 623 932 581 939 c 128,-1,98
 539 946 539 946 520 948 c 0,99,100
 504 950 504 950 492.5 937 c 128,-1,101
 481 924 481 924 481 907 c 0,102,103
 481 895 481 895 489 887 c 0,104,105
 518 852 518 852 565 827.5 c 128,-1,106
 612 803 612 803 659 799 c 1,107,-1
 844 905 l 1,108,-1
 803 791 l 1,109,110
 762 774 762 774 698 745 c 0,111,112
 625 709 625 709 557 668 c 0,113,114
 477 625 477 625 426 586 c 1,63,-1
EndSplineSet
Substitution2: "'medi' Medial Forms in Arabic lookup 3 subtable" afii52306
Substitution2: "'fina' Terminal Forms in Arabic lookup 2 subtable" afii62816
Substitution2: "'init' Initial Forms in Arabic lookup 1 subtable" afii52305
EndChar

StartChar: afii62816
Encoding: 65242 65242 239
Width: 1280
GlyphClass: 2
Flags: W
AnchorPoint: "Anchor-3" 630 -465 basechar 0
AnchorPoint: "Anchor-2" 585 1320 basechar 0
LayerCount: 2
Fore
SplineSet
397 199 m 2,0,-1
 936 199 l 2,1,2
 1018 199 1018 199 1044 201 c 0,3,4
 1092 209 1092 209 1130 229 c 1,5,6
 1126 254 1126 254 1118 298 c 128,-1,7
 1110 342 1110 342 1104 416 c 0,8,9
 1092 514 1092 514 1083 580 c 0,10,11
 1069 709 1069 709 1061 784 c 0,12,13
 1049 868 1049 868 1040 954 c 0,14,15
 1032 1016 1032 1016 1022 1106 c 0,16,17
 1022 1114 1022 1114 1016 1160 c 128,-1,18
 1010 1206 1010 1206 995 1280 c 1,19,-1
 1130 1448 l 1,20,21
 1139 1368 1139 1368 1173.5 1238 c 128,-1,22
 1208 1108 1208 1108 1241 1044 c 0,23,24
 1245 1030 1245 1030 1245 1024 c 0,25,26
 1241 1010 1241 1010 1227 1010 c 0,27,28
 1219 1010 1219 1010 1206 1018 c 0,29,30
 1200 1024 1200 1024 1190 1028 c 0,31,32
 1159 1044 1159 1044 1155 1047 c 1,33,34
 1155 997 1155 997 1165.5 921.5 c 128,-1,35
 1176 846 1176 846 1184 766 c 2,36,-1
 1221 381 l 1,37,38
 1221 283 1221 283 1219 226.5 c 128,-1,39
 1217 170 1217 170 1208.5 124 c 128,-1,40
 1200 78 1200 78 1177.5 51.5 c 128,-1,41
 1155 25 1155 25 1093.5 12.5 c 128,-1,42
 1032 0 1032 0 958 0 c 2,43,-1
 340 0 l 2,44,45
 197 0 197 0 111 96 c 0,46,47
 27 188 27 188 27 330 c 0,48,49
 27 395 27 395 46.5 461.5 c 128,-1,50
 66 528 66 528 106 592 c 1,51,52
 133 627 133 627 152 627 c 0,53,54
 168 627 168 627 168 602 c 0,55,56
 168 592 168 592 165 585 c 128,-1,57
 162 578 162 578 158 565 c 0,58,59
 121 479 121 479 121 406 c 0,60,61
 121 307 121 307 193.5 253 c 128,-1,62
 266 199 266 199 397 199 c 2,0,-1
426 586 m 1,63,-1
 442 688 l 1,64,65
 459 700 459 700 491.5 719.5 c 128,-1,66
 524 739 524 739 537 748 c 1,67,68
 487 770 487 770 459.5 798.5 c 128,-1,69
 432 827 432 827 428 864 c 0,70,71
 428 870 428 870 427 879.5 c 128,-1,72
 426 889 426 889 426 897 c 0,73,74
 426 956 426 956 453.5 990 c 128,-1,75
 481 1024 481 1024 528 1024 c 0,76,77
 543 1024 543 1024 554 1022 c 128,-1,78
 565 1020 565 1020 580 1016 c 0,79,80
 612 1004 612 1004 638 997.5 c 128,-1,81
 664 991 664 991 680 991 c 0,82,83
 702 991 702 991 712.5 999.5 c 128,-1,84
 723 1008 723 1008 725 1026 c 128,-1,85
 727 1044 727 1044 732 1055.5 c 128,-1,86
 737 1067 737 1067 739 1065 c 0,87,88
 748 1059 748 1059 748 1024 c 1,89,90
 739 983 739 983 735 973 c 0,91,92
 723 948 723 948 702 944 c 1,93,94
 684 936 684 936 669.5 934 c 128,-1,95
 655 932 655 932 641 932 c 0,96,97
 623 932 623 932 581 939 c 128,-1,98
 539 946 539 946 520 948 c 0,99,100
 504 950 504 950 492.5 937 c 128,-1,101
 481 924 481 924 481 907 c 0,102,103
 481 895 481 895 489 887 c 0,104,105
 518 852 518 852 565 827.5 c 128,-1,106
 612 803 612 803 659 799 c 1,107,-1
 844 905 l 1,108,-1
 803 791 l 1,109,110
 762 774 762 774 698 745 c 0,111,112
 625 709 625 709 557 668 c 0,113,114
 477 625 477 625 426 586 c 1,63,-1
EndSplineSet
EndChar

StartChar: afii57444
Encoding: 1604 1604 242
Width: 1104
GlyphClass: 2
Flags: W
AnchorPoint: "Anchor-3" 495 -735 basechar 0
AnchorPoint: "Anchor-2" 690 1425 basechar 0
LayerCount: 2
Fore
SplineSet
1034 477 m 1,0,-1
 1055 303 l 2,1,2
 1067 186 1067 186 1067 139 c 0,3,4
 1067 47 1067 47 1032 -2 c 0,5,6
 993 -63 993 -63 864 -143 c 0,7,8
 739 -219 739 -219 610 -261 c 128,-1,9
 481 -303 481 -303 360 -303 c 0,10,11
 180 -303 180 -303 98 -223 c 0,12,13
 23 -147 23 -147 23 10 c 0,14,15
 23 106 23 106 44.5 215 c 128,-1,16
 66 324 66 324 96 395 c 0,17,18
 102 414 102 414 114.5 422 c 128,-1,19
 127 430 127 430 137 430 c 0,20,21
 160 426 160 426 160 403 c 1,22,-1
 156 383 l 1,23,24
 127 303 127 303 118 249 c 128,-1,25
 109 195 109 195 109 152 c 0,26,27
 109 143 109 143 110 124.5 c 128,-1,28
 111 106 111 106 111 98 c 0,29,30
 111 -10 111 -10 195 -61 c 1,31,32
 268 -111 268 -111 403 -111 c 0,33,34
 541 -111 541 -111 705.5 -50.5 c 128,-1,35
 870 10 870 10 981 98 c 1,36,37
 981 156 981 156 956 334 c 0,38,39
 944 446 944 446 901 792.5 c 128,-1,40
 858 1139 858 1139 851 1182 c 128,-1,41
 844 1225 844 1225 834 1266 c 1,42,-1
 967 1434 l 1,43,44
 971 1380 971 1380 983 1311.5 c 128,-1,45
 995 1243 995 1243 1004 1219 c 0,46,47
 1020 1178 1020 1178 1036.5 1134 c 128,-1,48
 1053 1090 1053 1090 1061 1061 c 2,49,-1
 1065 1049 l 1,50,51
 1065 1024 1065 1024 1047 1024 c 1,52,53
 1036 1028 1036 1028 1022 1036 c 0,54,55
 1006 1049 1006 1049 985 1069 c 1,56,57
 985 999 985 999 999 887 c 1,58,-1
 1034 477 l 1,0,-1
EndSplineSet
Substitution2: "'medi' Medial Forms in Arabic lookup 3 subtable" afii62818
Substitution2: "'fina' Terminal Forms in Arabic lookup 2 subtable" afii62819
Substitution2: "'init' Initial Forms in Arabic lookup 1 subtable" afii62817
EndChar

StartChar: afii62817
Encoding: 65247 65247 243
Width: 487
GlyphClass: 2
Flags: W
AnchorPoint: "Anchor-3" 120 -510 basechar 0
AnchorPoint: "Anchor-2" 240 1515 basechar 0
LayerCount: 2
Fore
SplineSet
125 199 m 2,0,1
 209 199 209 199 236 201 c 0,2,3
 281 209 281 209 317 229 c 1,4,5
 307 291 307 291 299 352 c 0,6,7
 285 455 285 455 186 1280 c 1,8,-1
 317 1448 l 1,9,10
 328 1366 328 1366 361.5 1237 c 128,-1,11
 395 1108 395 1108 428 1044 c 0,12,13
 430 1040 430 1040 431 1034 c 128,-1,14
 432 1028 432 1028 432 1022 c 0,15,16
 432 1010 432 1010 418 1010 c 0,17,18
 410 1010 410 1010 397 1018 c 0,19,20
 381 1028 381 1028 373 1032 c 0,21,22
 356 1040 356 1040 346 1047 c 1,23,24
 346 979 346 979 358 885 c 2,25,-1
 414 381 l 1,26,27
 414 236 414 236 408 180 c 0,28,29
 397 88 397 88 367 51 c 0,30,31
 346 25 346 25 283.5 12.5 c 128,-1,32
 221 0 221 0 150 0 c 2,33,-1
 106 0 l 2,34,35
 12 0 12 0 -39 51 c 0,36,37
 -84 98 -84 98 -113 199 c 1,38,-1
 125 199 l 2,0,1
EndSplineSet
EndChar

StartChar: afii62818
Encoding: 65248 65248 244
Width: 512
GlyphClass: 2
Flags: W
AnchorPoint: "Anchor-3" 135 -510 basechar 0
AnchorPoint: "Anchor-2" 150 1530 basechar 0
LayerCount: 2
Fore
SplineSet
106 0 m 0,0,1
 12 0 12 0 -39 51 c 0,2,3
 -84 98 -84 98 -113 199 c 1,4,-1
 125 199 l 2,5,6
 209 199 209 199 236 201 c 0,7,8
 281 209 281 209 317 229 c 1,9,10
 307 291 307 291 299 352 c 0,11,12
 285 455 285 455 273.5 570.5 c 128,-1,13
 262 686 262 686 250 785.5 c 128,-1,14
 238 885 238 885 186 1280 c 1,15,-1
 317 1448 l 1,16,17
 328 1366 328 1366 361.5 1237 c 128,-1,18
 395 1108 395 1108 428 1044 c 0,19,20
 430 1040 430 1040 431 1034 c 128,-1,21
 432 1028 432 1028 432 1022 c 0,22,23
 432 1010 432 1010 418 1010 c 0,24,25
 410 1010 410 1010 397 1018 c 0,26,27
 381 1028 381 1028 373 1032 c 0,28,29
 356 1040 356 1040 346 1047 c 1,30,31
 346 979 346 979 358 885 c 0,32,33
 360 862 360 862 377 766 c 1,34,-1
 414 381 l 1,35,36
 414 236 414 236 408 180 c 0,37,38
 397 88 397 88 367 51 c 0,39,40
 346 25 346 25 271.5 12.5 c 128,-1,41
 197 0 197 0 106 0 c 0,0,1
EndSplineSet
EndChar

StartChar: afii57445
Encoding: 1605 1605 245
Width: 973
GlyphClass: 2
Flags: W
AnchorPoint: "Anchor-3" 465 -570 basechar 0
AnchorPoint: "Anchor-2" 405 870 basechar 0
LayerCount: 2
Fore
SplineSet
106 47 m 0,0,1
 233 133 233 133 334 246 c 0,2,3
 420 346 420 346 442 414 c 1,4,5
 453 408 453 408 459 401.5 c 128,-1,6
 465 395 465 395 469 389 c 1,7,8
 483 426 483 426 507.5 473 c 128,-1,9
 532 520 532 520 551 543 c 0,10,11
 592 590 592 590 628 609.5 c 128,-1,12
 664 629 664 629 702 629 c 1,13,14
 766 616 766 616 801 586 c 0,15,16
 823 565 823 565 864 500 c 0,17,18
 897 444 897 444 920.5 367.5 c 128,-1,19
 944 291 944 291 944 229 c 0,20,21
 944 201 944 201 935 138.5 c 128,-1,22
 926 76 926 76 913 39 c 0,23,24
 909 25 909 25 893 10.5 c 128,-1,25
 877 -4 877 -4 868 -2 c 2,26,-1
 864 -2 l 1,27,28
 764 14 764 14 672 61 c 0,29,30
 592 100 592 100 453 201 c 1,31,32
 389 88 389 88 324 25 c 0,33,34
 270 -27 270 -27 209 -53 c 0,35,36
 160 -76 160 -76 92.5 -87 c 128,-1,37
 25 -98 25 -98 -37 -98 c 0,38,39
 -123 -98 -123 -98 -158 -84 c 1,40,41
 -94 -63 -94 -63 -35 -35 c 0,42,43
 29 -4 29 -4 106 47 c 0,0,1
528 352 m 1,44,45
 590 297 590 297 678 250 c 0,46,47
 776 199 776 199 831 199 c 0,48,49
 844 201 844 201 848 201 c 1,50,51
 840 229 840 229 825 270 c 0,52,53
 807 322 807 322 784.5 369 c 128,-1,54
 762 416 762 416 752 426 c 0,55,56
 723 463 723 463 674 463 c 0,57,58
 641 463 641 463 598 428 c 0,59,60
 561 397 561 397 528 352 c 1,44,45
EndSplineSet
Substitution2: "'medi' Medial Forms in Arabic lookup 3 subtable" afii62821
Substitution2: "'fina' Terminal Forms in Arabic lookup 2 subtable" afii62822
Substitution2: "'init' Initial Forms in Arabic lookup 1 subtable" afii62820
EndChar

StartChar: afii62822
Encoding: 65250 65250 246
Width: 997
GlyphClass: 2
Flags: W
AnchorPoint: "Anchor-3" 495 -495 basechar 0
AnchorPoint: "Anchor-2" 465 885 basechar 0
LayerCount: 2
Fore
SplineSet
106 47 m 0,0,1
 233 133 233 133 334 246 c 0,2,3
 420 346 420 346 442 414 c 1,4,5
 453 408 453 408 459 401.5 c 128,-1,6
 465 395 465 395 469 389 c 1,7,8
 483 426 483 426 507.5 473 c 128,-1,9
 532 520 532 520 551 543 c 0,10,11
 592 590 592 590 628 609.5 c 128,-1,12
 664 629 664 629 702 629 c 1,13,14
 766 616 766 616 801 586 c 0,15,16
 823 565 823 565 864 500 c 0,17,18
 897 444 897 444 920.5 367.5 c 128,-1,19
 944 291 944 291 944 229 c 0,20,21
 944 201 944 201 935 138.5 c 128,-1,22
 926 76 926 76 913 39 c 0,23,24
 909 25 909 25 893 10.5 c 128,-1,25
 877 -4 877 -4 868 -2 c 2,26,-1
 864 -2 l 1,27,28
 764 14 764 14 672 61 c 0,29,30
 592 100 592 100 453 201 c 1,31,32
 389 88 389 88 324 25 c 0,33,34
 270 -27 270 -27 209 -53 c 0,35,36
 160 -76 160 -76 92.5 -87 c 128,-1,37
 25 -98 25 -98 -37 -98 c 0,38,39
 -123 -98 -123 -98 -158 -84 c 1,40,41
 -94 -63 -94 -63 -35 -35 c 0,42,43
 29 -4 29 -4 106 47 c 0,0,1
528 352 m 1,44,45
 590 297 590 297 678 250 c 0,46,47
 776 199 776 199 831 199 c 0,48,49
 844 201 844 201 848 201 c 1,50,51
 840 229 840 229 825 270 c 0,52,53
 807 322 807 322 784.5 369 c 128,-1,54
 762 416 762 416 752 426 c 0,55,56
 723 463 723 463 674 463 c 0,57,58
 641 463 641 463 598 428 c 0,59,60
 561 397 561 397 528 352 c 1,44,45
EndSplineSet
EndChar

StartChar: afii62820
Encoding: 65251 65251 247
Width: 997
GlyphClass: 2
Flags: W
AnchorPoint: "Anchor-3" 345 -510 basechar 0
AnchorPoint: "Anchor-2" 450 870 basechar 0
LayerCount: 2
Fore
SplineSet
201 199 m 2,0,1
 246 199 246 199 272 209 c 0,2,3
 291 217 291 217 336 250 c 1,4,5
 367 281 367 281 393 324 c 0,6,7
 422 373 422 373 432 420 c 1,8,9
 440 410 440 410 454.5 397.5 c 128,-1,10
 469 385 469 385 475 381 c 1,11,12
 512 506 512 506 586 575 c 0,13,14
 641 629 641 629 692 629 c 2,15,-1
 702 629 l 1,16,17
 770 616 770 616 803 586 c 0,18,19
 825 563 825 563 864 500 c 0,20,21
 897 444 897 444 920.5 367.5 c 128,-1,22
 944 291 944 291 944 229 c 2,23,-1
 944 201 l 2,24,25
 944 168 944 168 932 113 c 0,26,27
 932 109 932 109 913 39 c 0,28,29
 905 23 905 23 899 16 c 0,30,31
 889 8 889 8 872 -2 c 1,32,33
 772 12 772 12 727 23 c 0,34,35
 643 45 643 45 582 82 c 0,36,37
 508 127 508 127 455 209 c 1,38,39
 401 109 401 109 307 49 c 0,40,41
 225 0 225 0 162 0 c 2,42,-1
 106 0 l 2,43,44
 12 0 12 0 -39 51 c 0,45,46
 -84 98 -84 98 -113 199 c 1,47,-1
 201 199 l 2,0,1
532 330 m 1,48,49
 590 279 590 279 680 229 c 0,50,51
 778 176 778 176 834 176 c 1,52,53
 846 180 846 180 850 180 c 1,54,55
 844 219 844 219 823 272 c 0,56,57
 807 311 807 311 788 354 c 0,58,59
 770 397 770 397 752 416 c 0,60,61
 725 442 725 442 674 442 c 0,62,63
 653 442 653 442 618 420 c 0,64,65
 567 385 567 385 532 330 c 1,48,49
EndSplineSet
EndChar

StartChar: afii57446
Encoding: 1606 1606 248
Width: 1073
GlyphClass: 2
Flags: W
AnchorPoint: "Anchor-3" 480 -810 basechar 0
AnchorPoint: "Anchor-2" 435 885 basechar 0
LayerCount: 2
Fore
SplineSet
430 582 m 1,0,-1
 598 471 l 1,1,-1
 500 322 l 1,2,-1
 327 436 l 1,3,-1
 430 582 l 1,0,-1
1018 383 m 0,4,5
 1022 377 1022 377 1026 368.5 c 128,-1,6
 1030 360 1030 360 1030 356 c 0,7,8
 1030 342 1030 342 1012 342 c 0,9,10
 993 342 993 342 958 369 c 1,11,12
 979 293 979 293 995 213 c 0,13,14
 1018 121 1018 121 1018 102 c 2,15,-1
 1018 25 l 1,16,17
 999 -51 999 -51 963 -100 c 0,18,19
 922 -158 922 -158 825 -217 c 0,20,21
 705 -285 705 -285 596 -318.5 c 128,-1,22
 487 -352 487 -352 360 -352 c 0,23,24
 180 -352 180 -352 98 -274 c 0,25,26
 23 -201 23 -201 23 -39 c 0,27,28
 23 37 23 37 49.5 154.5 c 128,-1,29
 76 272 76 272 106 340 c 0,30,31
 125 381 125 381 152 381 c 0,32,33
 164 381 164 381 164 358 c 0,34,35
 164 346 164 346 162 340 c 0,36,37
 123 205 123 205 110.5 150.5 c 128,-1,38
 98 96 98 96 98 47 c 0,39,40
 106 -53 106 -53 197 -109 c 0,41,42
 281 -158 281 -158 403 -158 c 0,43,44
 537 -158 537 -158 680 -102 c 1,45,46
 836 -47 836 -47 934 47 c 1,47,48
 797 453 797 453 782 469 c 1,49,50
 807 504 807 504 831.5 541 c 128,-1,51
 856 578 856 578 864 600 c 1,52,53
 930 504 930 504 961 459 c 0,54,55
 997 410 997 410 1018 383 c 0,4,5
EndSplineSet
Substitution2: "'medi' Medial Forms in Arabic lookup 3 subtable" afii62824
Substitution2: "'fina' Terminal Forms in Arabic lookup 2 subtable" afii62825
Substitution2: "'init' Initial Forms in Arabic lookup 1 subtable" afii62823
EndChar

StartChar: afii62825
Encoding: 65254 65254 249
Width: 1073
GlyphClass: 2
Flags: W
AnchorPoint: "Anchor-3" 540 -810 basechar 0
AnchorPoint: "Anchor-2" 465 780 basechar 0
LayerCount: 2
Fore
SplineSet
452 496 m 1,0,-1
 620 385 l 1,1,-1
 522 236 l 1,2,-1
 349 350 l 1,3,-1
 452 496 l 1,0,-1
1018 383 m 0,4,5
 1022 377 1022 377 1026 368.5 c 128,-1,6
 1030 360 1030 360 1030 356 c 0,7,8
 1030 342 1030 342 1012 342 c 0,9,10
 993 342 993 342 958 369 c 1,11,12
 979 293 979 293 995 213 c 0,13,14
 1018 121 1018 121 1018 102 c 2,15,-1
 1018 25 l 1,16,17
 999 -51 999 -51 963 -100 c 0,18,19
 922 -158 922 -158 825 -217 c 0,20,21
 705 -285 705 -285 596 -318.5 c 128,-1,22
 487 -352 487 -352 360 -352 c 0,23,24
 180 -352 180 -352 98 -274 c 0,25,26
 23 -201 23 -201 23 -39 c 0,27,28
 23 37 23 37 49.5 154.5 c 128,-1,29
 76 272 76 272 106 340 c 0,30,31
 125 381 125 381 152 381 c 0,32,33
 164 381 164 381 164 358 c 0,34,35
 164 346 164 346 162 340 c 0,36,37
 123 205 123 205 110.5 150.5 c 128,-1,38
 98 96 98 96 98 47 c 0,39,40
 106 -53 106 -53 197 -109 c 0,41,42
 281 -158 281 -158 403 -158 c 0,43,44
 537 -158 537 -158 680 -102 c 1,45,46
 836 -47 836 -47 934 47 c 1,47,48
 797 453 797 453 782 469 c 1,49,50
 807 504 807 504 831.5 541 c 128,-1,51
 856 578 856 578 864 600 c 1,52,53
 930 504 930 504 961 459 c 0,54,55
 997 410 997 410 1018 383 c 0,4,5
EndSplineSet
EndChar

StartChar: afii62828
Encoding: 65258 65258 253
Width: 639
GlyphClass: 2
Flags: W
AnchorPoint: "Anchor-3" 375 -465 basechar 0
AnchorPoint: "Anchor-2" 285 1035 basechar 0
LayerCount: 2
Fore
SplineSet
158 477 m 0,0,1
 195 504 195 504 295 555 c 0,2,3
 332 575 332 575 367.5 594.5 c 128,-1,4
 403 614 403 614 418 631 c 0,5,6
 428 647 428 647 428 659 c 2,7,-1
 420 696 l 1,8,-1
 483 858 l 1,9,10
 528 831 528 831 555 641 c 0,11,12
 578 489 578 489 578 340 c 0,13,14
 578 274 578 274 580 254 c 0,15,16
 588 199 588 199 631 199 c 2,17,-1
 739 199 l 1,18,-1
 739 0 l 1,19,-1
 647 0 l 2,20,21
 565 0 565 0 524 39 c 0,22,23
 477 84 477 84 477 172 c 1,24,25
 403 106 403 106 305 61 c 0,26,27
 221 25 221 25 172 25 c 0,28,29
 88 25 88 25 53 63 c 0,30,31
 25 98 25 98 25 164 c 0,32,33
 25 291 25 291 39 336 c 0,34,35
 63 414 63 414 158 477 c 0,0,1
477 287 m 1,36,-1
 463 537 l 1,37,38
 422 481 422 481 378 444.5 c 128,-1,39
 334 408 334 408 283.5 389.5 c 128,-1,40
 233 371 233 371 168 324 c 0,41,42
 96 270 96 270 88 236 c 1,43,-1
 88 231 l 2,44,45
 88 211 88 211 133 205 c 0,46,47
 158 199 158 199 213 199 c 0,48,49
 295 199 295 199 356.5 218.5 c 128,-1,50
 418 238 418 238 477 287 c 1,36,-1
EndSplineSet
EndChar

StartChar: afii57448
Encoding: 1608 1608 254
Width: 876
GlyphClass: 2
Flags: W
AnchorPoint: "Anchor-3" 165 -825 basechar 0
AnchorPoint: "Anchor-2" 360 810 basechar 0
LayerCount: 2
Fore
SplineSet
678 528 m 0,0,1
 753 459 753 459 792 357.5 c 128,-1,2
 831 256 831 256 831 143 c 0,3,4
 831 96 831 96 823 47 c 0,5,6
 811 -12 811 -12 807 -23 c 0,7,8
 799 -39 799 -39 766 -76 c 0,9,10
 704 -143 704 -143 618 -209 c 0,11,12
 545 -262 545 -262 450 -317 c 1,13,14
 405 -330 405 -330 383 -336 c 0,15,16
 336 -348 336 -348 285 -358 c 0,17,18
 256 -365 256 -365 220 -368 c 128,-1,19
 184 -371 184 -371 127 -371 c 0,20,21
 82 -371 82 -371 45 -375 c 128,-1,22
 8 -379 8 -379 -37 -391 c 0,23,24
 -53 -395 -53 -395 -68.5 -398 c 128,-1,25
 -84 -401 -84 -401 -90 -401 c 0,26,27
 -107 -401 -107 -401 -107 -393 c 0,28,29
 -107 -381 -107 -381 -49 -358 c 0,30,31
 170 -274 170 -274 311 -209 c 0,32,33
 438 -150 438 -150 538 -88 c 0,34,35
 579 -61 579 -61 704 25 c 1,36,37
 676 35 676 35 626.5 43 c 128,-1,38
 577 51 577 51 518 51 c 0,39,40
 438 51 438 51 391 96 c 0,41,42
 346 135 346 135 346 197 c 0,43,44
 346 213 346 213 348 223 c 0,45,46
 368 360 368 360 416 453 c 0,47,48
 450 526 450 526 495 557 c 1,49,50
 530 588 530 588 565 588 c 0,51,52
 612 588 612 588 678 528 c 0,0,1
737 199 m 1,53,54
 710 303 710 303 656 366.5 c 128,-1,55
 602 430 602 430 545 430 c 0,56,57
 512 430 512 430 481 401.5 c 128,-1,58
 450 373 450 373 430 315 c 0,59,60
 428 305 428 305 427 296 c 128,-1,61
 426 287 426 287 426 283 c 0,62,63
 426 262 426 262 444.5 253 c 128,-1,64
 463 244 463 244 504 244 c 1,65,66
 581 236 581 236 645.5 223.5 c 128,-1,67
 710 211 710 211 737 199 c 1,53,54
EndSplineSet
Substitution2: "'fina' Terminal Forms in Arabic lookup 2 subtable" afii62829
PairPos2: "'kern' Horizontal Kerning in Arabic lookup 0 subtable" uniFBFE dx=0 dy=0 dh=0 dv=0 dx=0 dy=0 dh=100 dv=0
PairPos2: "'kern' Horizontal Kerning in Arabic lookup 0 subtable" afii62831 dx=0 dy=0 dh=0 dv=0 dx=0 dy=0 dh=100 dv=0
PairPos2: "'kern' Horizontal Kerning in Arabic lookup 0 subtable" afii62761 dx=0 dy=0 dh=0 dv=0 dx=0 dy=0 dh=100 dv=0
PairPos2: "'kern' Horizontal Kerning in Arabic lookup 0 subtable" afii57413 dx=0 dy=0 dh=0 dv=0 dx=0 dy=0 dh=190 dv=0
PairPos2: "'kern' Horizontal Kerning in Arabic lookup 0 subtable" afii62956 dx=0 dy=0 dh=0 dv=0 dx=0 dy=0 dh=100 dv=0
EndChar

StartChar: afii62829
Encoding: 65262 65262 255
Width: 886
GlyphClass: 2
Flags: W
AnchorPoint: "Anchor-3" 180 -840 basechar 0
AnchorPoint: "Anchor-2" 375 825 basechar 0
LayerCount: 2
Fore
SplineSet
688 528 m 0,0,1
 763 459 763 459 802 357.5 c 128,-1,2
 841 256 841 256 841 143 c 0,3,4
 841 96 841 96 833 47 c 0,5,6
 821 -12 821 -12 817 -23 c 0,7,8
 809 -39 809 -39 776 -76 c 0,9,10
 714 -143 714 -143 628 -209 c 0,11,12
 555 -262 555 -262 460 -317 c 1,13,14
 415 -330 415 -330 393 -336 c 0,15,16
 346 -348 346 -348 295 -358 c 0,17,18
 266 -365 266 -365 230 -368 c 128,-1,19
 194 -371 194 -371 137 -371 c 0,20,21
 92 -371 92 -371 55 -375 c 128,-1,22
 18 -379 18 -379 -27 -391 c 0,23,24
 -43 -395 -43 -395 -58.5 -398 c 128,-1,25
 -74 -401 -74 -401 -80 -401 c 0,26,27
 -97 -401 -97 -401 -97 -393 c 0,28,29
 -97 -381 -97 -381 -39 -358 c 0,30,31
 180 -274 180 -274 321 -209 c 0,32,33
 448 -150 448 -150 548 -88 c 0,34,35
 589 -61 589 -61 714 25 c 1,36,37
 686 35 686 35 636.5 43 c 128,-1,38
 587 51 587 51 528 51 c 0,39,40
 448 51 448 51 401 96 c 0,41,42
 356 135 356 135 356 197 c 0,43,44
 356 213 356 213 358 223 c 0,45,46
 378 360 378 360 426 453 c 0,47,48
 460 526 460 526 505 557 c 1,49,50
 540 588 540 588 575 588 c 0,51,52
 622 588 622 588 688 528 c 0,0,1
747 199 m 1,53,54
 720 303 720 303 666 366.5 c 128,-1,55
 612 430 612 430 555 430 c 0,56,57
 522 430 522 430 491 401.5 c 128,-1,58
 460 373 460 373 440 315 c 0,59,60
 438 305 438 305 437 296 c 128,-1,61
 436 287 436 287 436 283 c 0,62,63
 436 262 436 262 454.5 253 c 128,-1,64
 473 244 473 244 514 244 c 1,65,66
 591 236 591 236 655.5 223.5 c 128,-1,67
 720 211 720 211 747 199 c 1,53,54
EndSplineSet
PairPos2: "'kern' Horizontal Kerning in Arabic lookup 0 subtable" uniFBFE dx=0 dy=0 dh=0 dv=0 dx=0 dy=0 dh=100 dv=0
PairPos2: "'kern' Horizontal Kerning in Arabic lookup 0 subtable" afii62831 dx=0 dy=0 dh=0 dv=0 dx=0 dy=0 dh=100 dv=0
PairPos2: "'kern' Horizontal Kerning in Arabic lookup 0 subtable" afii62761 dx=0 dy=0 dh=0 dv=0 dx=0 dy=0 dh=100 dv=0
PairPos2: "'kern' Horizontal Kerning in Arabic lookup 0 subtable" afii57413 dx=0 dy=0 dh=0 dv=0 dx=0 dy=0 dh=190 dv=0
PairPos2: "'kern' Horizontal Kerning in Arabic lookup 0 subtable" afii62956 dx=0 dy=0 dh=0 dv=0 dx=0 dy=0 dh=100 dv=0
EndChar

StartChar: afii62840
Encoding: 65275 65275 268
Width: 941
GlyphClass: 3
Flags: W
AnchorPoint: "Anchor-1" 720 -435 baselig 0
AnchorPoint: "Anchor-0" 675 1575 baselig 0
AnchorPoint: "Anchor-1" 240 -615 baselig 1
AnchorPoint: "Anchor-0" 120 1425 baselig 1
LayerCount: 2
Fore
SplineSet
509 514 m 2,0,-1
 137 1040 l 1,1,-1
 100 1059 l 1,2,-1
 155 1257 l 1,3,-1
 391 1010 l 2,4,5
 411 991 411 991 419 981 c 128,-1,6
 427 971 427 971 427 961 c 0,7,8
 427 948 427 948 397 948 c 2,9,-1
 386 948 l 2,10,11
 374 948 374 948 354 950 c 1,12,13
 440 834 440 834 513 721 c 0,14,15
 571 627 571 627 616 545 c 0,16,17
 653 475 653 475 667 434 c 0,18,19
 679 403 679 403 691.5 332.5 c 128,-1,20
 704 262 704 262 704 207 c 1,21,22
 731 248 731 248 745 319.5 c 128,-1,23
 759 391 759 391 759 467 c 1,24,-1
 698 1206 l 1,25,-1
 677 1257 l 1,26,-1
 800 1425 l 1,27,-1
 907 1083 l 2,28,29
 917 1055 917 1055 917 1034 c 0,30,31
 917 1010 917 1010 901 1010 c 0,32,33
 876 1010 876 1010 833 1061 c 1,34,-1
 870 551 l 1,35,36
 870 434 870 434 855.5 351 c 128,-1,37
 841 268 841 268 812 193 c 0,38,39
 794 139 794 139 747 47 c 0,40,41
 696 -59 696 -59 554 -150 c 1,42,43
 419 -242 419 -242 262 -281 c 0,44,45
 243 -285 243 -285 227.5 -288 c 128,-1,46
 212 -291 212 -291 206 -291 c 0,47,48
 198 -291 198 -291 198 -285 c 0,49,50
 198 -274 198 -274 239 -242 c 0,51,52
 399 -125 399 -125 438 -96 c 0,53,54
 511 -39 511 -39 555 6 c 128,-1,55
 599 51 599 51 624 98 c 0,56,57
 642 131 642 131 642 180 c 0,58,59
 642 246 642 246 610 328 c 0,60,61
 575 416 575 416 509 514 c 2,0,-1
EndSplineSet
Ligature2: "'rlig' Required Ligatures in Arabic lookup 6 subtable" afii62817 afii62760
Substitution2: "'fina' Terminal Forms in Arabic lookup 2 subtable" afii62841
PairPos2: "'kern' Horizontal Kerning in Arabic lookup 0 subtable" uniFBFE dx=0 dy=0 dh=0 dv=0 dx=0 dy=0 dh=-50 dv=0
PairPos2: "'kern' Horizontal Kerning in Arabic lookup 0 subtable" afii62831 dx=0 dy=0 dh=0 dv=0 dx=0 dy=0 dh=-50 dv=0
PairPos2: "'kern' Horizontal Kerning in Arabic lookup 0 subtable" afii57450 dx=0 dy=0 dh=0 dv=0 dx=0 dy=0 dh=-100 dv=0
PairPos2: "'kern' Horizontal Kerning in Arabic lookup 0 subtable" afii57449 dx=0 dy=0 dh=0 dv=0 dx=0 dy=0 dh=-100 dv=0
PairPos2: "'kern' Horizontal Kerning in Arabic lookup 0 subtable" afii57448 dx=0 dy=0 dh=0 dv=0 dx=0 dy=0 dh=-100 dv=0
PairPos2: "'kern' Horizontal Kerning in Arabic lookup 0 subtable" afii57446 dx=0 dy=0 dh=0 dv=0 dx=0 dy=0 dh=-50 dv=0
PairPos2: "'kern' Horizontal Kerning in Arabic lookup 0 subtable" afii57445 dx=0 dy=0 dh=0 dv=0 dx=0 dy=0 dh=-50 dv=0
PairPos2: "'kern' Horizontal Kerning in Arabic lookup 0 subtable" afii62811 dx=0 dy=0 dh=0 dv=0 dx=0 dy=0 dh=-50 dv=0
PairPos2: "'kern' Horizontal Kerning in Arabic lookup 0 subtable" afii57442 dx=0 dy=0 dh=0 dv=0 dx=0 dy=0 dh=-50 dv=0
PairPos2: "'kern' Horizontal Kerning in Arabic lookup 0 subtable" afii62808 dx=0 dy=0 dh=0 dv=0 dx=0 dy=0 dh=-50 dv=0
PairPos2: "'kern' Horizontal Kerning in Arabic lookup 0 subtable" afii57441 dx=0 dy=0 dh=0 dv=0 dx=0 dy=0 dh=-50 dv=0
PairPos2: "'kern' Horizontal Kerning in Arabic lookup 0 subtable" afii62805 dx=0 dy=0 dh=0 dv=0 dx=0 dy=0 dh=-50 dv=0
PairPos2: "'kern' Horizontal Kerning in Arabic lookup 0 subtable" afii57434 dx=0 dy=0 dh=0 dv=0 dx=0 dy=0 dh=-50 dv=0
PairPos2: "'kern' Horizontal Kerning in Arabic lookup 0 subtable" afii62802 dx=0 dy=0 dh=0 dv=0 dx=0 dy=0 dh=-50 dv=0
PairPos2: "'kern' Horizontal Kerning in Arabic lookup 0 subtable" afii57433 dx=0 dy=0 dh=0 dv=0 dx=0 dy=0 dh=-50 dv=0
PairPos2: "'kern' Horizontal Kerning in Arabic lookup 0 subtable" afii62799 dx=0 dy=0 dh=0 dv=0 dx=0 dy=0 dh=-50 dv=0
PairPos2: "'kern' Horizontal Kerning in Arabic lookup 0 subtable" afii57432 dx=0 dy=0 dh=0 dv=0 dx=0 dy=0 dh=-50 dv=0
PairPos2: "'kern' Horizontal Kerning in Arabic lookup 0 subtable" afii62796 dx=0 dy=0 dh=0 dv=0 dx=0 dy=0 dh=-50 dv=0
PairPos2: "'kern' Horizontal Kerning in Arabic lookup 0 subtable" afii57431 dx=0 dy=0 dh=0 dv=0 dx=0 dy=0 dh=-50 dv=0
PairPos2: "'kern' Horizontal Kerning in Arabic lookup 0 subtable" afii62793 dx=0 dy=0 dh=0 dv=0 dx=0 dy=0 dh=-50 dv=0
PairPos2: "'kern' Horizontal Kerning in Arabic lookup 0 subtable" afii57430 dx=0 dy=0 dh=0 dv=0 dx=0 dy=0 dh=-50 dv=0
PairPos2: "'kern' Horizontal Kerning in Arabic lookup 0 subtable" afii62790 dx=0 dy=0 dh=0 dv=0 dx=0 dy=0 dh=-50 dv=0
PairPos2: "'kern' Horizontal Kerning in Arabic lookup 0 subtable" afii57429 dx=0 dy=0 dh=0 dv=0 dx=0 dy=0 dh=-50 dv=0
PairPos2: "'kern' Horizontal Kerning in Arabic lookup 0 subtable" afii62787 dx=0 dy=0 dh=0 dv=0 dx=0 dy=0 dh=-50 dv=0
PairPos2: "'kern' Horizontal Kerning in Arabic lookup 0 subtable" afii57428 dx=0 dy=0 dh=0 dv=0 dx=0 dy=0 dh=-50 dv=0
PairPos2: "'kern' Horizontal Kerning in Arabic lookup 0 subtable" afii62784 dx=0 dy=0 dh=0 dv=0 dx=0 dy=0 dh=-50 dv=0
PairPos2: "'kern' Horizontal Kerning in Arabic lookup 0 subtable" afii57427 dx=0 dy=0 dh=0 dv=0 dx=0 dy=0 dh=-50 dv=0
PairPos2: "'kern' Horizontal Kerning in Arabic lookup 0 subtable" afii57426 dx=0 dy=0 dh=0 dv=0 dx=0 dy=0 dh=-100 dv=0
PairPos2: "'kern' Horizontal Kerning in Arabic lookup 0 subtable" afii57425 dx=0 dy=0 dh=0 dv=0 dx=0 dy=0 dh=-100 dv=0
PairPos2: "'kern' Horizontal Kerning in Arabic lookup 0 subtable" afii57424 dx=0 dy=0 dh=0 dv=0 dx=0 dy=0 dh=-100 dv=0
PairPos2: "'kern' Horizontal Kerning in Arabic lookup 0 subtable" afii57423 dx=0 dy=0 dh=0 dv=0 dx=0 dy=0 dh=-100 dv=0
PairPos2: "'kern' Horizontal Kerning in Arabic lookup 0 subtable" afii62777 dx=0 dy=0 dh=0 dv=0 dx=0 dy=0 dh=-100 dv=0
PairPos2: "'kern' Horizontal Kerning in Arabic lookup 0 subtable" afii57422 dx=0 dy=0 dh=0 dv=0 dx=0 dy=0 dh=-100 dv=0
PairPos2: "'kern' Horizontal Kerning in Arabic lookup 0 subtable" afii62774 dx=0 dy=0 dh=0 dv=0 dx=0 dy=0 dh=-100 dv=0
PairPos2: "'kern' Horizontal Kerning in Arabic lookup 0 subtable" afii57421 dx=0 dy=0 dh=0 dv=0 dx=0 dy=0 dh=-100 dv=0
PairPos2: "'kern' Horizontal Kerning in Arabic lookup 0 subtable" afii62771 dx=0 dy=0 dh=0 dv=0 dx=0 dy=0 dh=-100 dv=0
PairPos2: "'kern' Horizontal Kerning in Arabic lookup 0 subtable" afii57420 dx=0 dy=0 dh=0 dv=0 dx=0 dy=0 dh=-100 dv=0
PairPos2: "'kern' Horizontal Kerning in Arabic lookup 0 subtable" afii57419 dx=0 dy=0 dh=0 dv=0 dx=0 dy=0 dh=-50 dv=0
PairPos2: "'kern' Horizontal Kerning in Arabic lookup 0 subtable" afii57418 dx=0 dy=0 dh=0 dv=0 dx=0 dy=0 dh=-50 dv=0
PairPos2: "'kern' Horizontal Kerning in Arabic lookup 0 subtable" afii62761 dx=0 dy=0 dh=0 dv=0 dx=0 dy=0 dh=-50 dv=0
PairPos2: "'kern' Horizontal Kerning in Arabic lookup 0 subtable" afii57416 dx=0 dy=0 dh=0 dv=0 dx=0 dy=0 dh=-50 dv=0
PairPos2: "'kern' Horizontal Kerning in Arabic lookup 0 subtable" afii57414 dx=0 dy=0 dh=0 dv=0 dx=0 dy=0 dh=-100 dv=0
PairPos2: "'kern' Horizontal Kerning in Arabic lookup 0 subtable" afii52399 dx=0 dy=0 dh=0 dv=0 dx=0 dy=0 dh=-100 dv=0
PairPos2: "'kern' Horizontal Kerning in Arabic lookup 0 subtable" afii57555 dx=0 dy=0 dh=0 dv=0 dx=0 dy=0 dh=-100 dv=0
PairPos2: "'kern' Horizontal Kerning in Arabic lookup 0 subtable" afii62959 dx=0 dy=0 dh=0 dv=0 dx=0 dy=0 dh=-100 dv=0
PairPos2: "'kern' Horizontal Kerning in Arabic lookup 0 subtable" afii57507 dx=0 dy=0 dh=0 dv=0 dx=0 dy=0 dh=-100 dv=0
PairPos2: "'kern' Horizontal Kerning in Arabic lookup 0 subtable" afii57505 dx=0 dy=0 dh=0 dv=0 dx=0 dy=0 dh=-50 dv=0
PairPos2: "'kern' Horizontal Kerning in Arabic lookup 0 subtable" afii62956 dx=0 dy=0 dh=0 dv=0 dx=0 dy=0 dh=-50 dv=0
PairPos2: "'kern' Horizontal Kerning in Arabic lookup 0 subtable" afii57506 dx=0 dy=0 dh=0 dv=0 dx=0 dy=0 dh=-50 dv=0
EndChar

StartChar: afii62841
Encoding: 65276 65276 269
Width: 1013
GlyphClass: 3
Flags: W
AnchorPoint: "Anchor-1" 825 -510 baselig 0
AnchorPoint: "Anchor-0" 675 1560 baselig 0
AnchorPoint: "Anchor-1" 360 -600 baselig 1
AnchorPoint: "Anchor-0" 45 1380 baselig 1
LayerCount: 2
Fore
SplineSet
704 389 m 0,0,1
 708 377 708 377 709 362.5 c 128,-1,2
 710 348 710 348 710 328 c 0,3,4
 714 307 714 307 714 287 c 0,5,6
 718 266 718 266 726 244 c 1,7,8
 743 285 743 285 753 343 c 128,-1,9
 763 401 763 401 763 463 c 1,10,-1
 696 1274 l 1,11,-1
 821 1425 l 1,12,-1
 874 557 l 1,13,14
 874 303 874 303 901 246 c 0,15,16
 923 199 923 199 1017 199 c 2,17,-1
 1040 199 l 1,18,-1
 1040 0 l 1,19,20
 927 -2 927 -2 870 33 c 0,21,22
 806 72 806 72 806 170 c 0,23,24
 806 188 806 188 794 184 c 0,25,26
 788 184 788 184 778.5 174 c 128,-1,27
 769 164 769 164 767 150 c 0,28,29
 743 0 743 0 608 -109 c 0,30,31
 477 -213 477 -213 243 -272 c 0,32,33
 237 -274 237 -274 228 -276.5 c 128,-1,34
 219 -279 219 -279 214 -279 c 0,35,36
 206 -279 206 -279 204 -275.5 c 128,-1,37
 202 -272 202 -272 204 -270 c 0,38,39
 204 -256 204 -256 251 -223 c 0,40,41
 411 -109 411 -109 470 -57 c 0,42,43
 532 0 532 0 618 106 c 0,44,45
 636 127 636 127 645.5 151.5 c 128,-1,46
 655 176 655 176 655 205 c 0,47,48
 655 258 655 258 618 332 c 0,49,50
 587 393 587 393 522 492 c 1,51,-1
 149 1018 l 1,52,-1
 96 1053 l 1,53,-1
 151 1237 l 1,54,-1
 382 1010 l 2,55,56
 411 985 411 985 423.5 969.5 c 128,-1,57
 436 954 436 954 436 944 c 0,58,59
 436 930 436 930 407 930 c 0,60,61
 370 930 370 930 333 944 c 1,62,63
 362 905 362 905 464 770 c 0,64,65
 554 655 554 655 604 580 c 0,66,67
 671 475 671 475 704 389 c 0,0,1
EndSplineSet
Ligature2: "'rlig' Required Ligatures in Arabic lookup 6 subtable" afii62818 afii62760
PairPos2: "'kern' Horizontal Kerning in Arabic lookup 0 subtable" afii57448 dx=0 dy=0 dh=0 dv=0 dx=0 dy=0 dh=-100 dv=0
PairPos2: "'kern' Horizontal Kerning in Arabic lookup 0 subtable" afii57445 dx=0 dy=0 dh=0 dv=0 dx=0 dy=0 dh=-100 dv=0
PairPos2: "'kern' Horizontal Kerning in Arabic lookup 0 subtable" afii57426 dx=0 dy=0 dh=0 dv=0 dx=0 dy=0 dh=-100 dv=0
PairPos2: "'kern' Horizontal Kerning in Arabic lookup 0 subtable" afii57425 dx=0 dy=0 dh=0 dv=0 dx=0 dy=0 dh=-100 dv=0
PairPos2: "'kern' Horizontal Kerning in Arabic lookup 0 subtable" afii57422 dx=0 dy=0 dh=0 dv=0 dx=0 dy=0 dh=-150 dv=0
PairPos2: "'kern' Horizontal Kerning in Arabic lookup 0 subtable" afii57421 dx=0 dy=0 dh=0 dv=0 dx=0 dy=0 dh=-150 dv=0
PairPos2: "'kern' Horizontal Kerning in Arabic lookup 0 subtable" afii57420 dx=0 dy=0 dh=0 dv=0 dx=0 dy=0 dh=-150 dv=0
PairPos2: "'kern' Horizontal Kerning in Arabic lookup 0 subtable" afii52399 dx=0 dy=0 dh=0 dv=0 dx=0 dy=0 dh=-150 dv=0
PairPos2: "'kern' Horizontal Kerning in Arabic lookup 0 subtable" afii57507 dx=0 dy=0 dh=0 dv=0 dx=0 dy=0 dh=-150 dv=0
EndChar

StartChar: afii59759
Encoding: 3663 3663 276
Width: 1233
GlyphClass: 2
Flags: W
LayerCount: 2
Fore
SplineSet
616 983 m 0,0,1
 823 983 823 983 969.5 836.5 c 128,-1,2
 1116 690 1116 690 1116 483 c 0,3,4
 1116 277 1116 277 969.5 130.5 c 128,-1,5
 823 -16 823 -16 616 -16 c 0,6,7
 410 -16 410 -16 263.5 130.5 c 128,-1,8
 117 277 117 277 117 483 c 0,9,10
 117 690 117 690 263.5 836.5 c 128,-1,11
 410 983 410 983 616 983 c 0,0,1
616 147 m 0,12,13
 758 147 758 147 849 242 c 128,-1,14
 940 337 940 337 940 483 c 256,15,16
 940 629 940 629 849 724 c 128,-1,17
 758 819 758 819 616 819 c 0,18,19
 475 819 475 819 384 724 c 128,-1,20
 293 629 293 629 293 483 c 256,21,22
 293 337 293 337 384 242 c 128,-1,23
 475 147 475 147 616 147 c 0,12,13
616 598 m 0,24,25
 664 598 664 598 697.5 565 c 128,-1,26
 731 532 731 532 731 485 c 256,27,28
 731 438 731 438 697.5 404.5 c 128,-1,29
 664 371 664 371 616 371 c 0,30,31
 569 371 569 371 535.5 404.5 c 128,-1,32
 502 438 502 438 502 485 c 256,33,34
 502 532 502 532 535.5 565 c 128,-1,35
 569 598 569 598 616 598 c 0,24,25
EndSplineSet
EndChar

StartChar: afii59760
Encoding: 3664 3664 277
Width: 1233
GlyphClass: 2
Flags: W
LayerCount: 2
Fore
SplineSet
616 924 m 0,0,1
 834 924 834 924 975 794.5 c 128,-1,2
 1116 665 1116 665 1116 453 c 0,3,4
 1116 242 1116 242 975 113 c 128,-1,5
 834 -16 834 -16 616 -16 c 0,6,7
 399 -16 399 -16 258 113 c 128,-1,8
 117 242 117 242 117 453 c 0,9,10
 117 665 117 665 258 794.5 c 128,-1,11
 399 924 399 924 616 924 c 0,0,1
616 150 m 0,12,13
 765 150 765 150 852.5 231 c 128,-1,14
 940 312 940 312 940 453 c 256,15,16
 940 594 940 594 852 677 c 128,-1,17
 764 760 764 760 616 760 c 0,18,19
 469 760 469 760 381 677 c 128,-1,20
 293 594 293 594 293 453 c 0,21,22
 293 310 293 310 381.5 230 c 128,-1,23
 470 150 470 150 616 150 c 0,12,13
EndSplineSet
EndChar

StartChar: glyph279
Encoding: 65559 -1 279
Width: 0
GlyphClass: 2
Flags: W
LayerCount: 2
Fore
SplineSet
36 1831 m 1,0,-1
 36 863 l 1,1,-1
 -36 863 l 1,2,-1
 -36 1831 l 1,3,-1
 36 1831 l 1,0,-1
36 543 m 1,4,-1
 36 -423 l 1,5,-1
 -36 -423 l 1,6,-1
 -36 543 l 1,7,-1
 36 543 l 1,4,-1
EndSplineSet
EndChar

StartChar: glyph280
Encoding: 65560 -1 280
Width: 0
GlyphClass: 2
Flags: W
LayerCount: 2
Fore
SplineSet
-234 -423 m 1,0,-1
 -234 -352 l 1,1,-1
 -36 -352 l 1,2,-1
 -36 1760 l 1,3,-1
 -234 1760 l 1,4,-1
 -234 1831 l 1,5,-1
 234 1831 l 1,6,-1
 234 1760 l 1,7,-1
 36 1760 l 1,8,-1
 36 -352 l 1,9,-1
 234 -352 l 1,10,-1
 234 -423 l 1,11,-1
 -234 -423 l 1,0,-1
EndSplineSet
EndChar

StartChar: glyph281
Encoding: 65561 -1 281
Width: 0
GlyphClass: 2
Flags: W
LayerCount: 2
Fore
SplineSet
224 1646 m 1,0,-1
 36 1504 l 1,1,-1
 36 -423 l 1,2,-1
 -36 -423 l 1,3,-1
 -36 1831 l 1,4,-1
 224 1646 l 1,0,-1
EndSplineSet
EndChar

StartChar: glyph282
Encoding: 65562 -1 282
Width: 0
GlyphClass: 2
Flags: W
LayerCount: 2
Fore
SplineSet
36 1831 m 1,0,-1
 36 -423 l 1,1,-1
 -36 -423 l 1,2,-1
 -36 1504 l 1,3,-1
 -224 1646 l 1,4,-1
 36 1831 l 1,0,-1
EndSplineSet
EndChar

StartChar: glyph283
Encoding: 65563 -1 283
Width: 0
GlyphClass: 2
Flags: W
LayerCount: 2
Fore
SplineSet
36 1831 m 1,0,-1
 36 -352 l 1,1,-1
 234 -352 l 1,2,-1
 234 -423 l 1,3,-1
 -36 -423 l 1,4,-1
 -36 1831 l 1,5,-1
 36 1831 l 1,0,-1
EndSplineSet
EndChar

StartChar: glyph284
Encoding: 65564 -1 284
Width: 0
GlyphClass: 2
Flags: W
LayerCount: 2
Fore
SplineSet
224 1646 m 1,0,-1
 36 1504 l 1,1,-1
 36 -423 l 1,2,-1
 -36 -423 l 1,3,-1
 -36 1504 l 1,4,-1
 -224 1641 l 1,5,-1
 0 1831 l 1,6,-1
 224 1646 l 1,0,-1
EndSplineSet
EndChar

StartChar: uni0670
Encoding: 1648 1648 297
Width: 0
GlyphClass: 4
Flags: W
AnchorPoint: "Anchor-2" 0 0 mark 0
AnchorPoint: "Anchor-0" 0 0 mark 0
LayerCount: 2
Fore
SplineSet
-51 278 m 1,0,-1
 27 380 l 1,1,-1
 39 97 l 1,2,-1
 -20 5 l 1,3,-1
 -51 278 l 1,0,-1
EndSplineSet
EndChar

StartChar: glyph298
Encoding: 65565 -1 298
Width: 586
GlyphClass: 2
Flags: W
LayerCount: 2
Fore
SplineSet
289 1412 m 2,0,1
 330 1443 330 1443 367 1450 c 128,-1,2
 404 1457 404 1457 432.5 1442.5 c 128,-1,3
 461 1428 461 1428 478 1394.5 c 128,-1,4
 495 1361 495 1361 495 1312 c 2,5,-1
 494 1205 l 1,6,-1
 69 1205 l 1,7,-1
 69 1282 l 1,8,-1
 141 1282 l 1,9,-1
 289 1412 l 2,0,1
247 1282 m 1,10,-1
 417 1282 l 1,11,-1
 417 1322 l 2,12,13
 415 1360 415 1360 391 1371 c 128,-1,14
 367 1382 367 1382 326 1353 c 1,15,-1
 247 1282 l 1,10,-1
EndSplineSet
EndChar

StartChar: glyph299
Encoding: 65566 -1 299
Width: 1079
GlyphClass: 2
Flags: W
LayerCount: 2
Fore
SplineSet
90 33 m 0,0,1
 90 -70 90 -70 182 -127 c 0,2,3
 266 -180 266 -180 397 -180 c 0,4,5
 471 -180 471 -180 544.5 -165 c 128,-1,6
 618 -150 618 -150 688 -125 c 0,7,8
 748 -102 748 -102 823 -61 c 0,9,10
 905 -20 905 -20 948 16 c 1,11,12
 924 33 924 33 859.5 51.5 c 128,-1,13
 795 70 795 70 760 76 c 0,14,15
 713 86 713 86 669 106.5 c 128,-1,16
 625 127 625 127 594 150 c 0,17,18
 575 164 575 164 566 194.5 c 128,-1,19
 557 225 557 225 557 250 c 0,20,21
 557 324 557 324 580 395 c 0,22,23
 594 446 594 446 623 496 c 0,24,25
 649 543 649 543 692 573 c 0,26,27
 729 600 729 600 762 600 c 0,28,29
 893 600 893 600 981 434 c 0,30,31
 1061 281 1061 281 1061 70 c 0,32,33
 1061 -35 1061 -35 1023 -89 c 128,-1,34
 985 -143 985 -143 864 -213 c 1,35,36
 741 -291 741 -291 616 -332 c 0,37,38
 481 -377 481 -377 360 -377 c 0,39,40
 180 -377 180 -377 96 -297 c 0,41,42
 16 -221 16 -221 16 -61 c 0,43,44
 16 8 16 8 39 123 c 0,45,46
 63 254 63 254 98 317 c 0,47,48
 109 340 109 340 124 353.5 c 128,-1,49
 139 367 139 367 150 367 c 0,50,51
 162 367 162 367 162 344 c 0,52,53
 162 340 162 340 160 329.5 c 128,-1,54
 158 319 158 319 158 315 c 0,55,56
 125 233 125 233 107.5 155.5 c 128,-1,57
 90 78 90 78 90 33 c 0,0,1
948 201 m 1,58,59
 932 274 932 274 872 344 c 0,60,61
 811 418 811 418 745 432 c 1,62,63
 711 432 711 432 676 401 c 0,64,65
 647 371 647 371 643 330 c 0,66,67
 643 305 643 305 684 289.5 c 128,-1,68
 725 274 725 274 785.5 262 c 128,-1,69
 846 250 846 250 890 233.5 c 128,-1,70
 934 217 934 217 948 201 c 1,58,59
EndSplineSet
EndChar

StartChar: uni06DD
Encoding: 1757 1757 388
Width: 2300
GlyphClass: 2
Flags: W
LayerCount: 2
Fore
SplineSet
2250 715 m 256,0,1
 2250 469 2250 469 2146 249 c 0,2,3
 2046 35 2046 35 1867 -119 c 1,4,5
 1870 -133 1870 -133 1870 -148 c 0,6,7
 1870 -203 1870 -203 1831 -241.5 c 128,-1,8
 1792 -280 1792 -280 1737 -280 c 0,9,10
 1697 -280 1697 -280 1664 -258 c 1,11,12
 1424 -385 1424 -385 1149 -385 c 0,13,14
 876 -385 876 -385 636 -258 c 1,15,16
 603 -280 603 -280 563 -280 c 0,17,18
 508 -280 508 -280 469 -241.5 c 128,-1,19
 430 -203 430 -203 430 -148 c 0,20,21
 430 -133 430 -133 433 -119 c 1,22,23
 254 35 254 35 154 249 c 0,24,25
 50 469 50 469 50 715 c 256,26,27
 50 961 50 961 154 1181 c 0,28,29
 254 1394 254 1394 433 1548 c 1,30,31
 430 1562 430 1562 430 1577 c 0,32,33
 430 1632 430 1632 469 1670.5 c 128,-1,34
 508 1709 508 1709 563 1709 c 0,35,36
 603 1709 603 1709 636 1687 c 1,37,38
 876 1814 876 1814 1151 1814 c 0,39,40
 1424 1814 1424 1814 1664 1687 c 1,41,42
 1697 1709 1697 1709 1737 1709 c 0,43,44
 1792 1709 1792 1709 1831 1670.5 c 128,-1,45
 1870 1632 1870 1632 1870 1577 c 0,46,47
 1870 1562 1870 1562 1867 1548 c 1,48,49
 2046 1394 2046 1394 2146 1181 c 0,50,51
 2250 961 2250 961 2250 715 c 256,0,1
1816 1576 m 0,52,53
 1816 1609 1816 1609 1793 1632 c 128,-1,54
 1770 1655 1770 1655 1738 1655 c 256,55,56
 1706 1655 1706 1655 1682.5 1631.5 c 128,-1,57
 1659 1608 1659 1608 1659 1576 c 256,58,59
 1659 1544 1659 1544 1682 1521 c 128,-1,60
 1705 1498 1705 1498 1738 1498 c 0,61,62
 1770 1498 1770 1498 1793 1521 c 128,-1,63
 1816 1544 1816 1544 1816 1576 c 0,52,53
1602 1595 m 1,64,65
 1390 1704 1390 1704 1151 1704 c 0,66,67
 910 1704 910 1704 698 1595 c 1,68,-1
 1602 1595 l 1,64,65
641 1576 m 256,69,70
 641 1608 641 1608 617.5 1631.5 c 128,-1,71
 594 1655 594 1655 562 1655 c 256,72,73
 530 1655 530 1655 507 1632 c 128,-1,74
 484 1609 484 1609 484 1576 c 0,75,76
 484 1544 484 1544 507 1521 c 128,-1,77
 530 1498 530 1498 562 1498 c 0,78,79
 595 1498 595 1498 618 1521 c 128,-1,80
 641 1544 641 1544 641 1576 c 256,69,70
2140 714 m 0,81,82
 2140 933 2140 933 2048 1131 c 0,83,84
 1960 1321 1960 1321 1801 1460 c 1,85,86
 1772 1444 1772 1444 1737 1444 c 0,87,88
 1681 1444 1681 1444 1642 1485 c 1,89,-1
 658 1485 l 1,90,91
 619 1444 619 1444 563 1444 c 0,92,93
 528 1444 528 1444 499 1460 c 1,94,95
 340 1321 340 1321 252 1131 c 0,96,97
 160 933 160 933 160 714 c 0,98,99
 160 265 160 265 499 -31 c 1,100,101
 528 -15 528 -15 563 -15 c 0,102,103
 619 -15 619 -15 658 -56 c 1,104,-1
 1642 -56 l 1,105,106
 1681 -15 1681 -15 1737 -15 c 0,107,108
 1772 -15 1772 -15 1801 -31 c 1,109,110
 2140 265 2140 265 2140 714 c 0,81,82
1816 -147 m 0,111,112
 1816 -115 1816 -115 1793 -92 c 128,-1,113
 1770 -69 1770 -69 1738 -69 c 0,114,115
 1705 -69 1705 -69 1682 -92 c 128,-1,116
 1659 -115 1659 -115 1659 -147 c 256,117,118
 1659 -179 1659 -179 1682.5 -202.5 c 128,-1,119
 1706 -226 1706 -226 1738 -226 c 256,120,121
 1770 -226 1770 -226 1793 -203 c 128,-1,122
 1816 -180 1816 -180 1816 -147 c 0,111,112
1602 -166 m 1,123,-1
 698 -166 l 1,124,125
 910 -275 910 -275 1151 -275 c 0,126,127
 1390 -275 1390 -275 1602 -166 c 1,123,-1
641 -147 m 256,128,129
 641 -115 641 -115 618 -92 c 128,-1,130
 595 -69 595 -69 562 -69 c 0,131,132
 530 -69 530 -69 507 -92 c 128,-1,133
 484 -115 484 -115 484 -147 c 0,134,135
 484 -180 484 -180 507 -203 c 128,-1,136
 530 -226 530 -226 562 -226 c 256,137,138
 594 -226 594 -226 617.5 -202.5 c 128,-1,139
 641 -179 641 -179 641 -147 c 256,128,129
EndSplineSet
EndChar

StartChar: uni06DE
Encoding: 1758 1758 389
Width: 2221
GlyphClass: 2
Flags: W
LayerCount: 2
Fore
SplineSet
2171 750 m 1,0,-1
 1861 439 l 1,1,-1
 1861 0 l 1,2,-1
 1421 0 l 1,3,-1
 1111 -311 l 1,4,-1
 800 0 l 1,5,-1
 361 0 l 1,6,-1
 361 439 l 1,7,-1
 50 750 l 1,8,-1
 361 1061 l 1,9,-1
 361 1500 l 1,10,-1
 800 1500 l 1,11,-1
 1111 1811 l 1,12,-1
 1421 1500 l 1,13,-1
 1861 1500 l 1,14,-1
 1861 1061 l 1,15,-1
 2171 750 l 1,0,-1
436 364 m 1,16,-1
 436 75 l 1,17,-1
 725 75 l 1,18,-1
 436 364 l 1,16,-1
725 1425 m 1,19,-1
 436 1425 l 1,20,-1
 436 1136 l 1,21,-1
 725 1425 l 1,19,-1
1786 1136 m 1,22,-1
 1786 1425 l 1,23,-1
 1496 1425 l 1,24,-1
 1786 1136 l 1,22,-1
1786 75 m 1,25,-1
 1786 364 l 1,26,-1
 1496 75 l 1,27,-1
 1786 75 l 1,25,-1
906 0 m 1,28,-1
 1111 -205 l 1,29,-1
 1315 0 l 1,30,-1
 906 0 l 1,28,-1
361 955 m 1,31,-1
 156 750 l 1,32,-1
 361 545 l 1,33,-1
 361 955 l 1,31,-1
1315 1500 m 1,34,-1
 1111 1705 l 1,35,-1
 906 1500 l 1,36,-1
 1315 1500 l 1,34,-1
1786 1030 m 1,37,-1
 1390 1425 l 1,38,-1
 831 1425 l 1,39,-1
 436 1030 l 1,40,-1
 436 470 l 1,41,-1
 831 75 l 1,42,-1
 1390 75 l 1,43,-1
 1786 470 l 1,44,-1
 1786 1030 l 1,37,-1
2065 750 m 1,45,-1
 1861 955 l 1,46,-1
 1861 545 l 1,47,-1
 2065 750 l 1,45,-1
1328 750 m 256,48,49
 1328 660 1328 660 1264.5 596 c 128,-1,50
 1201 532 1201 532 1111 532 c 256,51,52
 1021 532 1021 532 957 596 c 128,-1,53
 893 660 893 660 893 750 c 256,54,55
 893 840 893 840 957 903.5 c 128,-1,56
 1021 967 1021 967 1111 967 c 256,57,58
 1201 967 1201 967 1264.5 903.5 c 128,-1,59
 1328 840 1328 840 1328 750 c 256,48,49
1253 750 m 256,60,61
 1253 809 1253 809 1211 850.5 c 128,-1,62
 1169 892 1169 892 1110 892 c 256,63,64
 1051 892 1051 892 1009 850.5 c 128,-1,65
 967 809 967 809 967 750 c 256,66,67
 967 691 967 691 1009 649 c 128,-1,68
 1051 607 1051 607 1110 607 c 256,69,70
 1169 607 1169 607 1211 649 c 128,-1,71
 1253 691 1253 691 1253 750 c 256,60,61
EndSplineSet
EndChar

StartChar: uni06DF
Encoding: 1759 1759 390
Width: 0
GlyphClass: 2
Flags: W
LayerCount: 2
Fore
SplineSet
75 1429 m 256,0,1
 75 1398 75 1398 53 1376 c 128,-1,2
 31 1354 31 1354 0 1354 c 256,3,4
 -31 1354 -31 1354 -53 1376 c 128,-1,5
 -75 1398 -75 1398 -75 1429 c 256,6,7
 -75 1460 -75 1460 -53 1482 c 128,-1,8
 -31 1504 -31 1504 0 1504 c 256,9,10
 31 1504 31 1504 53 1482 c 128,-1,11
 75 1460 75 1460 75 1429 c 256,0,1
EndSplineSet
EndChar

StartChar: uni06E9
Encoding: 1769 1769 391
Width: 1229
GlyphClass: 2
Flags: W
LayerCount: 2
Fore
SplineSet
1179 0 m 1,0,-1
 50 0 l 1,1,-1
 278 261 l 1,2,-1
 278 849 l 1,3,-1
 50 1108 l 1,4,-1
 614 1676 l 1,5,-1
 1179 1108 l 1,6,-1
 951 849 l 1,7,-1
 951 261 l 1,8,-1
 1179 0 l 1,0,-1
1101 1108 m 1,9,-1
 614 1598 l 1,10,-1
 128 1108 l 1,11,-1
 338 871 l 1,12,-1
 338 239 l 1,13,-1
 178 56 l 1,14,-1
 1051 56 l 1,15,-1
 891 239 l 1,16,-1
 891 871 l 1,17,-1
 1101 1108 l 1,9,-1
995 1108 m 1,18,-1
 845 937 l 1,19,-1
 845 131 l 1,20,-1
 384 131 l 1,21,-1
 384 937 l 1,22,-1
 234 1108 l 1,23,-1
 614 1489 l 1,24,-1
 995 1108 l 1,18,-1
922 1108 m 1,25,-1
 614 1416 l 1,26,-1
 307 1108 l 1,27,-1
 433 968 l 1,28,-1
 433 186 l 1,29,-1
 796 186 l 1,30,-1
 796 968 l 1,31,-1
 922 1108 l 1,25,-1
833 1108 m 1,32,-1
 745 1011 l 1,33,-1
 745 267 l 1,34,-1
 484 267 l 1,35,-1
 484 1011 l 1,36,-1
 396 1108 l 1,37,-1
 614 1331 l 1,38,-1
 833 1108 l 1,32,-1
780 1108 m 1,39,-1
 614 1278 l 1,40,-1
 449 1108 l 1,41,-1
 523 1027 l 1,42,-1
 523 309 l 1,43,-1
 705 309 l 1,44,-1
 705 1027 l 1,45,-1
 780 1108 l 1,39,-1
EndSplineSet
EndChar

StartChar: uni06EB
Encoding: 1771 1771 393
Width: 0
GlyphClass: 2
Flags: W
LayerCount: 2
Fore
SplineSet
168 1522 m 1,0,-1
 -1 1354 l 1,1,-1
 -168 1521 l 1,2,-1
 1 1689 l 1,3,-1
 168 1522 l 1,0,-1
104 1522 m 1,4,-1
 0 1626 l 1,5,-1
 -104 1521 l 1,6,-1
 0 1417 l 1,7,-1
 104 1522 l 1,4,-1
EndSplineSet
EndChar

StartChar: comma
Encoding: 44 44 402
Width: 433
Flags: W
LayerCount: 2
Fore
SplineSet
94 -289 m 1,0,-1
 94 -252 l 1,1,2
 179 -222 179 -222 227 -161.5 c 128,-1,3
 275 -101 275 -101 275 -34 c 0,4,5
 275 -17 275 -17 268 -6 c 0,6,7
 262 1 262 1 255 1 c 0,8,9
 247 1 247 1 215 -16 c 0,10,11
 200 -23 200 -23 184 -23 c 0,12,13
 142 -23 142 -23 118 1.5 c 128,-1,14
 94 26 94 26 94 69 c 0,15,16
 94 109 94 109 125.5 139 c 128,-1,17
 157 169 157 169 201 169 c 0,18,19
 257 169 257 169 300.5 120.5 c 128,-1,20
 344 72 344 72 344 -9 c 0,21,22
 344 -95 344 -95 283.5 -170 c 128,-1,23
 223 -245 223 -245 94 -289 c 1,0,-1
EndSplineSet
EndChar

StartChar: afii57407
Encoding: 1567 1567 403
Width: 600
GlyphClass: 2
Flags: W
LayerCount: 2
Fore
SplineSet
309 1325 m 1,0,1
 365 1319 365 1319 428 1253 c 0,2,3
 487 1190 487 1190 528 1096 c 0,4,5
 543 1065 543 1065 543 1024 c 0,6,7
 543 991 543 991 533.5 950 c 128,-1,8
 524 909 524 909 504 862 c 0,9,10
 494 836 494 836 471 836 c 0,11,12
 457 838 457 838 445.5 849 c 128,-1,13
 434 860 434 860 434 874 c 1,14,15
 451 913 451 913 451 950 c 0,16,17
 451 1030 451 1030 391 1094 c 0,18,19
 340 1147 340 1147 295 1147 c 2,20,-1
 291 1147 l 1,21,22
 250 1143 250 1143 221.5 1112 c 128,-1,23
 193 1081 193 1081 193 1049 c 1,24,-1
 195 1040 l 2,25,26
 205 983 205 983 238 936 c 0,27,28
 266 899 266 899 319 858 c 1,29,30
 432 745 432 745 451 715 c 0,31,32
 467 692 467 692 487 602 c 0,33,34
 496 569 496 569 496 530 c 0,35,36
 496 477 496 477 475 418 c 0,37,38
 457 367 457 367 416 287 c 0,39,40
 406 266 406 266 391.5 255 c 128,-1,41
 377 244 377 244 365 244 c 0,42,43
 346 246 346 246 346 270 c 0,44,45
 346 281 346 281 348 287 c 0,46,47
 377 336 377 336 389 365.5 c 128,-1,48
 401 395 401 395 401 418 c 0,49,50
 401 434 401 434 393 455 c 1,51,52
 377 563 377 563 356 600 c 0,53,54
 334 641 334 641 262 696 c 1,55,56
 174 770 174 770 137 823 c 0,57,58
 106 868 106 868 94 922 c 0,59,60
 90 934 90 934 89 948.5 c 128,-1,61
 88 963 88 963 88 975 c 0,62,63
 88 1092 88 1092 163 1208.5 c 128,-1,64
 238 1325 238 1325 309 1325 c 1,0,1
438 150 m 2,65,66
 453 143 453 143 460 133 c 128,-1,67
 467 123 467 123 467 109 c 0,68,69
 467 90 467 90 453 70 c 1,70,71
 451 59 451 59 444 49 c 0,72,73
 434 37 434 37 430 29 c 0,74,75
 426 16 426 16 416 8 c 0,76,77
 401 -10 401 -10 397 -14 c 1,78,79
 379 8 379 8 354 16 c 0,80,81
 340 23 340 23 297 33 c 0,82,83
 285 37 285 37 281 39 c 0,84,85
 279 39 279 39 279 39 c 1,86,87
 262 47 262 47 255 56.5 c 128,-1,88
 248 66 248 66 248 82 c 0,89,90
 248 90 248 90 256 102 c 2,91,-1
 309 221 l 1,92,-1
 438 150 l 2,65,66
EndSplineSet
EndChar

StartChar: afii57392
Encoding: 1776 1776 404
Width: 430
Flags: W
LayerCount: 2
Fore
SplineSet
343 442 m 2,0,-1
 292 346 l 1,1,-1
 83 463 l 1,2,-1
 157 606 l 1,3,-1
 306 528 l 1,4,5
 353 498 353 498 351 469 c 0,6,7
 351 457 351 457 343 442 c 2,0,-1
EndSplineSet
EndChar

StartChar: afii57393
Encoding: 1777 1777 405
Width: 410
Flags: W
LayerCount: 2
Fore
SplineSet
90 1249 m 1,0,1
 109 1217 109 1217 137 1153 c 0,2,3
 158 1108 158 1108 195 1018 c 0,4,5
 225 938 225 938 233 911 c 0,6,7
 291 766 291 766 330 610 c 0,8,9
 358 483 358 483 377 358 c 0,10,11
 389 256 389 256 389 180 c 0,12,13
 389 125 389 125 364.5 61.5 c 128,-1,14
 340 -2 340 -2 324.5 -11 c 128,-1,15
 309 -20 309 -20 297 -20 c 0,16,17
 281 -20 281 -20 281 -2 c 0,18,19
 283 14 283 14 284 36.5 c 128,-1,20
 285 59 285 59 285 86 c 0,21,22
 285 186 285 186 258 315 c 128,-1,23
 231 444 231 444 164 662 c 0,24,25
 143 725 143 725 114.5 803 c 128,-1,26
 86 881 86 881 59 946 c 0,27,28
 57 954 57 954 8 1069 c 1,29,-1
 90 1249 l 1,0,1
EndSplineSet
EndChar

StartChar: afii57394
Encoding: 1778 1778 406
Width: 539
Flags: W
LayerCount: 2
Fore
SplineSet
25 1092 m 1,0,-1
 113 1274 l 1,1,2
 133 1243 133 1243 158 1188 c 0,3,4
 180 1139 180 1139 186 1110 c 1,5,6
 219 1092 219 1092 260 1092 c 0,7,8
 297 1092 297 1092 335 1105 c 128,-1,9
 373 1118 373 1118 395 1141 c 1,10,11
 403 1159 403 1159 408.5 1174.5 c 128,-1,12
 414 1190 414 1190 414 1206 c 0,13,14
 416 1221 416 1221 423 1230 c 128,-1,15
 430 1239 430 1239 440 1237 c 0,16,17
 453 1237 453 1237 460 1225.5 c 128,-1,18
 467 1214 467 1214 467 1192 c 0,19,20
 467 1110 467 1110 453.5 1053.5 c 128,-1,21
 440 997 440 997 414 958 c 1,22,23
 371 924 371 924 309 924 c 0,24,25
 299 924 299 924 289 924 c 128,-1,26
 279 924 279 924 266 930 c 1,27,28
 340 702 340 702 373 508 c 1,29,30
 406 342 406 342 406 213 c 0,31,32
 406 162 406 162 397 123 c 0,33,34
 385 74 385 74 360 33 c 0,35,36
 340 2 340 2 334 2 c 0,37,38
 324 2 324 2 324 53 c 0,39,40
 324 143 324 143 307.5 232.5 c 128,-1,41
 291 322 291 322 256 434 c 0,42,43
 217 557 217 557 176 680 c 0,44,45
 158 737 158 737 139 795 c 0,46,47
 111 885 111 885 86 946 c 0,48,49
 53 1034 53 1034 25 1092 c 1,0,-1
EndSplineSet
EndChar

StartChar: afii57395
Encoding: 1779 1779 407
Width: 590
Flags: W
LayerCount: 2
Fore
SplineSet
303 1077 m 0,0,1
 319 1081 319 1081 327.5 1095.5 c 128,-1,2
 336 1110 336 1110 336 1145 c 2,3,-1
 336 1169 l 1,4,5
 342 1190 342 1190 349 1199 c 128,-1,6
 356 1208 356 1208 360 1208 c 0,7,8
 367 1206 367 1206 371 1202 c 0,9,10
 377 1200 377 1200 389 1182 c 0,11,12
 395 1167 395 1167 395 1135 c 0,13,14
 395 1114 395 1114 389 1083 c 1,15,16
 403 1079 403 1079 414 1079 c 0,17,18
 426 1079 426 1079 436 1084.5 c 128,-1,19
 446 1090 446 1090 458.5 1099 c 128,-1,20
 471 1108 471 1108 477 1130.5 c 128,-1,21
 483 1153 483 1153 483 1184 c 0,22,23
 483 1200 483 1200 491.5 1208.5 c 128,-1,24
 500 1217 500 1217 508 1214 c 0,25,26
 528 1214 528 1214 528 1184 c 2,27,-1
 528 1178 l 2,28,29
 528 1077 528 1077 518 1029 c 128,-1,30
 508 981 508 981 483 942 c 1,31,32
 463 924 463 924 442.5 916.5 c 128,-1,33
 422 909 422 909 403 909 c 0,34,35
 371 909 371 909 346 930 c 1,36,37
 332 907 332 907 293 907 c 0,38,39
 274 907 274 907 262 913 c 1,40,41
 322 758 322 758 354 610 c 0,42,43
 381 483 381 483 391 373 c 0,44,45
 395 303 395 303 395 199 c 0,46,47
 395 150 395 150 385 111 c 0,48,49
 385 102 385 102 367 33 c 0,50,51
 360 20 360 20 348 9 c 128,-1,52
 336 -2 336 -2 324 -2 c 0,53,54
 317 0 317 0 313 5 c 128,-1,55
 309 10 309 10 309 23 c 0,56,57
 309 147 309 147 296 251.5 c 128,-1,58
 283 356 283 356 256 463 c 0,59,60
 233 543 233 543 195 668 c 1,61,62
 145 807 145 807 98 909 c 0,63,64
 47 1024 47 1024 2 1083 c 1,65,-1
 106 1266 l 1,66,67
 115 1255 115 1255 139 1208 c 0,68,69
 170 1151 170 1151 199 1092 c 0,70,71
 205 1083 205 1083 227.5 1078 c 128,-1,72
 250 1073 250 1073 274 1073 c 0,73,74
 297 1073 297 1073 303 1077 c 0,0,1
EndSplineSet
EndChar

StartChar: afii62843
Encoding: 1780 1780 408
Width: 831
Flags: W
LayerCount: 2
Fore
SplineSet
162 1249 m 1,0,1
 274 993 274 993 283 975 c 1,2,3
 295 1044 295 1044 311 1110 c 0,4,5
 334 1194 334 1194 381 1235 c 128,-1,6
 428 1276 428 1276 495.5 1253.5 c 128,-1,7
 563 1231 563 1231 690 1110 c 1,8,9
 524 1153 524 1153 441 1084.5 c 128,-1,10
 358 1016 358 1016 373 877 c 1,11,12
 502 784 502 784 587 814 c 128,-1,13
 672 844 672 844 752 999 c 1,14,15
 752 748 752 748 632 687.5 c 128,-1,16
 512 627 512 627 391 668 c 1,17,-1
 395 641 l 1,18,-1
 401 623 l 1,19,20
 430 483 430 483 446 358 c 0,21,22
 459 256 459 256 459 180 c 0,23,24
 459 125 459 125 434.5 61.5 c 128,-1,25
 410 -2 410 -2 395 -10 c 0,26,27
 381 -20 381 -20 369 -20 c 0,28,29
 352 -20 352 -20 352 -2 c 0,30,31
 354 14 354 14 354 37 c 0,32,33
 356 59 356 59 356 86 c 0,34,35
 356 186 356 186 330 315 c 0,36,37
 303 444 303 444 236 662 c 0,38,39
 213 725 213 725 184 801 c 1,40,41
 158 881 158 881 131 946 c 0,42,43
 127 954 127 954 78 1069 c 1,44,-1
 162 1249 l 1,45,-1
 162 1249 l 1,0,1
EndSplineSet
EndChar

StartChar: afii62844
Encoding: 1781 1781 409
Width: 803
Flags: W
LayerCount: 2
Fore
SplineSet
291 1251 m 1,0,1
 365 1188 365 1188 435.5 1097 c 128,-1,2
 506 1006 506 1006 607.5 814.5 c 128,-1,3
 709 623 709 623 733 377 c 0,4,5
 745 256 745 256 729 175 c 128,-1,6
 713 94 713 94 662 51 c 0,7,8
 557 -45 557 -45 432 72 c 1,9,10
 307 -27 307 -27 199 25 c 0,11,12
 94 76 94 76 88 303 c 1,13,14
 88 516 88 516 143.5 658.5 c 128,-1,15
 199 801 199 801 234.5 861.5 c 128,-1,16
 270 922 270 922 293 948 c 1,17,18
 274 979 274 979 256 993.5 c 128,-1,19
 238 1008 238 1008 223 1036 c 1,20,21
 233 1090 233 1090 253.5 1142 c 128,-1,22
 274 1194 274 1194 291 1251 c 1,0,1
360 913 m 1,23,24
 319 881 319 881 282.5 820.5 c 128,-1,25
 246 760 246 760 210 670 c 128,-1,26
 174 580 174 580 165 500 c 128,-1,27
 156 420 156 420 168 340 c 1,28,29
 205 188 205 188 279.5 180 c 128,-1,30
 354 172 354 172 422 307 c 1,31,32
 434 254 434 254 480 225.5 c 128,-1,33
 526 197 526 197 569 207 c 1,34,35
 672 217 672 217 653 383 c 0,36,37
 637 489 637 489 603 570 c 128,-1,38
 569 651 569 651 526 715 c 0,39,40
 481 778 481 778 439 829.5 c 128,-1,41
 397 881 397 881 360 913 c 1,23,24
EndSplineSet
EndChar

StartChar: afii62845
Encoding: 1782 1782 410
Width: 735
Flags: W
LayerCount: 2
Fore
SplineSet
573 1049 m 1,0,1
 586 1024 586 1024 377 1106 c 1,2,3
 242 1118 242 1118 145 1012 c 1,4,5
 166 823 166 823 296 800.5 c 128,-1,6
 426 778 426 778 508 809 c 128,-1,7
 590 840 590 840 688 870 c 1,8,-1
 664 711 l 1,9,10
 426 557 426 557 150 -4 c 1,11,12
 131 98 131 98 217 334 c 1,13,14
 311 545 311 545 362 606 c 1,15,16
 -33 725 -33 725 88 1055 c 1,17,18
 162 1204 162 1204 246 1227 c 1,19,20
 299 1253 299 1253 389 1214.5 c 128,-1,21
 479 1176 479 1176 573 1049 c 1,0,1
EndSplineSet
EndChar

StartChar: afii57399
Encoding: 1783 1783 411
Width: 795
Flags: W
LayerCount: 2
Fore
SplineSet
39 1178 m 2,0,1
 41 1190 41 1190 49 1196 c 128,-1,2
 57 1202 57 1202 66 1202 c 0,3,4
 78 1202 78 1202 89 1196 c 128,-1,5
 100 1190 100 1190 106 1182 c 0,6,7
 188 1059 188 1059 288.5 853 c 128,-1,8
 389 647 389 647 442 483 c 1,9,10
 475 655 475 655 483 692 c 0,11,12
 508 813 508 813 530 897 c 0,13,14
 555 995 555 995 586 1069 c 1,15,16
 610 1139 610 1139 635 1176 c 0,17,18
 662 1217 662 1217 702 1243 c 1,19,-1
 739 1077 l 1,20,21
 721 1053 721 1053 705.5 1026 c 128,-1,22
 690 999 690 999 680 967 c 0,23,24
 618 737 618 737 586 565 c 0,25,26
 551 379 551 379 506 70 c 1,27,28
 500 -2 500 -2 471 2 c 0,29,30
 463 2 463 2 453.5 13.5 c 128,-1,31
 444 25 444 25 442 47 c 0,32,33
 420 205 420 205 373 346 c 0,34,35
 332 475 332 475 258 623 c 0,36,37
 201 737 201 737 106 895 c 0,38,39
 96 909 96 909 57 973 c 0,40,41
 33 1016 33 1016 14 1036 c 1,42,-1
 39 1178 l 2,0,1
EndSplineSet
EndChar

StartChar: afii57400
Encoding: 1784 1784 412
Width: 846
Flags: W
LayerCount: 2
Fore
SplineSet
397 745 m 1,0,1
 381 627 381 627 356.5 535.5 c 128,-1,2
 332 444 332 444 295 346 c 0,3,4
 248 233 248 233 199 158 c 0,5,6
 147 74 147 74 76 0 c 1,7,-1
 2 186 l 1,8,9
 47 213 47 213 90 281 c 0,10,11
 125 334 125 334 168 432 c 0,12,13
 176 455 176 455 244 616 c 1,14,15
 279 713 279 713 316.5 893 c 128,-1,16
 354 1073 354 1073 354 1167 c 0,17,18
 354 1206 354 1206 363.5 1228.5 c 128,-1,19
 373 1251 373 1251 403 1251 c 0,20,21
 420 1251 420 1251 427 1223.5 c 128,-1,22
 434 1196 434 1196 434 1169 c 0,23,24
 434 1057 434 1057 465 911 c 0,25,26
 489 791 489 791 528 666 c 0,27,28
 557 578 557 578 592 489 c 1,29,30
 625 389 625 389 676 307 c 0,31,32
 721 238 721 238 784 172 c 1,33,-1
 696 0 l 1,34,35
 582 139 582 139 506 332 c 0,36,37
 434 514 434 514 397 745 c 1,0,1
EndSplineSet
EndChar

StartChar: afii57401
Encoding: 1785 1785 413
Width: 563
Flags: W
LayerCount: 2
Fore
SplineSet
332 1147 m 0,0,1
 348 1049 348 1049 353 915.5 c 128,-1,2
 358 782 358 782 362.5 757.5 c 128,-1,3
 367 733 367 733 368 711.5 c 128,-1,4
 369 690 369 690 377 639 c 0,5,6
 385 561 385 561 401 494 c 0,7,8
 420 397 420 397 442 315 c 0,9,10
 471 219 471 219 504 158 c 1,11,-1
 414 -8 l 1,12,13
 373 45 373 45 344 133 c 128,-1,14
 315 221 315 221 287 373 c 0,15,16
 270 475 270 475 248 725 c 1,17,18
 186 702 186 702 145 702 c 0,19,20
 86 702 86 702 47 737 c 128,-1,21
 8 772 8 772 8 827 c 0,22,23
 8 907 8 907 52 1010.5 c 128,-1,24
 96 1114 96 1114 172 1206 c 0,25,26
 188 1227 188 1227 204.5 1235 c 128,-1,27
 221 1243 221 1243 238 1243 c 0,28,29
 270 1243 270 1243 297 1215.5 c 128,-1,30
 324 1188 324 1188 332 1147 c 0,0,1
248 887 m 1,31,32
 242 961 242 961 242 1018 c 0,33,34
 242 1047 242 1047 231.5 1063 c 128,-1,35
 221 1079 221 1079 207 1077 c 0,36,37
 188 1077 188 1077 172 1059 c 0,38,39
 135 1024 135 1024 115 993 c 0,40,41
 90 954 90 954 90 913 c 1,42,43
 98 889 98 889 120.5 875.5 c 128,-1,44
 143 862 143 862 174 862 c 0,45,46
 213 862 213 862 248 887 c 1,31,32
EndSplineSet
EndChar

StartChar: afii57392.001
Encoding: 1632 1632 414
Width: 430
Flags: W
LayerCount: 2
Fore
SplineSet
338 442 m 2,0,-1
 287 346 l 1,1,-1
 78 463 l 1,2,-1
 152 606 l 1,3,-1
 301 528 l 1,4,5
 348 498 348 498 346 469 c 0,6,7
 346 457 346 457 338 442 c 2,0,-1
EndSplineSet
EndChar

StartChar: afii57393.001
Encoding: 1633 1633 415
Width: 410
Flags: W
LayerCount: 2
Fore
SplineSet
90 1249 m 1,0,1
 109 1217 109 1217 137 1153 c 0,2,3
 158 1108 158 1108 195 1018 c 0,4,5
 225 938 225 938 233 911 c 0,6,7
 291 766 291 766 330 610 c 0,8,9
 358 483 358 483 377 358 c 0,10,11
 389 256 389 256 389 180 c 0,12,13
 389 125 389 125 364.5 61.5 c 128,-1,14
 340 -2 340 -2 324.5 -11 c 128,-1,15
 309 -20 309 -20 297 -20 c 0,16,17
 281 -20 281 -20 281 -2 c 0,18,19
 283 14 283 14 284 36.5 c 128,-1,20
 285 59 285 59 285 86 c 0,21,22
 285 186 285 186 258 315 c 128,-1,23
 231 444 231 444 164 662 c 0,24,25
 143 725 143 725 114.5 803 c 128,-1,26
 86 881 86 881 59 946 c 0,27,28
 57 954 57 954 8 1069 c 1,29,-1
 90 1249 l 1,0,1
EndSplineSet
EndChar

StartChar: afii57394.001
Encoding: 1634 1634 416
Width: 539
Flags: W
LayerCount: 2
Fore
SplineSet
25 1092 m 1,0,-1
 113 1274 l 1,1,2
 133 1243 133 1243 158 1188 c 0,3,4
 180 1139 180 1139 186 1110 c 1,5,6
 219 1092 219 1092 260 1092 c 0,7,8
 297 1092 297 1092 335 1105 c 128,-1,9
 373 1118 373 1118 395 1141 c 1,10,11
 403 1159 403 1159 408.5 1174.5 c 128,-1,12
 414 1190 414 1190 414 1206 c 0,13,14
 416 1221 416 1221 423 1230 c 128,-1,15
 430 1239 430 1239 440 1237 c 0,16,17
 453 1237 453 1237 460 1225.5 c 128,-1,18
 467 1214 467 1214 467 1192 c 0,19,20
 467 1110 467 1110 453.5 1053.5 c 128,-1,21
 440 997 440 997 414 958 c 1,22,23
 371 924 371 924 309 924 c 0,24,25
 299 924 299 924 289 924 c 128,-1,26
 279 924 279 924 266 930 c 1,27,28
 340 702 340 702 373 508 c 1,29,30
 406 342 406 342 406 213 c 0,31,32
 406 162 406 162 397 123 c 0,33,34
 385 74 385 74 360 33 c 0,35,36
 340 2 340 2 334 2 c 0,37,38
 324 2 324 2 324 53 c 0,39,40
 324 143 324 143 307.5 232.5 c 128,-1,41
 291 322 291 322 256 434 c 0,42,43
 217 557 217 557 176 680 c 0,44,45
 158 737 158 737 139 795 c 0,46,47
 111 885 111 885 86 946 c 0,48,49
 53 1034 53 1034 25 1092 c 1,0,-1
EndSplineSet
EndChar

StartChar: afii57395.001
Encoding: 1635 1635 417
Width: 590
Flags: W
LayerCount: 2
Fore
SplineSet
303 1077 m 0,0,1
 319 1081 319 1081 327.5 1095.5 c 128,-1,2
 336 1110 336 1110 336 1145 c 2,3,-1
 336 1169 l 1,4,5
 342 1190 342 1190 349 1199 c 128,-1,6
 356 1208 356 1208 360 1208 c 0,7,8
 367 1206 367 1206 371 1202 c 0,9,10
 377 1200 377 1200 389 1182 c 0,11,12
 395 1167 395 1167 395 1135 c 0,13,14
 395 1114 395 1114 389 1083 c 1,15,16
 403 1079 403 1079 414 1079 c 0,17,18
 426 1079 426 1079 436 1084.5 c 128,-1,19
 446 1090 446 1090 458.5 1099 c 128,-1,20
 471 1108 471 1108 477 1130.5 c 128,-1,21
 483 1153 483 1153 483 1184 c 0,22,23
 483 1200 483 1200 491.5 1208.5 c 128,-1,24
 500 1217 500 1217 508 1214 c 0,25,26
 528 1214 528 1214 528 1184 c 2,27,-1
 528 1178 l 2,28,29
 528 1077 528 1077 518 1029 c 128,-1,30
 508 981 508 981 483 942 c 1,31,32
 463 924 463 924 442.5 916.5 c 128,-1,33
 422 909 422 909 403 909 c 0,34,35
 371 909 371 909 346 930 c 1,36,37
 332 907 332 907 293 907 c 0,38,39
 274 907 274 907 262 913 c 1,40,41
 322 758 322 758 354 610 c 0,42,43
 381 483 381 483 391 373 c 0,44,45
 395 303 395 303 395 199 c 0,46,47
 395 150 395 150 385 111 c 0,48,49
 385 102 385 102 367 33 c 0,50,51
 360 20 360 20 348 9 c 128,-1,52
 336 -2 336 -2 324 -2 c 0,53,54
 317 0 317 0 313 5 c 128,-1,55
 309 10 309 10 309 23 c 0,56,57
 309 147 309 147 296 251.5 c 128,-1,58
 283 356 283 356 256 463 c 0,59,60
 233 543 233 543 195 668 c 1,61,62
 145 807 145 807 98 909 c 0,63,64
 47 1024 47 1024 2 1083 c 1,65,-1
 106 1266 l 1,66,67
 115 1255 115 1255 139 1208 c 0,68,69
 170 1151 170 1151 199 1092 c 0,70,71
 205 1083 205 1083 227.5 1078 c 128,-1,72
 250 1073 250 1073 274 1073 c 0,73,74
 297 1073 297 1073 303 1077 c 0,0,1
EndSplineSet
EndChar

StartChar: afii57396
Encoding: 1636 1636 418
Width: 647
Flags: W
LayerCount: 2
Fore
SplineSet
584 180 m 1,0,-1
 530 -2 l 1,1,2
 467 14 467 14 406 29 c 0,3,4
 315 53 315 53 256 72 c 0,5,6
 172 96 172 96 121 119 c 1,7,8
 119 131 119 131 118 141.5 c 128,-1,9
 117 152 117 152 117 160 c 0,10,11
 117 199 117 199 133 254 c 0,12,13
 143 281 143 281 160 324 c 0,14,15
 182 373 182 373 209 420 c 0,16,17
 227 451 227 451 268 516 c 0,18,19
 291 551 291 551 328 606 c 1,20,21
 260 618 260 618 185.5 657 c 128,-1,22
 111 696 111 696 86 725 c 1,23,24
 86 813 86 813 90 837.5 c 128,-1,25
 94 862 94 862 109 905 c 0,26,27
 154 1024 154 1024 229 1120 c 0,28,29
 317 1231 317 1231 416 1257 c 1,30,-1
 393 1067 l 1,31,32
 328 1028 328 1028 285 987 c 1,33,34
 229 942 229 942 186 877 c 1,35,36
 227 864 227 864 320.5 832.5 c 128,-1,37
 414 801 414 801 451 791 c 1,38,39
 489 774 489 774 489 715 c 0,40,41
 489 684 489 684 476 641 c 128,-1,42
 463 598 463 598 438 551 c 1,43,44
 420 528 420 528 375 467 c 128,-1,45
 330 406 330 406 313 381 c 0,46,47
 281 336 281 336 242 272 c 1,48,49
 309 258 309 258 379 238 c 0,50,51
 408 231 408 231 584 180 c 1,0,-1
EndSplineSet
EndChar

StartChar: afii57397
Encoding: 1637 1637 419
Width: 766
Flags: W
LayerCount: 2
Fore
SplineSet
664 784 m 0,0,1
 680 733 680 733 689 671.5 c 128,-1,2
 698 610 698 610 698 543 c 0,3,4
 698 467 698 467 686 398.5 c 128,-1,5
 674 330 674 330 651 281 c 0,6,7
 616 213 616 213 545 174 c 0,8,9
 471 133 471 133 336 113 c 1,10,11
 211 113 211 113 158 158 c 0,12,13
 96 207 96 207 86 332 c 0,14,15
 84 352 84 352 84 373 c 2,16,-1
 84 389 l 2,17,18
 84 541 84 541 139.5 744.5 c 128,-1,19
 195 948 195 948 266 1047 c 1,20,21
 344 1147 344 1147 401 1147 c 0,22,23
 446 1147 446 1147 496 1077 c 0,24,25
 569 981 569 981 600 927.5 c 128,-1,26
 631 874 631 874 664 784 c 0,0,1
160 332 m 1,27,28
 180 309 180 309 213 298 c 128,-1,29
 246 287 246 287 287 287 c 0,30,31
 365 287 365 287 454 321.5 c 128,-1,32
 543 356 543 356 618 418 c 1,33,34
 618 520 618 520 561 683 c 128,-1,35
 504 846 504 846 440 922 c 0,36,37
 416 950 416 950 403 961 c 0,38,39
 383 979 383 979 367 979 c 0,40,41
 348 979 348 979 328.5 960.5 c 128,-1,42
 309 942 309 942 283 899 c 0,43,44
 225 807 225 807 185 657.5 c 128,-1,45
 145 508 145 508 145 408 c 0,46,47
 145 356 145 356 160 332 c 1,27,28
EndSplineSet
EndChar

StartChar: afii57398
Encoding: 1638 1638 420
Width: 653
Flags: W
LayerCount: 2
Fore
SplineSet
74 1092 m 2,0,-1
 115 1200 l 2,1,2
 121 1214 121 1214 128 1220.5 c 128,-1,3
 135 1227 135 1227 147 1227 c 0,4,5
 160 1227 160 1227 174 1221 c 0,6,7
 201 1208 201 1208 226.5 1199 c 128,-1,8
 252 1190 252 1190 287 1190 c 256,9,10
 322 1190 322 1190 358.5 1202 c 128,-1,11
 395 1214 395 1214 430 1233 c 1,12,13
 455 1225 455 1225 467 1201.5 c 128,-1,14
 479 1178 479 1178 473 1077 c 1,15,16
 473 881 473 881 483.5 752 c 128,-1,17
 494 623 494 623 520 483 c 0,18,19
 535 397 535 397 584 172 c 1,20,-1
 483 -2 l 1,21,22
 418 238 418 238 385 528 c 0,23,24
 358 782 358 782 358 1053 c 1,25,26
 244 1030 244 1030 176 1030 c 0,27,28
 72 1030 72 1030 72 1073 c 0,29,30
 72 1085 72 1085 74 1092 c 2,0,-1
EndSplineSet
EndChar

StartChar: afii57399.001
Encoding: 1639 1639 421
Width: 795
Flags: W
LayerCount: 2
Fore
SplineSet
39 1178 m 2,0,1
 41 1190 41 1190 49 1196 c 128,-1,2
 57 1202 57 1202 66 1202 c 0,3,4
 78 1202 78 1202 89 1196 c 128,-1,5
 100 1190 100 1190 106 1182 c 0,6,7
 188 1059 188 1059 288.5 853 c 128,-1,8
 389 647 389 647 442 483 c 1,9,10
 475 655 475 655 483 692 c 0,11,12
 508 813 508 813 530 897 c 0,13,14
 555 995 555 995 586 1069 c 1,15,16
 610 1139 610 1139 635 1176 c 0,17,18
 662 1217 662 1217 702 1243 c 1,19,-1
 739 1077 l 1,20,21
 721 1053 721 1053 705.5 1026 c 128,-1,22
 690 999 690 999 680 967 c 0,23,24
 618 737 618 737 586 565 c 0,25,26
 551 379 551 379 506 70 c 1,27,28
 500 -2 500 -2 471 2 c 0,29,30
 463 2 463 2 453.5 13.5 c 128,-1,31
 444 25 444 25 442 47 c 0,32,33
 420 205 420 205 373 346 c 0,34,35
 332 475 332 475 258 623 c 0,36,37
 201 737 201 737 106 895 c 0,38,39
 96 909 96 909 57 973 c 0,40,41
 33 1016 33 1016 14 1036 c 1,42,-1
 39 1178 l 2,0,1
EndSplineSet
EndChar

StartChar: afii57400.001
Encoding: 1640 1640 422
Width: 846
Flags: W
LayerCount: 2
Fore
SplineSet
397 745 m 1,0,1
 381 627 381 627 356.5 535.5 c 128,-1,2
 332 444 332 444 295 346 c 0,3,4
 248 233 248 233 199 158 c 0,5,6
 147 74 147 74 76 0 c 1,7,-1
 2 186 l 1,8,9
 47 213 47 213 90 281 c 0,10,11
 125 334 125 334 168 432 c 0,12,13
 176 455 176 455 244 616 c 1,14,15
 279 713 279 713 316.5 893 c 128,-1,16
 354 1073 354 1073 354 1167 c 0,17,18
 354 1206 354 1206 363.5 1228.5 c 128,-1,19
 373 1251 373 1251 403 1251 c 0,20,21
 420 1251 420 1251 427 1223.5 c 128,-1,22
 434 1196 434 1196 434 1169 c 0,23,24
 434 1057 434 1057 465 911 c 0,25,26
 489 791 489 791 528 666 c 0,27,28
 557 578 557 578 592 489 c 1,29,30
 625 389 625 389 676 307 c 0,31,32
 721 238 721 238 784 172 c 1,33,-1
 696 0 l 1,34,35
 582 139 582 139 506 332 c 0,36,37
 434 514 434 514 397 745 c 1,0,1
EndSplineSet
EndChar

StartChar: afii57401.001
Encoding: 1641 1641 423
Width: 563
Flags: W
LayerCount: 2
Fore
SplineSet
332 1147 m 0,0,1
 348 1049 348 1049 353 915.5 c 128,-1,2
 358 782 358 782 362.5 757.5 c 128,-1,3
 367 733 367 733 368 711.5 c 128,-1,4
 369 690 369 690 377 639 c 0,5,6
 385 561 385 561 401 494 c 0,7,8
 420 397 420 397 442 315 c 0,9,10
 471 219 471 219 504 158 c 1,11,-1
 414 -8 l 1,12,13
 373 45 373 45 344 133 c 128,-1,14
 315 221 315 221 287 373 c 0,15,16
 270 475 270 475 248 725 c 1,17,18
 186 702 186 702 145 702 c 0,19,20
 86 702 86 702 47 737 c 128,-1,21
 8 772 8 772 8 827 c 0,22,23
 8 907 8 907 52 1010.5 c 128,-1,24
 96 1114 96 1114 172 1206 c 0,25,26
 188 1227 188 1227 204.5 1235 c 128,-1,27
 221 1243 221 1243 238 1243 c 0,28,29
 270 1243 270 1243 297 1215.5 c 128,-1,30
 324 1188 324 1188 332 1147 c 0,0,1
248 887 m 1,31,32
 242 961 242 961 242 1018 c 0,33,34
 242 1047 242 1047 231.5 1063 c 128,-1,35
 221 1079 221 1079 207 1077 c 0,36,37
 188 1077 188 1077 172 1059 c 0,38,39
 135 1024 135 1024 115 993 c 0,40,41
 90 954 90 954 90 913 c 1,42,43
 98 889 98 889 120.5 875.5 c 128,-1,44
 143 862 143 862 174 862 c 0,45,46
 213 862 213 862 248 887 c 1,31,32
EndSplineSet
EndChar

StartChar: guillemotleft
Encoding: 171 171 424
Width: 836
Flags: W
LayerCount: 2
Fore
SplineSet
403 623 m 1,0,1
 349 515 349 515 349 403 c 0,2,3
 349 266 349 266 478 95 c 1,4,-1
 478 96 l 1,5,6
 498 73 498 73 507.5 57.5 c 128,-1,7
 517 42 517 42 520 34 c 0,8,9
 520 9 520 9 494 9 c 0,10,11
 488 9 488 9 474 15 c 0,12,13
 371 83 371 83 293 180 c 1,14,-1
 293 179 l 1,15,16
 202 287 202 287 202 406 c 0,17,18
 203 457 203 457 222.5 508 c 128,-1,19
 242 559 242 559 279 610 c 0,20,21
 306 647 306 647 340 683 c 128,-1,22
 374 719 374 719 417.5 761.5 c 128,-1,23
 461 804 461 804 488 804 c 0,24,25
 523 804 523 804 523 780 c 0,26,27
 523 770 523 770 515 762 c 0,28,29
 461 708 461 708 437.5 674.5 c 128,-1,30
 414 641 414 641 402 622 c 1,31,-1
 403 623 l 1,0,1
653 623 m 1,32,33
 599 515 599 515 599 403 c 0,34,35
 599 266 599 266 728 95 c 1,36,-1
 728 96 l 1,37,38
 748 73 748 73 757.5 57.5 c 128,-1,39
 767 42 767 42 770 34 c 0,40,41
 770 9 770 9 744 9 c 0,42,43
 738 9 738 9 724 15 c 0,44,45
 621 83 621 83 543 180 c 1,46,-1
 543 179 l 1,47,48
 452 287 452 287 452 406 c 0,49,50
 453 457 453 457 472.5 508 c 128,-1,51
 492 559 492 559 529 610 c 0,52,53
 556 647 556 647 590 683 c 128,-1,54
 624 719 624 719 667.5 761.5 c 128,-1,55
 711 804 711 804 738 804 c 0,56,57
 773 804 773 804 773 780 c 0,58,59
 773 770 773 770 765 762 c 0,60,61
 711 708 711 708 687.5 674.5 c 128,-1,62
 664 641 664 641 652 622 c 1,63,-1
 653 623 l 1,32,33
EndSplineSet
EndChar

StartChar: guillemotright
Encoding: 187 187 425
Width: 836
Flags: W
LayerCount: 2
Fore
SplineSet
573 622 m 1,0,1
 561 641 561 641 537.5 674.5 c 128,-1,2
 514 708 514 708 460 762 c 0,3,4
 452 770 452 770 452 780 c 0,5,6
 452 804 452 804 487 804 c 0,7,8
 514 804 514 804 557.5 761.5 c 128,-1,9
 601 719 601 719 635 683 c 128,-1,10
 669 647 669 647 696 610 c 0,11,12
 733 559 733 559 752.5 508 c 128,-1,13
 772 457 772 457 773 406 c 0,14,15
 773 287 773 287 682 179 c 1,16,-1
 682 180 l 1,17,18
 604 83 604 83 501 15 c 0,19,20
 487 9 487 9 481 9 c 0,21,22
 455 9 455 9 455 34 c 0,23,24
 458 42 458 42 467.5 57.5 c 128,-1,25
 477 73 477 73 497 96 c 1,26,-1
 497 95 l 1,27,28
 626 266 626 266 626 403 c 0,29,30
 626 515 626 515 572 623 c 1,31,-1
 573 622 l 1,0,1
323 622 m 1,32,33
 311 641 311 641 287.5 674.5 c 128,-1,34
 264 708 264 708 210 762 c 0,35,36
 202 770 202 770 202 780 c 0,37,38
 202 804 202 804 237 804 c 0,39,40
 264 804 264 804 307.5 761.5 c 128,-1,41
 351 719 351 719 385 683 c 128,-1,42
 419 647 419 647 446 610 c 0,43,44
 483 559 483 559 502.5 508 c 128,-1,45
 522 457 522 457 523 406 c 0,46,47
 523 287 523 287 432 179 c 1,48,-1
 432 180 l 1,49,50
 354 83 354 83 251 15 c 0,51,52
 237 9 237 9 231 9 c 0,53,54
 205 9 205 9 205 34 c 0,55,56
 208 42 208 42 217.5 57.5 c 128,-1,57
 227 73 227 73 247 96 c 1,58,-1
 247 95 l 1,59,60
 376 266 376 266 376 403 c 0,61,62
 376 515 376 515 322 623 c 1,63,-1
 323 622 l 1,32,33
EndSplineSet
EndChar

StartChar: quoteleft
Encoding: 8216 8216 426
Width: 425
Flags: W
LayerCount: 2
Fore
SplineSet
131 1073 m 0,0,1
 132 1138 132 1138 176 1201.5 c 128,-1,2
 220 1265 220 1265 275 1291 c 1,3,-1
 306 1233 l 1,4,5
 290 1224 290 1224 268 1200 c 128,-1,6
 246 1176 246 1176 236 1138 c 1,7,8
 302 1110 302 1110 299 1055 c 0,9,10
 299 1039 299 1039 292.5 1024.5 c 128,-1,11
 286 1010 286 1010 275 999 c 128,-1,12
 264 988 264 988 249 981.5 c 128,-1,13
 234 975 234 975 218 975 c 0,14,15
 198 975 198 975 181.5 983.5 c 128,-1,16
 165 992 165 992 154 1005.5 c 128,-1,17
 143 1019 143 1019 137 1037 c 128,-1,18
 131 1055 131 1055 131 1073 c 0,0,1
EndSplineSet
EndChar

